<?xml version="1.0" encoding="utf-8"?>
<!-- Generator: Adobe Illustrator 17.1.0, SVG Export Plug-In . SVG Version: 6.00 Build 0)  -->
<!DOCTYPE svg PUBLIC "-//W3C//DTD SVG 1.1//EN" "http://www.w3.org/Graphics/SVG/1.1/DTD/svg11.dtd">
<svg version="1.1" id="Layer_1" xmlns="http://www.w3.org/2000/svg" xmlns:xlink="http://www.w3.org/1999/xlink" x="0px" y="0px"
	 viewBox="0 0 101 101" enable-background="new 0 0 101 101" xml:space="preserve">
<path fill="#F15A24" d="M50.5,0.5c-27.6,0-50,22.4-50,50c0,27.6,22.4,50,50,50s50-22.4,50-50C100.5,22.9,78.1,0.5,50.5,0.5z
	 M34.7,68.2c-0.4,0.5-1,0.8-1.6,0.8c-0.4,0-0.9-0.1-1.2-0.4C24.7,62.8,20.5,54.2,20.5,45c0-7.5,2.8-14.7,7.9-20.3
	c0.7-0.8,2-0.9,2.8-0.1c0.8,0.7,0.9,2,0.1,2.8c-4.4,4.8-6.9,11.1-6.9,17.6c0,8,3.6,15.5,9.9,20.4C35.3,66.1,35.4,67.3,34.7,68.2z
	 M40.9,60.3c-0.4,0.5-1,0.8-1.6,0.8c-0.4,0-0.9-0.1-1.2-0.4c-4.8-3.8-7.6-9.5-7.6-15.7c0-4.9,1.8-9.7,5.1-13.3
	c0.7-0.8,2-0.9,2.8-0.2c0.8,0.7,0.9,2,0.2,2.8c-2.6,2.9-4.1,6.7-4.1,10.7c0,4.9,2.2,9.5,6,12.5C41.4,58.2,41.6,59.4,40.9,60.3z
	 M52.5,54.8V75c0,1.1-0.9,2-2,2s-2-0.9-2-2V54.8c-4.6-0.9-8-5-8-9.8c0-5.5,4.5-10,10-10s10,4.5,10,10C60.5,49.8,57.1,53.8,52.5,54.8
	z M63,60.6c-0.4,0.3-0.8,0.4-1.3,0.4c-0.6,0-1.2-0.3-1.6-0.7c-0.7-0.9-0.6-2.1,0.3-2.8c3.8-3.1,6-7.6,6-12.5c0-4-1.5-7.8-4.1-10.7
	c-0.7-0.8-0.7-2.1,0.1-2.8c0.8-0.7,2.1-0.7,2.8,0.1c3.3,3.7,5.1,8.4,5.1,13.4C70.5,51.1,67.8,56.8,63,60.6z M69.1,68.5
	c-0.4,0.3-0.8,0.4-1.2,0.4c-0.6,0-1.2-0.3-1.6-0.8c-0.7-0.9-0.5-2.1,0.3-2.8c6.3-5,9.9-12.4,9.9-20.4c0-6.5-2.4-12.8-6.9-17.6
	c-0.7-0.8-0.7-2.1,0.1-2.8c0.8-0.7,2.1-0.7,2.8,0.1c5.1,5.5,7.9,12.8,7.9,20.3C80.5,54.2,76.3,62.8,69.1,68.5z"/>
</svg>
