<?xml version="1.0" encoding="utf-8"?>
<!-- Generator: Adobe Illustrator 17.1.0, SVG Export Plug-In . SVG Version: 6.00 Build 0)  -->
<!DOCTYPE svg PUBLIC "-//W3C//DTD SVG 1.1//EN" "http://www.w3.org/Graphics/SVG/1.1/DTD/svg11.dtd">
<svg version="1.1" id="Layer_1" xmlns="http://www.w3.org/2000/svg" xmlns:xlink="http://www.w3.org/1999/xlink" x="0px" y="0px"
	 viewBox="0 0 300 170" enable-background="new 0 0 300 170" xml:space="preserve">
<g>
	<g>
		<g>
			<defs>
				<path id="SVGID_1_" d="M225,148.2l60.8-7.8c2.8-0.4,4.9-2.8,4.9-5.7l-0.2-16.1V99.7c0-2.8-2.1-5.2-4.9-5.6l-60.8-7.7"/>
			</defs>
			<clipPath id="SVGID_2_">
				<use xlink:href="#SVGID_1_"  overflow="visible"/>
			</clipPath>
			<path clip-path="url(#SVGID_2_)" fill="#F1F0F0" d="M224,86.6v61.7V86.6z"/>
			<rect x="224" y="87" clip-path="url(#SVGID_2_)" fill="#F1F0F0" width="66" height="61"/>
			<rect x="290" y="86.7" clip-path="url(#SVGID_2_)" fill="#F1F0F0" width="0" height="61.8"/>
		</g>
		<path fill="#CCCCCC" d="M225.2,149.6l-0.4-2.8l60.8-7.8c2.1-0.3,3.7-2.1,3.7-4.2l-0.2-16.1v-19c0-2.1-1.6-3.9-3.7-4.2l-60.8-7.7
			l0.4-2.8l60.8,7.7c3.5,0.4,6.1,3.4,6.1,7v18.9l0.2,16c0,3.6-2.6,6.6-6.1,7.1L225.2,149.6z"/>
	</g>
	<g>
		<path fill="#F1F0F0" d="M75.2,86.5l-61,7.8c-2.8,0.4-4.9,2.8-4.9,5.6L9.4,116v18.9c0,2.8,2.1,5.2,4.9,5.6l61,7.7"/>
		<path fill="#CCCCCC" d="M75.2,149.6l-61-7.7c-3.5-0.4-6.1-3.4-6.1-7V116L7.9,99.9c0-3.5,2.6-6.6,6.1-7l61-7.8l0.4,2.8l-61,7.8
			c-2.1,0.3-3.7,2.1-3.7,4.2l0.1,16.1v18.9c0,2.1,1.6,3.9,3.7,4.2l61,7.7L75.2,149.6z"/>
	</g>
	<g>
		<path fill="#FFFFFF" d="M223,157.8c0,6.2-5,11.2-11.2,11.2H87.2C81,169,76,164,76,157.8V80.2C76,74,81,69,87.2,69h124.5
			c6.2,0,11.2,5,11.2,11.2V157.8z"/>
		<path fill="#CCCCCC" d="M224,157.4c0,7-5.7,12.6-12.6,12.6H86.6c-7,0-12.6-5.7-12.6-12.6V79.6c0-7,5.7-12.6,12.6-12.6h124.7
			c7,0,12.6,5.7,12.6,12.6V157.4z M222,79.8c0-5.4-4.4-9.8-9.8-9.8H86.8c-5.4,0-9.8,4.4-9.8,9.8v78.3c0,5.4,4.4,9.8,9.8,9.8h125.3
			c5.4,0,9.8-4.4,9.8-9.8V79.8z"/>
	</g>
	<g>
		<circle fill="#F16232" cx="149.7" cy="118.5" r="39.3"/>
		<path fill="#DA592C" d="M149.7,159.2c-22.5,0-40.8-18.3-40.8-40.8s18.3-40.8,40.8-40.8s40.8,18.3,40.8,40.8
			S172.2,159.2,149.7,159.2z M149.7,80.6c-20.9,0-37.9,17-37.9,37.9s17,37.9,37.9,37.9s37.9-17,37.9-37.9S170.6,80.6,149.7,80.6z"/>
	</g>
	<path opacity="0.1" fill="#FFFFFF" d="M118.4,139.7c-11.8-17.1-7.5-40.9,9.8-52.8s41-7.3,52.8,9.8L118.4,139.7z"/>
	<g>
		<path fill="#00B4B4" d="M108.4,23.6c0.8,0.8,2,0.8,2.8,0.1c10.5-9.9,24.2-15.3,38.7-15.3c14.5,0,28.2,5.4,38.7,15.3
			c0.8,0.7,2,0.7,2.8-0.1l2.9-2.9c0.8-0.8,0.8-2.1-0.1-2.9C182.2,6.5,166.6,0.3,149.9,0.3c-16.6,0-32.3,6.2-44.3,17.5
			c-0.8,0.8-0.9,2.1-0.1,2.9L108.4,23.6z"/>
		<path fill="#00B4B4" d="M179.4,35.7c0.8-0.8,0.8-2.1-0.1-2.9c-8.1-7.3-18.4-11.3-29.3-11.3c-11,0-21.3,4-29.3,11.3
			c-0.9,0.8-0.9,2.1-0.1,2.9l2.9,2.9c0.8,0.8,2,0.8,2.8,0.1c6.5-5.9,14.9-9.1,23.8-9.1c8.9,0,17.2,3.2,23.8,9.1
			c0.8,0.7,2,0.7,2.8-0.1L179.4,35.7z"/>
		<path fill="#00B4B4" d="M138.4,53.5c0.7,0.7,1.8,0.8,2.6,0.2c2.5-2,5.6-3.1,8.9-3.1c3.3,0,6.4,1.1,8.9,3.1
			c0.8,0.6,1.9,0.5,2.6-0.2l2.9-2.9c0.8-0.8,0.8-2.2-0.2-3c-4-3.3-9-5.1-14.3-5.1c-5.3,0-10.3,1.8-14.3,5.1c-0.9,0.8-1,2.2-0.2,3
			L138.4,53.5z"/>
	</g>
</g>
</svg>
