<?xml version="1.0" encoding="utf-8"?>
<!-- Generator: Adobe Illustrator 17.1.0, SVG Export Plug-In . SVG Version: 6.00 Build 0)  -->
<!DOCTYPE svg PUBLIC "-//W3C//DTD SVG 1.1//EN" "http://www.w3.org/Graphics/SVG/1.1/DTD/svg11.dtd">
<svg version="1.1" id="Layer_1" xmlns="http://www.w3.org/2000/svg" xmlns:xlink="http://www.w3.org/1999/xlink" x="0px" y="0px"
	 viewBox="0 0 101 101" enable-background="new 0 0 101 101" xml:space="preserve">
<path fill="#F15A24" d="M50.5,0.5c-27.6,0-50,22.4-50,50c0,27.6,22.4,50,50,50s50-22.4,50-50C100.5,22.9,78.1,0.5,50.5,0.5z
	 M45.2,80.5c-13.6,0-24.7-11.1-24.7-24.7c0-13.6,11.1-24.7,24.7-24.7c3.9,0,7.5,0.9,11,2.6c1,0.5,1.4,1.7,0.9,2.7
	c-0.5,1-1.7,1.4-2.7,0.9c-2.9-1.4-6-2.2-9.2-2.2c-11.4,0-20.7,9.3-20.7,20.7c0,11.4,9.3,20.7,20.7,20.7s20.7-9.3,20.7-20.7
	c0-1.5-0.2-3.1-0.5-4.6c-0.2-1.1,0.4-2.1,1.5-2.4c1.1-0.2,2.1,0.4,2.4,1.5c0.4,1.8,0.6,3.7,0.6,5.5C69.9,69.4,58.8,80.5,45.2,80.5z
	 M80.1,23.8l-35,43c-0.4,0.4-0.9,0.7-1.4,0.7c0,0-0.1,0-0.1,0c-0.5,0-1-0.2-1.4-0.6l-12-12c-0.8-0.8-0.8-2,0-2.8
	c0.8-0.8,2-0.8,2.8,0l10.4,10.4l33.6-41.3c0.7-0.9,2-1,2.8-0.3C80.6,21.6,80.7,22.9,80.1,23.8z"/>
</svg>
