<?xml version="1.0" standalone="no"?>
<!DOCTYPE svg PUBLIC "-//W3C//DTD SVG 1.1//EN" "http://www.w3.org/Graphics/SVG/1.1/DTD/svg11.dtd" >
<svg xmlns="http://www.w3.org/2000/svg">
<metadata></metadata>
<defs>
<font id="mergelight" horiz-adv-x="574" >
<font-face units-per-em="1000" ascent="750" descent="-250" />
<missing-glyph horiz-adv-x="296" />
<glyph horiz-adv-x="0" />
<glyph horiz-adv-x="333" />
<glyph unicode=" "  horiz-adv-x="296" />
<glyph unicode="&#x09;" horiz-adv-x="296" />
<glyph unicode="&#xa0;" horiz-adv-x="296" />
<glyph unicode="!" horiz-adv-x="261" d="M134 205h-5q-33 0 -33 35l-20 391q0 48 47 48h16q47 0 47 -48l-19 -391q-1 -35 -33 -35zM131 122q27 0 46 -18t19 -47t-19 -47t-46 -18q-28 0 -47 18t-19 47t19 47t47 18z" />
<glyph unicode="&#x22;" horiz-adv-x="328" d="M141 664l-14 -150q-3 -26 -24 -26h-10q-21 0 -24 26l-14 150q-3 31 26 31h33q13 0 21 -8.5t6 -22.5zM275 664l-14 -150q-3 -26 -24 -26h-10q-21 0 -24 26l-14 150q-3 31 26 31h33q13 0 21 -8.5t6 -22.5z" />
<glyph unicode="#" horiz-adv-x="688" d="M315 39l41 129h-141q-26 -84 -44 -136q-11 -32 -45 -32h-6q-32 0 -32 23q0 12 42 145h-81q-39 0 -39 36q0 37 38 38h106q8 23 31.5 99t26.5 85h-87q-39 0 -39 39q0 34 39 37h112q19 72 45 144q11 32 46 32h6q33 0 33 -22q0 -19 -47 -154h141q30 93 47 144q11 32 46 32h5 q33 0 33 -23q0 -1 -47 -153h89q39 0 39 -37q0 -38 -39 -39h-112q-43 -132 -59 -184h94q38 0 38 -37q0 -34 -38 -37h-118q-5 -15 -21 -68.5t-21 -68.5q-11 -31 -46 -31h-5q-34 0 -34 23q0 7 3 16zM297 426l-59 -184h141q7 24 31.5 100t27.5 84h-141z" />
<glyph unicode="$" horiz-adv-x="594" d="M296 739h6q38 0 38 -35v-19q76 -5 119 -29t43 -55q0 -36 -44 -45q-32 47 -118 55v-231q95 -28 146.5 -69.5t51.5 -116.5q0 -76 -53 -129t-145 -68v-23q0 -20 -9 -28.5t-29 -8.5h-6q-21 0 -29.5 8t-8.5 29v18q-91 3 -146 31t-55 68q0 37 51 50q34 -70 150 -75v253 q-99 25 -148 66.5t-49 112.5t53.5 122t143.5 63v21q0 35 38 35zM451 181q0 44 -28.5 70.5t-82.5 44.5v-224q53 12 82 42t29 67zM151 502q0 -36 25.5 -58.5t81.5 -40.5v205q-49 -10 -78 -38.5t-29 -67.5z" />
<glyph unicode="%" horiz-adv-x="735" d="M550 275q56 0 95.5 -36t39.5 -102q0 -65 -39.5 -101t-95.5 -36t-96 36t-40 101q0 66 40 102t96 36zM550 218q-32 0 -53 -21t-21 -59t21 -59.5t53 -21.5t53 21.5t21 59.5t-21 59t-53 21zM186 681q56 0 95.5 -36t39.5 -102q0 -65 -39.5 -101t-95.5 -36t-96 36t-40 101 q0 66 40 102t96 36zM186 624q-32 0 -53 -21t-21 -59t21 -59.5t53 -21.5t53 21.5t21 59.5t-21 59t-53 21zM655 687q28 -22 3 -50l-514 -617q-24 -28 -49 -9q-25 22 -3 50l514 618q22 28 49 8z" />
<glyph unicode="&#x26;" horiz-adv-x="655" d="M619 35q9 -11 9 -20q0 -15 -21 -15h-30q-11 0 -22 7t-29.5 25.5t-25.5 24.5q-69 -70 -194 -70q-113 0 -178.5 57t-65.5 134q0 61 35.5 106t109.5 86q-47 47 -67.5 79.5t-20.5 75.5q0 67 46.5 115t123.5 48t126 -48.5t49 -115.5q0 -56 -38.5 -94t-111.5 -75 q178 -190 182 -194q22 41 22 95q0 31 -14 79q1 1 3 1.5t3 1.5q64 -34 64 -109q0 -62 -28 -114q18 -19 34.5 -37t26 -29t12.5 -14zM306 52q98 0 148 55q-34 35 -102.5 106t-102.5 107q-106 -48 -106 -142q0 -50 44 -88t119 -38zM199 525q0 -53 76 -122q59 29 86.5 55t27.5 65 q0 40 -27.5 66.5t-71.5 26.5q-42 0 -66.5 -25t-24.5 -66z" />
<glyph unicode="'" horiz-adv-x="196" d="M141 664l-14 -150q-3 -26 -24 -26h-10q-21 0 -24 26l-14 150q-3 31 26 31h33q13 0 21 -8.5t6 -22.5z" />
<glyph unicode="(" horiz-adv-x="349" d="M301 -155q13 -10 13 -30q0 -17 -12 -29t-28 -12q-20 0 -49 31q-153 158 -153 407v52q0 135 45.5 244.5t125.5 182.5q14 11 31 11q16 0 28 -12t12 -28q0 -19 -13 -31q-140 -132 -140 -367v-52q0 -235 140 -367z" />
<glyph unicode=")" horiz-adv-x="349" d="M47 -155q140 130 140 367v52q0 237 -140 367q-13 13 -13 31q0 17 12 28.5t29 11.5q7 0 12.5 -1.5t11 -5.5t8 -6t9 -9t8.5 -9q72 -73 112.5 -177t40.5 -230v-52q0 -249 -153 -407q-31 -31 -49 -31q-17 0 -29 12t-12 29q0 19 13 30z" />
<glyph unicode="*" horiz-adv-x="504" d="M216 547v118q0 35 36 35q37 0 37 -35v-118q3 2 21.5 14.5t28 18.5t24.5 15.5t25 13.5t16 4q12 0 23.5 -13.5t11.5 -25.5q0 -8 -8.5 -17t-25.5 -20t-31.5 -18.5t-37 -19.5t-30.5 -16q7 -8 39.5 -39t49.5 -51t17 -32q0 -11 -12.5 -23.5t-24.5 -12.5q-8 0 -20 7.5t-27 22.5 t-26.5 27t-28 31t-21.5 24q-7 -8 -24.5 -27t-28.5 -30.5t-26 -25.5t-26.5 -21t-20.5 -7q-12 0 -23.5 13t-11.5 23q0 11 16.5 30.5t51 52.5t39.5 38q-5 2 -17 8.5t-19 10t-19.5 10.5t-20 11.5l-17.5 10.5t-16.5 11t-12 10.5t-8.5 10t-3 8.5q0 12 12 25.5t24 13.5 q7 0 24.5 -9.5t51 -31t39.5 -25.5z" />
<glyph unicode="+" horiz-adv-x="567" d="M287 486q33 0 33 -37v-167h170q37 0 37 -33t-37 -33h-170v-170q0 -37 -33 -37t-33 37v170h-167q-37 0 -37 33t37 33h167v167q0 37 33 37z" />
<glyph unicode="," horiz-adv-x="261" d="M65 59q0 27 19 45t47 18q29 0 50.5 -22.5t21.5 -61.5q0 -64 -33 -109.5t-79 -45.5q-33 0 -33 24q33 8 54.5 35.5t21.5 66.5q-8 -4 -23 -4q-20 0 -33 16t-13 38z" />
<glyph unicode="-" horiz-adv-x="440" d="M87 327h266q37 0 37 -33t-37 -33h-266q-37 0 -37 33t37 33z" />
<glyph unicode="." horiz-adv-x="261" d="M131 122q27 0 46 -18t19 -47t-19 -47t-46 -18q-28 0 -47 18t-19 47t19 47t47 18z" />
<glyph unicode="/" horiz-adv-x="377" d="M326 710q31 -10 18 -46l-247 -647q-14 -35 -44 -23q-31 12 -18 46l246 647q13 35 45 23z" />
<glyph unicode="0" horiz-adv-x="690" d="M346 688q124 0 204 -89.5t80 -257.5q0 -165 -80.5 -257t-203.5 -92t-204.5 92t-81.5 257q0 167 81 257t205 90zM346 610q-83 0 -136.5 -71.5t-53.5 -197.5q0 -129 50 -200.5t140 -71.5q89 0 139.5 71.5t50.5 200.5q0 126 -54.5 197.5t-135.5 71.5z" />
<glyph unicode="1" horiz-adv-x="326" d="M111 679h103q42 0 42 -36v-605q0 -38 -42 -38h-7q-42 0 -42 38v566h-54q-41 0 -41 38q0 37 41 37z" />
<glyph unicode="2" horiz-adv-x="555" d="M275 688q103 0 158 -52.5t55 -133.5q0 -73 -51 -138.5t-228 -237.5q-34 -33 -52 -51h305q42 0 42 -37q0 -38 -42 -38h-371q-41 0 -41 43q0 36 32 60q198 188 261 261.5t63 128.5q0 54 -37.5 86.5t-103.5 32.5q-65 0 -102 -40t-43 -85q-56 0 -56 48q0 61 57 107t154 46z " />
<glyph unicode="3" horiz-adv-x="575" d="M276 688q116 0 168 -51t52 -120q0 -55 -32.5 -97.5t-82.5 -56.5q62 -13 106 -54t44 -109q0 -92 -78.5 -150t-194.5 -58q-97 0 -157.5 28t-60.5 73q0 37 45 50q29 -76 173 -76q75 0 132 34t57 96q0 57 -53 86.5t-127 29.5h-42q-45 0 -45 36q0 39 45 39h42q62 0 103.5 31.5 t41.5 86.5q0 42 -34.5 74.5t-103.5 32.5q-60 0 -98.5 -27t-52.5 -73q-53 0 -53 44t52 87.5t154 43.5z" />
<glyph unicode="4" horiz-adv-x="639" d="M458 682h2q37 0 37 -41v-393h52q40 0 40 -38q0 -37 -40 -37h-52v-136q0 -20 -9.5 -28.5t-32.5 -8.5h-6q-22 0 -30.5 8.5t-8.5 28.5v136h-324q-36 0 -36 30q0 20 15 40q46 58 94 116.5t120.5 144t96.5 113.5q2 3 9.5 12t11 13l10.5 12t12 11.5t11.5 8t13.5 6.5t14 2z M410 550q-32 -38 -120 -143.5t-133 -158.5h253v302z" />
<glyph unicode="5" horiz-adv-x="561" d="M158 679h306q40 0 40 -38t-40 -38h-276q-3 -37 -8 -107t-7 -92q48 14 120 14q100 0 164 -51t64 -149q0 -100 -75 -163t-192 -63q-96 0 -153 26.5t-57 74.5q0 36 42 50q13 -39 62.5 -57.5t115.5 -18.5q75 0 127 39t52 109q0 65 -45.5 97t-115.5 32q-54 0 -125 -21 q-9 -3 -17 -3q-19 0 -32 12.5t-13 32.5v5l22 272q2 20 10.5 28.5t30.5 8.5z" />
<glyph unicode="6" horiz-adv-x="628" d="M357 688q85 0 134.5 -34.5t49.5 -71.5q0 -31 -43 -42q-10 16 -18 25.5t-24.5 23t-42 20.5t-59.5 7q-54 0 -96.5 -26t-66.5 -68t-36 -89t-12 -95q29 41 83.5 68t115.5 27q117 0 171.5 -58t54.5 -152q0 -95 -62.5 -163t-184.5 -68q-130 0 -195.5 83t-65.5 229 q0 70 15.5 134.5t48 122.5t92.5 92.5t141 34.5zM321 362q-72 0 -120.5 -39t-48.5 -93q0 -25 9.5 -52t28.5 -53t53.5 -42.5t77.5 -16.5q86 0 125 43.5t39 111.5q0 141 -164 141z" />
<glyph unicode="7" horiz-adv-x="559" d="M80 679h398q41 0 41 -39q0 -17 -36 -86q-148 -292 -265 -525q-15 -29 -51 -29h-15q-32 0 -32 23q0 7 3 15.5t5.5 14.5t9.5 17.5t10 17.5q50 94 265 514h-333q-40 0 -40 38q0 39 40 39z" />
<glyph unicode="8" horiz-adv-x="606" d="M305 683q97 0 161 -51.5t64 -130.5q0 -103 -114 -144q58 -20 99 -62t41 -108q0 -87 -68 -141.5t-183 -54.5q-116 0 -185.5 54.5t-69.5 141.5q0 66 40 108.5t97 61.5q-113 42 -113 144q0 79 66.5 130.5t164.5 51.5zM305 612q-59 0 -99 -32.5t-40 -81.5q0 -54 35.5 -84 t103.5 -30q66 0 101 30.5t35 83.5q0 49 -38 81.5t-98 32.5zM305 319q-72 0 -118 -35.5t-46 -95.5q0 -57 45.5 -92t117.5 -35t116.5 35t44.5 92q0 60 -44.5 95.5t-115.5 35.5z" />
<glyph unicode="9" horiz-adv-x="628" d="M307 688q125 0 193 -84t68 -228q0 -70 -15.5 -134.5t-48 -122.5t-92.5 -92.5t-141 -34.5q-85 0 -134.5 34.5t-49.5 71.5q0 31 43 42q10 -16 18 -25.5t24.5 -23t42 -20.5t59.5 -7q54 0 96.5 26t66.5 68t36 89t12 95q-29 -41 -83.5 -68t-115.5 -27q-117 0 -171.5 58 t-54.5 152q0 91 68.5 161t178.5 70zM307 614q-77 0 -120.5 -45t-43.5 -110q0 -141 164 -141q72 0 120.5 39t48.5 93q0 25 -9.5 52t-28.5 53t-53.5 42.5t-77.5 16.5z" />
<glyph unicode=":" horiz-adv-x="261" d="M131 122q27 0 46 -18t19 -47t-19 -47t-46 -18q-28 0 -47 18t-19 47t19 47t47 18zM131 460q27 0 46 -18t19 -47t-19 -47t-46 -18q-28 0 -47 18t-19 47t19 47t47 18z" />
<glyph unicode=";" horiz-adv-x="261" d="M65 59q0 27 19 45t47 18q29 0 50.5 -22.5t21.5 -61.5q0 -64 -33 -109.5t-79 -45.5q-33 0 -33 24q33 8 54.5 35.5t21.5 66.5q-8 -4 -23 -4q-20 0 -33 16t-13 38zM131 459q27 0 46 -18t19 -47t-19 -47t-46 -18q-28 0 -47 18t-19 47t19 47t47 18z" />
<glyph unicode="&#x3c;" horiz-adv-x="552" d="M130 391q54 24 289 127q33 14 42 14q23 0 23 -34v-5q0 -32 -31 -43q-57 -21 -162 -68t-121 -54v-19q230 -99 284 -122q30 -14 30 -42v-5q0 -34 -24 -34q-8 0 -41 14q-48 20 -144 62l-144 63q-27 11 -39 25.5t-12 40.5v15q0 27 11.5 40t38.5 25z" />
<glyph unicode="=" horiz-adv-x="527" d="M87 391h353q37 0 37 -33t-37 -33h-353q-37 0 -37 33t37 33zM87 214h353q37 0 37 -33t-37 -33h-353q-37 0 -37 33t37 33z" />
<glyph unicode="&#x3e;" horiz-adv-x="553" d="M112 528q253 -112 311 -137q26 -11 38 -25.5t12 -39.5v-15q0 -27 -11.5 -40.5t-39.5 -25.5q-48 -21 -144 -62.5t-144 -62.5q-33 -14 -42 -14q-24 0 -24 34v5q0 28 31 42q47 21 142 61t142 61v19q-51 22 -146.5 63t-136.5 59q-32 10 -32 43v5q0 34 23 34q11 0 21 -4z" />
<glyph unicode="?" horiz-adv-x="477" d="M248 263v-12q0 -38 -39 -38h-5q-40 0 -40 38v12q0 13 1.5 24t6.5 21.5t7.5 17.5t12 16.5t13 14t17 14.5t17 12.5t20.5 14t20 13.5q27 19 40.5 29t25.5 28t12 37q0 48 -34.5 77t-95.5 29q-57 0 -87 -21.5t-46 -63.5q-23 0 -38.5 12t-15.5 31q0 46 53 81t136 35 q104 0 156 -50t52 -127q0 -39 -19.5 -71t-47.5 -53t-55.5 -39.5t-47 -39t-19.5 -42.5zM206 122q27 0 46 -18t19 -47t-19 -47t-46 -18q-28 0 -47 18t-19 47t19 47t47 18z" />
<glyph unicode="@" horiz-adv-x="773" d="M476 185q-14 -19 -42.5 -31.5t-60.5 -12.5q-75 0 -120.5 49t-45.5 130q0 96 49 143.5t124 47.5q64 0 110 -16t46 -53v-190q0 -21 11.5 -32t29.5 -11q65 0 65 123q0 131 -74.5 203t-177.5 72q-102 0 -176.5 -72t-74.5 -203t69.5 -205t169.5 -74q117 0 134 58q34 -5 34 -35 q0 -37 -44 -64.5t-126 -27.5q-136 0 -227 92t-91 256q0 111 49 192.5t123 119.5t160 38q64 0 123 -22.5t106 -65t75.5 -110.5t28.5 -152q0 -96 -42.5 -144t-106.5 -48q-38 0 -63.5 15t-34.5 30zM461 242v190q-32 13 -80 13q-43 0 -71 -28.5t-28 -95.5q0 -56 27 -85.5 t74 -29.5q24 0 43 7.5t27 15.5t8 13z" />
<glyph unicode="A" horiz-adv-x="687" d="M340 678h11q8 0 14.5 -1t11 -2t9.5 -5t7.5 -5.5t7 -8.5t6 -9t6.5 -12t7 -13q123 -223 227 -572q13 -50 -28 -50h-24q-8 0 -14 1.5t-11 6t-8 7.5t-6 11.5t-4.5 12.5t-4.5 15.5t-4 15.5q-27 100 -47 158h-302q-20 -62 -46 -158q-1 -4 -4 -15.5t-4.5 -15.5t-4.5 -12.5 t-6 -11.5t-8 -7.5t-11 -6t-14 -1.5h-24q-40 0 -28 50q104 349 227 572q2 3 7 13t6.5 12t6 9t7 8.5t7.5 5.5t9.5 5t11 2t14.5 1zM345 583q-65 -115 -126 -283h253q-36 99 -127 283z" />
<glyph unicode="B" horiz-adv-x="621" d="M139 679h174q100 0 160 -43t60 -132q0 -52 -27 -90.5t-71 -52.5q57 -10 99 -47t42 -112q0 -102 -68.5 -152t-177.5 -50h-191q-38 0 -38 37v603q0 39 38 39zM187 604v-217h133q66 0 97.5 27t31.5 83q0 107 -136 107h-126zM187 319v-244h143q161 0 161 127q0 117 -153 117 h-151z" />
<glyph unicode="C" horiz-adv-x="699" d="M394 687q106 0 174.5 -42t68.5 -93q0 -22 -16.5 -35.5t-43.5 -13.5q-31 106 -183 106q-100 0 -169.5 -67.5t-69.5 -200.5q0 -132 70 -202.5t169 -70.5q154 0 196 113q24 0 37.5 -13.5t13.5 -35.5q0 -51 -70 -95.5t-177 -44.5q-141 0 -236 91t-95 258t95 256.5t236 89.5z " />
<glyph unicode="D" horiz-adv-x="728" d="M139 679h199q66 0 123 -20t102.5 -59.5t72 -106.5t26.5 -154t-26.5 -153.5t-72 -106t-102.5 -59.5t-123 -20h-199q-38 0 -38 37v604q0 38 38 38zM187 603v-529h143q116 0 182 68t66 197t-66 196.5t-182 67.5h-143z" />
<glyph unicode="E" horiz-adv-x="577" d="M140 679h345q37 0 37 -38q0 -37 -37 -37h-297v-214h264q37 0 37 -38q0 -37 -37 -37h-264v-240h297q37 0 37 -38q0 -37 -37 -37h-345q-39 0 -39 38v603q0 38 39 38z" />
<glyph unicode="F" horiz-adv-x="566" d="M140 679h343q38 0 38 -38q0 -37 -38 -37h-295v-214h256q37 0 37 -38q0 -37 -37 -37h-256v-278q0 -37 -39 -37h-9q-39 0 -39 38v603q0 38 39 38z" />
<glyph unicode="G" horiz-adv-x="724" d="M386 687q117 0 181.5 -40t64.5 -95q0 -20 -16 -34t-43 -14q-31 103 -187 103q-95 0 -163 -69t-68 -197q0 -129 65.5 -200.5t165.5 -71.5t155.5 55.5t55.5 139.5q0 14 -14 14h-153q-39 0 -39 41q0 38 39 38h195q25 0 40.5 -14t15.5 -38v-42q0 -49 -19.5 -96.5t-55 -87 t-93 -63.5t-127.5 -24q-141 0 -232 92t-91 257q0 164 94 255t229 91z" />
<glyph unicode="H" horiz-adv-x="757" d="M140 679h9q39 0 39 -39v-251h382v251q0 39 39 39h9q38 0 38 -39v-602q0 -38 -38 -38h-9q-39 0 -39 38v276h-382v-276q0 -38 -39 -38h-9q-39 0 -39 38v602q0 39 39 39z" />
<glyph unicode="I" horiz-adv-x="289" d="M139 679h9q40 0 40 -39v-602q0 -38 -40 -38h-9q-38 0 -38 38v602q0 39 38 39z" />
<glyph unicode="J" horiz-adv-x="266" d="M128 679h9q39 0 39 -37v-602q0 -123 -55.5 -187.5t-155.5 -64.5q-60 0 -94 25t-34 58q0 21 11 33t27 12q6 -21 33.5 -39.5t70.5 -18.5q49 0 79.5 39t30.5 110v635q0 37 39 37z" />
<glyph unicode="K" horiz-adv-x="614" d="M139 679h9q39 0 39 -39v-261q173 140 272 271q20 29 61 29h35q24 0 24 -20q0 -10 -7 -17q-135 -153 -295 -279q80 -54 165 -139.5t152 -183.5q7 -10 7 -20q0 -20 -27 -20h-42q-27 0 -51 34q-126 179 -294 299v-295q0 -38 -39 -38h-9q-39 0 -39 38v602q0 39 39 39z" />
<glyph unicode="L" horiz-adv-x="569" d="M140 679h9q39 0 39 -38v-566h308q38 0 38 -38q0 -37 -38 -37h-356q-39 0 -39 38v603q0 38 39 38z" />
<glyph unicode="M" horiz-adv-x="903" d="M156 679h33q55 0 78 -63q28 -79 87.5 -256t94.5 -274q32 90 92.5 265t92.5 265q22 63 77 63h36q23 0 37 -13.5t14 -35.5v-55q0 -90 2 -268t2 -270q0 -37 -39 -37h-9q-39 0 -39 37q0 91 1 288t2 291q-171 -467 -211 -573q-17 -43 -57 -43h-7q-42 0 -57 43 q-27 74 -93.5 272.5t-107.5 300.5q1 -94 2 -291t1 -288q0 -37 -39 -37h-9q-39 0 -39 37q0 101 3 297t3 296q0 49 49 49z" />
<glyph unicode="N" horiz-adv-x="756" d="M141 679h20q38 0 64 -42l344 -500v503q0 21 9 30t29 9h9q39 0 39 -39v-592q0 -21 -10 -34.5t-29 -13.5h-13q-38 0 -73 51l-343 499v-512q0 -38 -36 -38h-10q-40 0 -40 38v592q0 49 40 49z" />
<glyph unicode="O" horiz-adv-x="767" d="M384 687q62 0 118 -20.5t103.5 -60.5t76 -109.5t28.5 -158.5q0 -88 -28.5 -156.5t-76 -108.5t-103.5 -60.5t-118 -20.5t-118.5 20.5t-104 60.5t-75.5 108.5t-28 156.5q0 89 28 158.5t75.5 109.5t104 60.5t118.5 20.5zM384 610q-98 0 -168.5 -70t-70.5 -201 q0 -130 70.5 -200t168.5 -70t168.5 70t70.5 200q0 131 -70.5 201t-168.5 70z" />
<glyph unicode="P" horiz-adv-x="609" d="M140 679h182q103 0 168 -49.5t65 -157.5q0 -107 -65 -157.5t-168 -50.5h-134v-226q0 -38 -39 -38h-9q-39 0 -39 38v602q0 39 39 39zM188 605v-266h135q147 0 147 133t-147 133h-135z" />
<glyph unicode="Q" horiz-adv-x="769" d="M383 687q62 0 118.5 -20.5t104 -61t75.5 -109.5t28 -158q0 -115 -47 -193t-124 -117q53 -63 129 -63q21 0 38 4q0 -36 -22.5 -61t-60.5 -25q-23 0 -44 6.5t-41.5 23t-30.5 25.5t-32.5 34t-25.5 28q-34 -8 -65 -8q-62 0 -118 20.5t-103.5 60.5t-76 108.5t-28.5 156.5 q0 89 28.5 158t76 109.5t103.5 61t118 20.5zM383 609q-99 0 -169 -69.5t-70 -201.5q0 -129 70.5 -199t168.5 -70q99 0 169 70t70 199q0 132 -70 201.5t-169 69.5z" />
<glyph unicode="R" horiz-adv-x="634" d="M185 604v-237h140q62 0 100.5 31t38.5 85q0 61 -36.5 91t-102.5 30h-140zM140 678l181 1q98 0 162.5 -46t64.5 -151q0 -77 -55 -127t-134 -56q35 -66 105.5 -149t134.5 -127q-20 -32 -58 -32q-26 0 -56.5 21t-55.5 49t-56.5 74.5t-50 79t-45.5 80.5h-92v-258 q0 -37 -40 -37h-5q-39 0 -39 37v603q0 38 39 38z" />
<glyph unicode="S" horiz-adv-x="594" d="M305 686q91 0 144 -24.5t53 -60.5t-44 -45q-38 57 -153 57q-68 0 -111 -31.5t-43 -79.5q0 -42 35 -66t115 -45q55 -14 91.5 -28t73 -36.5t54.5 -55.5t18 -77q0 -89 -72 -145.5t-191 -56.5q-97 0 -157.5 28.5t-60.5 70.5q0 37 51 50q37 -75 167 -75q83 0 129.5 33.5 t46.5 81.5q0 57 -46.5 85t-141.5 52q-102 25 -152 67t-50 113q0 80 68 134t176 54z" />
<glyph unicode="T" horiz-adv-x="568" d="M71 679h426q38 0 38 -38q0 -37 -38 -37h-170v-566q0 -38 -39 -38h-9q-39 0 -39 38v566h-169q-38 0 -38 37q0 38 38 38z" />
<glyph unicode="U" horiz-adv-x="740" d="M136 679h10q39 0 39 -39v-356q0 -218 185 -218t185 218v356q0 39 39 39h8q41 0 41 -39v-352q0 -42 -6 -79t-23.5 -78.5t-46.5 -71t-79.5 -48.5t-117.5 -19t-117.5 19t-79.5 48.5t-46.5 71t-23.5 78.5t-6 79v352q0 39 39 39z" />
<glyph unicode="V" horiz-adv-x="694" d="M40 650q0 28 32 28h24q8 0 14 -1.5t11 -6t8 -7.5t6 -11.5t4.5 -12.5t4.5 -15.5t4 -15.5q81 -302 200 -513q122 248 195 513q1 3 3 12.5t3 12t3.5 10.5t4 10.5t4.5 8t6 7.5t7 4.5t9.5 3.5t11.5 1h24q32 0 32 -28q0 -6 -4 -22q-104 -349 -227 -572q-2 -3 -7 -13t-6.5 -12 t-6 -9t-7 -8.5t-7.5 -5.5t-9.5 -5t-11 -2t-14.5 -1h-11q-8 0 -14.5 1t-11 2t-9.5 5t-7.5 5.5t-7 8.5t-6 9t-6.5 12t-7 13q-123 223 -227 572q-4 16 -4 22z" />
<glyph unicode="W" horiz-adv-x="1002" d="M84 677h24q38 0 44 -33l140 -552q20 70 74.5 259t83.5 293q10 35 44 35h9q33 0 43 -35q29 -104 83.5 -293t74.5 -259q78 249 134 552q6 33 44 33h24q13 0 21.5 -7.5t8.5 -18.5q0 -8 -2 -16q-73 -314 -161 -577q-20 -58 -63 -58h-15q-48 0 -63 54q-25 94 -72 264t-62 224 q-22 -82 -67 -243.5t-67 -244.5q-7 -25 -23.5 -39.5t-39.5 -14.5h-21q-43 0 -63 58q-88 263 -161 577q-2 8 -2 16q0 11 8.5 18.5t21.5 7.5z" />
<glyph unicode="X" horiz-adv-x="638" d="M72 679h40q25 0 44 -27l169 -243q41 48 80.5 109t58.5 98l19 36q17 27 43 27h41q21 0 21 -19q0 -8 -4 -13q-11 -19 -30 -50.5t-74.5 -109t-106.5 -132.5l224 -322q6 -9 6 -17q0 -16 -20 -16h-43q-29 0 -48 30l-173 270q-36 -38 -79 -105.5t-68 -116.5l-24 -48 q-19 -30 -48 -30h-43q-19 0 -19 16q0 11 29.5 60.5t84.5 127.5t115 150l-212 293q-5 7 -5 13q0 19 22 19z" />
<glyph unicode="Y" horiz-adv-x="631" d="M72 679h21q6 0 11 -1.5t9.5 -6t8 -8.5t7.5 -11.5t6 -12.5t6.5 -15t6.5 -15q67 -149 162 -272h11q95 123 162 272q2 5 6.5 15t6.5 15t6 12.5t7.5 11.5t8 8.5t9.5 6t11 1.5h21q32 0 32 -28q0 -14 -4 -22q-8 -22 -18 -43.5t-18 -39t-20.5 -39.5t-20 -35.5t-23.5 -37 t-22.5 -34t-25.5 -36.5t-25 -34t-28 -37.5t-27 -36.5v-218q0 -38 -39 -38h-9q-39 0 -39 38v218q-5 7 -27 36.5t-28 37.5t-25 34t-25.5 36.5t-22.5 34t-23.5 37t-20 35.5t-20.5 39.5t-18 39t-18 43.5q-4 8 -4 22q0 28 32 28z" />
<glyph unicode="Z" horiz-adv-x="692" d="M139 678h420q27 0 43 -16t16 -42v-21q0 -22 -52 -79q-73 -82 -206 -232.5t-184 -207.5v-11h398q20 0 29 -8.5t9 -27.5q0 -20 -8.5 -26.5t-29.5 -6.5h-435q-27 0 -42 15t-15 41v13q0 30 47 85q58 66 124.5 140t145.5 162.5t124 139.5v13h-384q-20 0 -28 7.5t-8 27.5t8 27 t28 7z" />
<glyph unicode="[" horiz-adv-x="322" d="M121 689h127q36 0 36 -38t-36 -38h-83v-757h83q36 0 36 -38t-36 -38h-127q-39 0 -39 37v834q0 20 9 29t30 9z" />
<glyph unicode="\" horiz-adv-x="377" d="M96 687l246 -647q13 -34 -18 -46q-30 -12 -44 23l-247 647q-13 36 18 46q32 12 45 -23z" />
<glyph unicode="]" horiz-adv-x="322" d="M75 689h126q40 0 40 -38v-834q0 -37 -40 -37h-126q-37 0 -37 38t37 38h83v757h-83q-37 0 -37 38t37 38z" />
<glyph unicode="^" horiz-adv-x="484" d="M367 489l-125 139q-14 -13 -63 -70.5t-61 -68.5h-83l173 188h68l173 -188h-82z" />
<glyph unicode="_" horiz-adv-x="529" d="M0 0h529q37 0 37 -33t-37 -33h-529q-37 0 -37 33t37 33z" />
<glyph unicode="`" horiz-adv-x="339" d="M256 551l-182 81q-20 9 -20 33v27q0 18 18 18q9 0 16 -4l180 -107q16 -10 18 -27v-9q0 -15 -17 -15q-7 0 -13 3z" />
<glyph unicode="a" horiz-adv-x="534" d="M248 501q212 0 212 -197v-198q0 -55 42 -70q-15 -38 -56 -38q-30 0 -47.5 21.5t-17.5 56.5q-63 -84 -163 -84q-81 0 -127.5 41.5t-46.5 109.5q0 73 54.5 117t147.5 44q20 0 37.5 -1.5t33 -5t23 -6t21.5 -7.5t16 -6v44q0 61 -31 86.5t-94 25.5q-89 0 -138 -68 q-42 6 -42 39q0 38 52 67t124 29zM248 242q-56 0 -89 -26t-33 -69q0 -40 28.5 -64.5t77.5 -24.5q62 0 103.5 40t41.5 97v19q-63 28 -129 28z" />
<glyph unicode="b" horiz-adv-x="570" d="M110 701h8q38 0 38 -37v-239q20 34 62 56t92 22q93 0 150.5 -62.5t57.5 -189.5q0 -128 -68 -193.5t-170 -65.5q-85 0 -178 35q-15 6 -22 15t-7 27v595q0 37 37 37zM301 432q-63 0 -104 -49.5t-41 -130.5v-160q56 -30 129 -30q67 0 108.5 47t41.5 141q0 182 -134 182z" />
<glyph unicode="c" horiz-adv-x="495" d="M288 502q74 0 119.5 -27t45.5 -58q0 -38 -43 -43q-10 22 -45 40.5t-83 18.5q-67 0 -111 -47.5t-44 -139.5q0 -90 45 -138t108 -48q100 0 135 65q19 0 32 -11.5t13 -29.5q0 -35 -48 -63.5t-124 -28.5q-47 0 -89.5 14.5t-78.5 44t-57 79.5t-21 116q0 67 21.5 118.5t58 80.5 t78.5 43t88 14z" />
<glyph unicode="d" horiz-adv-x="570" d="M448 721h8q38 0 38 -36v-649q0 -36 -38 -36h-8q-38 0 -38 34v49q-22 -39 -63 -64.5t-93 -25.5q-89 0 -147 61t-58 184q0 130 64 197.5t163 67.5q78 0 134 -46v228q0 36 38 36zM275 430q-66 0 -105 -47.5t-39 -143.5q0 -94 40 -136t101 -42q72 0 105 50t33 124v140 q-53 55 -135 55z" />
<glyph unicode="e" horiz-adv-x="515" d="M275 502q89 0 142 -46.5t53 -115.5t-54.5 -107.5t-140.5 -38.5t-155 27q0 -73 50 -117.5t122 -44.5q112 0 140 69q17 0 29 -9.5t12 -27.5q0 -35 -51.5 -67t-130.5 -32q-106 0 -177.5 64t-71.5 190q0 124 70 190t163 66zM273 436q-63 0 -107 -47t-45 -106q72 -24 143 -24 q130 0 130 84q0 39 -33.5 66t-87.5 27z" />
<glyph unicode="f" horiz-adv-x="374" d="M312 718q46 0 76.5 -21t30.5 -53q0 -31 -32 -42q-25 42 -86 42q-49 0 -73.5 -38.5t-24.5 -105.5v-10h123q38 0 38 -34q0 -33 -38 -33h-123v-390q0 -20 -9 -28.5t-29 -8.5h-5q-21 0 -30 8.5t-9 28.5v390h-52q-21 0 -29.5 6.5t-8.5 26.5t9 27t29 7h52v32q0 93 51 144.5 t140 51.5z" />
<glyph unicode="g" horiz-adv-x="528" d="M428 535q27 0 48 -16.5t21 -41.5q0 -50 -74 -72q22 -30 22 -88q0 -85 -55.5 -129.5t-138.5 -44.5q-7 0 -22 1t-23 1q-24 0 -41 -12.5t-17 -27.5q0 -38 64 -38h74q213 0 213 -131q0 -69 -66.5 -112t-170.5 -47h-24q-85 0 -145 34t-60 80q0 22 10.5 35t27.5 15 q12 -25 37 -45q56 -46 143 -46h7q75 0 117.5 23t42.5 57q0 35 -37.5 50.5t-115.5 15.5q-105 0 -151 18t-46 66q0 56 73 86q-87 49 -87 156q0 85 58 132t143 47q43 0 79.5 -18t55.5 -39q38 25 38 91zM251 437q-51 0 -85 -28.5t-34 -87.5t34 -87.5t85 -28.5t84.5 28.5 t33.5 87.5t-33.5 87.5t-84.5 28.5z" />
<glyph unicode="h" horiz-adv-x="564" d="M111 701h7q38 0 38 -38v-270q17 44 58 75t96 31q84 0 134 -47.5t50 -153.5v-260q0 -20 -9 -29t-29 -9h-8q-37 0 -37 38v255q0 139 -120 139q-63 0 -98.5 -52t-35.5 -131v-211q0 -38 -39 -38h-7q-20 0 -29 9t-9 29v625q0 38 38 38z" />
<glyph unicode="i" horiz-adv-x="262" d="M128 493h6q38 0 38 -37v-418q0 -38 -38 -38h-6q-38 0 -38 38v418q0 37 38 37zM131 690q22 0 38.5 -16.5t16.5 -39.5q0 -22 -16 -38.5t-39 -16.5t-39 16t-16 39t16 39.5t39 16.5z" />
<glyph unicode="j" horiz-adv-x="282" d="M148 492h6q38 0 38 -37v-433q0 -116 -35.5 -173.5t-122.5 -57.5q-50 0 -74 15.5t-24 38.5q0 31 25 47q6 -9 28 -18.5t46 -9.5q45 0 59.5 37.5t14.5 120.5v433q0 37 39 37zM151 689q22 0 38 -16.5t16 -39.5q0 -22 -16 -38t-38 -16q-23 0 -39 16t-16 38q0 23 16 39.5 t39 16.5z" />
<glyph unicode="k" horiz-adv-x="505" d="M113 701h6q20 0 29 -9t9 -29v-367q59 41 113.5 93t83 78t50.5 26h28q12 0 19.5 -6.5t7.5 -15.5q0 -33 -222 -190q53 -42 122.5 -116t109.5 -128q6 -9 6 -17q0 -20 -25 -20h-24q-32 0 -46 19q-106 139 -223 235v-216q0 -20 -9 -29t-29 -9h-6q-20 0 -29 9t-9 29v625 q0 20 9 29t29 9z" />
<glyph unicode="l" horiz-adv-x="241" d="M117 701h7q38 0 38 -37v-626q0 -38 -38 -38h-7q-21 0 -29.5 9t-8.5 29v626q0 20 8.5 28.5t29.5 8.5z" />
<glyph unicode="m" horiz-adv-x="847" d="M111 493h6q39 0 39 -38v-42q46 87 141 87q61 0 101.5 -32.5t55.5 -90.5q16 58 59 91t99 33q172 0 172 -201v-263q0 -37 -40 -37h-6q-38 0 -38 37v258q0 137 -104 137q-73 0 -99.5 -53t-26.5 -144v-198q0 -37 -39 -37h-7q-38 0 -38 37v258q0 137 -105 137 q-125 0 -125 -194v-201q0 -37 -39 -37h-6q-38 0 -38 37v418q0 38 38 38z" />
<glyph unicode="n" horiz-adv-x="557" d="M111 493h7q38 0 38 -38v-49q19 38 60 67t94 29q81 0 132.5 -48.5t51.5 -153.5v-262q0 -20 -9 -29t-29 -9h-8q-37 0 -37 38v259q0 73 -31 104t-88 31q-61 0 -98 -48t-37 -127v-219q0 -38 -39 -38h-7q-20 0 -29 9t-9 29v417q0 38 38 38z" />
<glyph unicode="o" d="M287 502q103 0 174 -67t71 -189t-71 -188t-174 -66t-174 66t-71 188t71 189t174 67zM287 433q-71 0 -115.5 -48.5t-44.5 -137.5q0 -90 44.5 -138.5t115.5 -48.5t115.5 48.5t44.5 138.5q0 89 -44.5 137.5t-115.5 48.5z" />
<glyph unicode="p" horiz-adv-x="570" d="M110 493h7q38 0 38 -35v-39q21 35 63 59t91 24q93 0 150.5 -62.5t57.5 -189.5q0 -128 -67.5 -193t-165.5 -65q-67 0 -129 34v-215q0 -37 -38 -37h-7q-38 0 -38 37v645q0 37 38 37zM290 432q-72 0 -103.5 -60t-31.5 -156v-125q10 -7 49.5 -18.5t79.5 -11.5q67 0 108.5 47 t41.5 141q0 96 -40 139.5t-104 43.5z" />
<glyph unicode="q" horiz-adv-x="570" d="M286 502q74 0 173 -31q35 -12 35 -49v-611q0 -37 -38 -37h-8q-38 0 -38 37v262q-22 -38 -65 -59t-92 -21q-89 0 -147 60.5t-58 183.5q0 129 68.5 197t169.5 68zM281 433q-66 0 -108 -50t-42 -145q0 -176 145 -176q70 0 102 52t32 127v162q-10 7 -49.5 18.5t-79.5 11.5z " />
<glyph unicode="r" horiz-adv-x="406" d="M111 493h6q38 0 38 -37v-54q17 38 54.5 68t83.5 30q40 0 62.5 -17t22.5 -40q0 -26 -21 -40q-31 26 -66 26q-62 0 -98 -50.5t-36 -126.5v-214q0 -20 -9 -29t-29 -9h-8q-20 0 -29 9t-9 29v418q0 37 38 37z" />
<glyph unicode="s" horiz-adv-x="463" d="M244 503q70 0 109.5 -20.5t39.5 -51.5q0 -25 -39 -38q-7 16 -38.5 30t-74.5 14q-49 0 -78.5 -17.5t-29.5 -50.5q0 -30 22 -47t87 -32q98 -22 141 -57t43 -95q0 -66 -58 -105.5t-147 -39.5q-80 0 -130.5 21.5t-50.5 57.5q0 34 33 50q14 -27 54 -46t104 -19q56 0 87.5 22 t31.5 54q0 33 -28.5 51.5t-106.5 35.5q-87 19 -124.5 52.5t-37.5 83.5q0 68 58.5 107.5t132.5 39.5z" />
<glyph unicode="t" horiz-adv-x="401" d="M154 626h7q38 0 38 -37v-99h138q39 0 39 -34t-39 -34h-138v-252q0 -63 24.5 -88.5t71.5 -25.5q48 0 71 23q25 -8 25 -34q0 -22 -33 -37.5t-79 -15.5q-163 0 -163 178v252h-49q-22 0 -32 7t-10 27q0 34 42 34h49v99q0 37 38 37z" />
<glyph unicode="u" horiz-adv-x="559" d="M99 492h7q38 0 38 -37v-257q0 -137 121 -137q46 0 77.5 27t43.5 64t12 80v223q0 37 39 37h7q20 0 28.5 -8.5t8.5 -28.5v-418q0 -20 -9 -28.5t-29 -8.5h-6q-39 0 -39 37v50q-14 -32 -59.5 -63.5t-97.5 -31.5q-180 0 -180 201v262q0 37 38 37z" />
<glyph unicode="v" horiz-adv-x="510" d="M60 492h23q32 0 39 -31q66 -258 127 -381h12q61 123 127 381q7 31 39 31h23q31 0 31 -22q0 -6 -3 -14q-77 -263 -150 -407q-13 -26 -27 -37.5t-41 -11.5h-9q-28 0 -42 11.5t-27 37.5q-73 144 -150 407q-3 8 -3 14q0 22 31 22z" />
<glyph unicode="w" horiz-adv-x="751" d="M63 492h16q29 0 36 -31q67 -271 104 -388h12q8 34 44 172.5t54 215.5q7 31 39 31h15q32 0 39 -31q17 -74 52 -206t48 -182h12q15 47 30 101.5t23 86t25.5 104.5t23.5 96q7 31 36 31h16q33 0 33 -22q0 -4 -2 -14q-9 -32 -26.5 -101t-28.5 -109t-28.5 -96t-34.5 -101 q-19 -49 -69 -49h-9q-28 0 -41 11.5t-21 37.5q-59 198 -83 343h-6q-28 -168 -80 -343q-8 -26 -21 -37.5t-41 -11.5h-9q-50 0 -69 49q-17 45 -35.5 103.5t-27.5 91.5t-30.5 114t-26.5 98q-2 10 -2 14q0 22 33 22z" />
<glyph unicode="x" horiz-adv-x="528" d="M83 493h31q25 0 41 -24l113 -173q43 53 115 173q15 24 39 24h18q29 0 29 -23q0 -8 -4 -15q-57 -97 -152 -208l157 -209q8 -11 8 -20q0 -18 -21 -18h-39q-25 0 -45 28l-113 163q-9 -9 -20 -23.5t-24.5 -34.5t-23 -34t-26 -39.5t-22.5 -35.5q-16 -24 -41 -24h-18 q-12 0 -20 8t-8 19q0 8 6 17q68 100 155 197l-156 214q-6 7 -6 16t7.5 15.5t19.5 6.5z" />
<glyph unicode="y" horiz-adv-x="517" d="M58 492h19q32 0 39 -31q61 -240 135 -388h9q84 207 135 388q9 31 39 31h16q31 0 31 -22q0 -6 -3 -14q-116 -362 -252 -650q-8 -17 -16.5 -24.5t-26.5 -7.5h-25q-24 0 -24 23q0 7 6 18q16 32 48 94t44 92h-2q-5 1 -10 2.5t-8 3t-6.5 5t-5.5 5t-5 7t-4 7t-4.5 9t-4.5 9.5 q-77 154 -152 407q-3 8 -3 14q0 22 31 22z" />
<glyph unicode="z" horiz-adv-x="497" d="M98 493h301q23 0 37 -13.5t14 -36.5v-8q0 -24 -27 -51q-19 -20 -126 -134.5t-162 -172.5v-4h257q18 0 26 -0.5t18.5 -4t14.5 -11t4 -20.5q0 -37 -36 -37h-321q-51 0 -51 50v10q0 21 26 49q46 50 136.5 151.5t136.5 150.5v9h-248q-37 0 -37 37q0 36 37 36z" />
<glyph unicode="{" horiz-adv-x="372" d="M86 271h5q55 0 55 119v176q0 68 31 98.5t100 30.5h7q38 0 38 -39q0 -37 -38 -37h-9q-47 0 -47 -46v-183q0 -102 -53 -158q53 -58 53 -167v-167q0 -46 47 -46h9q38 0 38 -38q0 -37 -38 -37h-7q-69 0 -100 30t-31 97v161q0 130 -55 130h-5q-37 0 -37 38t37 38z" />
<glyph unicode="|" horiz-adv-x="256" d="M125 731h7q38 0 38 -37v-706q0 -38 -38 -38h-7q-21 0 -29.5 9t-8.5 29v706q0 20 8.5 28.5t29.5 8.5z" />
<glyph unicode="}" horiz-adv-x="372" d="M285 193h-5q-54 0 -54 -135v-119q0 -86 -28.5 -124t-104.5 -38h-3q-40 0 -40 38t40 38h5q26 0 37 10.5t11 35.5v172q0 100 53 161q-53 53 -53 163v178q0 45 -48 45h-5q-40 0 -40 38t37 38h7q73 0 102.5 -33.5t29.5 -111.5v-142q0 -72 13 -104.5t43 -32.5h1q39 0 39 -39 q0 -38 -37 -38z" />
<glyph unicode="~" horiz-adv-x="399" d="M190 565q-36 16 -67 16q-23 0 -37 -16q-9 -11 -24.5 -7t-15.5 21q0 36 23 54q24 19 61 19q8 0 14 -0.5t13 -2t10.5 -2t11.5 -3.5t10 -4t12.5 -5.5t12.5 -5.5q36 -16 67 -16q23 0 37 16q9 11 24.5 7t15.5 -21q0 -36 -23 -54q-24 -19 -61 -19q-8 0 -14 0.5t-13 2t-10.5 2 t-11.5 3.5t-10 4t-12.5 5.5t-12.5 5.5z" />
<glyph unicode="&#xa1;" horiz-adv-x="261" d="M127 466h5q33 0 33 -35l20 -391q0 -48 -47 -48h-16q-47 0 -47 48l19 391q1 35 33 35zM130 549q-27 0 -46 18t-19 47t19 47t46 18q28 0 47 -18t19 -47t-19 -47t-47 -18z" />
<glyph unicode="&#xa2;" horiz-adv-x="550" d="M144 44l24 68q-106 67 -106 217q0 67 21.5 118.5t58 80.5t78.5 43t88 14q4 0 13 -0.5t14 -0.5l21 59q12 35 51 35q35 0 35 -26q0 -4 -4 -18l-24 -67q60 -25 60 -67q0 -38 -44 -43q-14 26 -41 40l-123 -348q23 -5 44 -5q102 0 135 61q17 0 28 -12t11 -25 q0 -36 -47.5 -64.5t-128.5 -28.5q-36 0 -65 7l-17 -47q-12 -35 -51 -35q-35 0 -35 25q0 10 4 19zM147 329q0 -89 48 -140l115 326q-68 0 -115.5 -48t-47.5 -138z" />
<glyph unicode="&#xa3;" d="M487 0h-386q-26 0 -46 14.5t-20 39.5q0 33 32 50q28 15 38 38t10 80v75h-48q-38 0 -38 35t38 35h47v128q0 94 55.5 138.5t146.5 44.5q92 0 140.5 -33t48.5 -85q0 -26 -17 -42t-41 -18q-3 54 -35 78t-96 24q-55 0 -87.5 -29.5t-32.5 -77.5v-127q45 1 136 1q38 0 38 -38 q0 -13 -4.5 -20.5t-15.5 -10.5t-18.5 -3.5t-25.5 -0.5h-110v-112q0 -81 -53 -110h317q25 0 35 -1t20 -9.5t10 -26.5q0 -37 -38 -37z" />
<glyph unicode="&#xa4;" horiz-adv-x="645" d="M545 334q0 -69 -40 -124q6 -5 18 -16t21.5 -20t19.5 -19t15.5 -18t5.5 -13q0 -11 -15 -26t-31 -15q-9 0 -22 10.5t-37.5 35.5t-26.5 27q-58 -41 -128 -41t-128 41q-6 -6 -21 -21.5t-25 -25t-21.5 -18t-18.5 -8.5q-16 0 -31 15t-15 26q0 8 12 22t39 38t29 26 q-40 55 -40 124t40 124q-6 5 -18 16t-21.5 20t-19.5 19t-15.5 18t-5.5 13q0 11 15 26t31 15q9 0 22 -10.5t37.5 -35.5t26.5 -27q58 41 128 41t128 -41q6 6 21 21.5t25 25t21.5 18t18.5 8.5q16 0 31 -15t15 -26q0 -8 -12 -22t-39 -38t-29 -26q40 -55 40 -124zM179 334 q0 -62 42 -105t104 -43t104 43t42 105t-42 105t-104 43t-104 -43t-42 -105z" />
<glyph unicode="&#xa5;" horiz-adv-x="667" d="M90 679h21q6 0 11 -1.5t9.5 -6t8 -8.5t7.5 -11.5t6 -12.5t6.5 -15t6.5 -15q67 -149 162 -272h11q95 123 162 272q2 5 6.5 15t6.5 15t6 12.5t7.5 11.5t8 8.5t9.5 6t11 1.5h21q32 0 32 -28q0 -14 -4 -22q-42 -111 -124 -230h54q40 0 40 -38q0 -36 -40 -36h-107 q-8 -12 -25.5 -35t-25.5 -34v-13h158q40 0 40 -36q0 -35 -40 -35h-158v-134q0 -38 -39 -38h-9q-39 0 -39 38v134h-159q-40 0 -40 35q0 36 40 36h159v13l-24 32t-28 37h-107q-21 0 -30.5 7.5t-9.5 28.5q0 38 40 38h55q-82 118 -124 230q-4 8 -4 22q0 28 32 28z" />
<glyph unicode="&#xa6;" horiz-adv-x="256" d="M125 293h6q38 0 38 -35v-262q0 -37 -38 -37h-6q-38 0 -38 37v262q0 35 38 35zM125 719h6q38 0 38 -35v-262q0 -37 -38 -37h-6q-38 0 -38 37v262q0 35 38 35z" />
<glyph unicode="&#xa7;" horiz-adv-x="485" d="M436 -70q0 -71 -57.5 -113t-140.5 -42q-98 0 -144.5 29.5t-46.5 69.5q0 23 15 37.5t44 14.5q0 -36 38.5 -56.5t97.5 -20.5q50 0 79.5 21.5t29.5 56.5q0 29 -31.5 49t-76 34t-89 32t-76 55.5t-31.5 92.5q0 37 25 70t68 49q-39 24 -59.5 52.5t-20.5 73.5q0 59 48.5 104 t131.5 45q76 0 124 -27.5t48 -62.5q0 -51 -59 -51q0 29 -34 49t-80 20q-38 0 -67 -21.5t-29 -56.5q0 -29 29.5 -50t71.5 -36t83.5 -34t71 -53t29.5 -82q0 -87 -85 -122q93 -49 93 -127zM347 172q0 18 -9.5 32.5t-31.5 27t-38.5 20t-49.5 19.5q-36 -2 -63 -24t-27 -57 q0 -17 9.5 -31.5t31 -27t37.5 -19.5t46 -19q44 3 69.5 25t25.5 54z" />
<glyph unicode="&#xa8;" horiz-adv-x="400" d="M54 611q0 19 13.5 31.5t32.5 12.5t32 -12.5t13 -31.5q0 -20 -13 -33t-32 -13t-32.5 13t-13.5 33zM256 611q0 19 13 31.5t33 12.5q18 0 31 -12.5t13 -31.5q0 -20 -13 -33t-31 -13q-20 0 -33 13t-13 33z" />
<glyph unicode="&#xa9;" horiz-adv-x="802" d="M52 332q0 144 102 246.5t247 102.5t247 -102.5t102 -246.5q0 -145 -102 -247t-247 -102t-247 102t-102 247zM128 332q0 -118 79.5 -197t193.5 -79t194 79t80 197q0 117 -80 196.5t-194 79.5t-193.5 -79t-79.5 -197zM405 551q69 0 115.5 -31.5t46.5 -72.5q0 -39 -49 -39 q0 34 -30 59t-80 25q-60 0 -102 -41.5t-42 -121.5t41 -122t102 -42q50 0 83.5 25t33.5 60q20 0 33.5 -10.5t13.5 -27.5q0 -42 -48 -73t-118 -31q-88 0 -150.5 55.5t-62.5 165.5q0 112 63.5 167t149.5 55z" />
<glyph unicode="&#xab;" horiz-adv-x="539" d="M68 259q0 26 19 50q93 123 110 141q22 21 37 21q17 0 29 -10.5t12 -22.5t-9 -24l-119 -155l119 -155q9 -12 9 -24t-12 -22.5t-29 -10.5t-41 26.5t-82 103.5q-16 21 -24 32q-19 24 -19 50zM262 259q0 26 19 50q93 123 110 141q22 21 37 21q17 0 29 -10.5t12 -22.5t-9 -24 l-119 -155l119 -155q9 -12 9 -24t-12 -22.5t-29 -10.5t-41 26.5t-82 103.5q-16 21 -24 32q-19 24 -19 50z" />
<glyph unicode="&#xad;" horiz-adv-x="440" d="M87 327h266q37 0 37 -33t-37 -33h-266q-37 0 -37 33t37 33z" />
<glyph unicode="&#xae;" horiz-adv-x="802" d="M292 531h99q36 0 61.5 -4t51 -16t38.5 -38t13 -65q0 -93 -94 -116q25 -44 58 -88t53 -57q-18 -18 -44 -18q-47 0 -127 157h-76v-127q0 -27 -28 -27h-5q-28 0 -28 27v344q0 28 28 28zM415 476h-90v-135h90q39 0 59 14t20 53q0 40 -19.5 54t-59.5 14zM51 331 q0 145 102.5 247.5t246.5 102.5q145 0 247.5 -102.5t102.5 -247.5q0 -144 -102.5 -246t-247.5 -102q-144 0 -246.5 102t-102.5 246zM127 331q0 -117 79.5 -196t193.5 -79t194 79t80 196q0 118 -80 197.5t-194 79.5t-193.5 -79.5t-79.5 -197.5z" />
<glyph unicode="&#xaf;" horiz-adv-x="440" d="M87 627h266q37 0 37 -33t-37 -33h-266q-37 0 -37 33t37 33z" />
<glyph unicode="&#xb0;" horiz-adv-x="244" d="M37 619q0 39 23.5 62t61.5 23t61.5 -23t23.5 -62t-23.5 -62t-61.5 -23t-61.5 23t-23.5 62zM72 619q0 -23 13.5 -37.5t36.5 -14.5t36.5 14.5t13.5 37.5t-13.5 37t-36.5 14t-36.5 -14t-13.5 -37z" />
<glyph unicode="&#xb1;" horiz-adv-x="555" d="M277 582q33 0 33 -37v-157h170q37 0 37 -33t-37 -33h-170v-160q0 -37 -33 -37t-33 37v160h-167q-37 0 -37 33t37 33h167v157q0 37 33 37zM77 66h403q37 0 37 -33t-37 -33h-403q-37 0 -37 33t37 33z" />
<glyph unicode="&#xb2;" horiz-adv-x="331" d="M156 680q52 0 85 -26.5t33 -73.5q0 -83 -139 -192h123q30 0 30 -30q0 -29 -30 -29h-184q-29 0 -29 31q0 17 28 39q139 112 139 178q0 47 -61 47q-28 0 -47.5 -11t-21.5 -31q-16 0 -26 9.5t-10 22.5q0 23 27.5 44.5t82.5 21.5z" />
<glyph unicode="&#xb3;" horiz-adv-x="320" d="M152 679q55 0 81 -28.5t26 -65.5q0 -46 -47 -72q62 -21 62 -83q0 -46 -35 -76t-89 -30q-50 0 -78 18.5t-28 46.5q0 33 44 33q0 -19 17.5 -31t44.5 -12q26 0 44 14t18 40q0 25 -17.5 36.5t-44.5 11.5h-20q-16 0 -22.5 5.5t-6.5 19.5q0 26 29 26h18q22 0 36 13.5t14 35.5 q0 17 -12 29.5t-36 12.5t-37 -15t-16 -37q-19 1 -33 10.5t-14 25.5q0 26 25.5 49t76.5 23z" />
<glyph unicode="&#xb4;" horiz-adv-x="339" d="M264 632l-181 -81q-6 -3 -13 -3q-16 0 -16 15v9q0 15 18 27l180 107q5 4 16 4q18 0 18 -18v-27q0 -24 -22 -33z" />
<glyph unicode="&#xb5;" horiz-adv-x="559" d="M61 -188v643q0 37 38 37h7q38 0 38 -37v-263q0 -131 121 -131q38 0 66 17.5t41.5 46.5t19.5 59.5t6 63.5v207q0 37 39 37h7q20 0 28.5 -8.5t8.5 -28.5v-418q0 -20 -9 -28.5t-29 -8.5h-6q-39 0 -39 37v50q-12 -31 -48.5 -61t-83.5 -32q-82 -6 -122 27v-209q0 -38 -38 -38 h-7q-38 0 -38 38z" />
<glyph unicode="&#xb6;" horiz-adv-x="513" d="M358 679q4 0 12 -0.5t13 -0.5h1q39 0 39 -38v-603q0 -37 -39 -37h-6q-37 0 -37 37v214h-25q-98 0 -165.5 57t-67.5 156q0 102 67 158.5t166 56.5h42z" />
<glyph unicode="&#xb7;" horiz-adv-x="261" d="M131 365q27 0 46 -18t19 -47t-19 -47t-46 -18q-28 0 -47 18t-19 47t19 47t47 18z" />
<glyph unicode="&#xb8;" horiz-adv-x="274" d="M107 14h44l-13 -42h13q31 0 50.5 -14.5t19.5 -40.5q0 -36 -28.5 -55t-70.5 -19q-32 0 -50 11.5t-18 32.5q0 14 9 23.5t23 9.5q0 -25 44 -25q17 0 28 7t11 19q0 22 -35 22h-22q-23 0 -23 20q0 5 3 13z" />
<glyph unicode="&#xb9;" horiz-adv-x="232" d="M77 675h62q30 0 30 -29v-289q0 -29 -33 -29q-30 0 -30 29v260h-29q-28 0 -28 29t28 29z" />
<glyph unicode="&#xbb;" horiz-adv-x="537" d="M469 259q0 -24 -19 -50q-12 -15 -32 -42q-55 -72 -76.5 -96t-38.5 -24t-29 10.5t-12 22.5t9 24l119 155l-119 155q-9 12 -9 24t12 22.5t29 10.5t38.5 -23.5t76.5 -96.5q20 -27 32 -42q19 -25 19 -50zM275 259q0 -24 -19 -50q-12 -15 -32 -42q-55 -72 -76.5 -96t-38.5 -24 t-29 10.5t-12 22.5t9 24l119 155l-119 155q-9 12 -9 24t12 22.5t29 10.5t38.5 -23.5t76.5 -96.5q20 -27 32 -42q19 -25 19 -50z" />
<glyph unicode="&#xbf;" horiz-adv-x="477" d="M229 414v12q0 38 39 38h5q40 0 40 -38v-12q0 -13 -1.5 -24t-6.5 -21.5t-7.5 -17.5t-12 -16.5t-13 -14t-17 -14.5t-17 -12.5t-20.5 -14t-20 -13.5q-27 -19 -40.5 -29t-25.5 -28t-12 -37q0 -48 34.5 -77t95.5 -29q57 0 87 21.5t46 63.5q23 0 38.5 -12t15.5 -31 q0 -46 -53 -81t-136 -35q-104 0 -156 50t-52 127q0 39 19.5 71t47 53t55.5 39.5t47.5 39t19.5 42.5zM271 555q-27 0 -46 18t-19 47t19 47t46 18q28 0 47 -18t19 -47t-19 -47t-47 -18z" />
<glyph unicode="&#xc0;" horiz-adv-x="687" d="M340 678h11q8 0 14.5 -1t11 -2t9.5 -5t7.5 -5.5t7 -8.5t6 -9t6.5 -12t7 -13q123 -223 227 -572q13 -50 -28 -50h-24q-8 0 -14 1.5t-11 6t-8 7.5t-6 11.5t-4.5 12.5t-4.5 15.5t-4 15.5q-27 100 -47 158h-302q-20 -62 -46 -158q-1 -4 -4 -15.5t-4.5 -15.5t-4.5 -12.5 t-6 -11.5t-8 -7.5t-11 -6t-14 -1.5h-24q-40 0 -28 50q104 349 227 572q2 3 7 13t6.5 12t6 9t7 8.5t7.5 5.5t9.5 5t11 2t14.5 1zM345 583q-65 -115 -126 -283h253q-36 99 -127 283zM429 737l-182 81q-20 9 -20 33v27q0 18 18 18q9 0 16 -4l180 -107q16 -10 18 -27v-9 q0 -15 -17 -15q-7 0 -13 3z" />
<glyph unicode="&#xc1;" horiz-adv-x="687" d="M340 678h11q8 0 14.5 -1t11 -2t9.5 -5t7.5 -5.5t7 -8.5t6 -9t6.5 -12t7 -13q123 -223 227 -572q13 -50 -28 -50h-24q-8 0 -14 1.5t-11 6t-8 7.5t-6 11.5t-4.5 12.5t-4.5 15.5t-4 15.5q-27 100 -47 158h-302q-20 -62 -46 -158q-1 -4 -4 -15.5t-4.5 -15.5t-4.5 -12.5 t-6 -11.5t-8 -7.5t-11 -6t-14 -1.5h-24q-40 0 -28 50q104 349 227 572q2 3 7 13t6.5 12t6 9t7 8.5t7.5 5.5t9.5 5t11 2t14.5 1zM345 583q-65 -115 -126 -283h253q-36 99 -127 283zM437 818l-181 -81q-6 -3 -13 -3q-16 0 -16 15v9q0 15 18 27l180 107q5 4 16 4q18 0 18 -18 v-27q0 -24 -22 -33z" />
<glyph unicode="&#xc2;" horiz-adv-x="687" d="M340 678h11q8 0 14.5 -1t11 -2t9.5 -5t7.5 -5.5t7 -8.5t6 -9t6.5 -12t7 -13q123 -223 227 -572q13 -50 -28 -50h-24q-8 0 -14 1.5t-11 6t-8 7.5t-6 11.5t-4.5 12.5t-4.5 15.5t-4 15.5q-27 100 -47 158h-302q-20 -62 -46 -158q-1 -4 -4 -15.5t-4.5 -15.5t-4.5 -12.5 t-6 -11.5t-8 -7.5t-11 -6t-14 -1.5h-24q-40 0 -28 50q104 349 227 572q2 3 7 13t6.5 12t6 9t7 8.5t7.5 5.5t9.5 5t11 2t14.5 1zM345 583q-65 -115 -126 -283h253q-36 99 -127 283zM343 808l-86 -53q-14 -9 -28 -9q-30 0 -30 24q0 12 22 27l89 63q14 10 33 10q17 0 33 -11 l89 -62q22 -15 22 -27q0 -24 -30 -24q-14 0 -28 9z" />
<glyph unicode="&#xc3;" horiz-adv-x="687" d="M340 678h11q8 0 14.5 -1t11 -2t9.5 -5t7.5 -5.5t7 -8.5t6 -9t6.5 -12t7 -13q123 -223 227 -572q13 -50 -28 -50h-24q-8 0 -14 1.5t-11 6t-8 7.5t-6 11.5t-4.5 12.5t-4.5 15.5t-4 15.5q-27 100 -47 158h-302q-20 -62 -46 -158q-1 -4 -4 -15.5t-4.5 -15.5t-4.5 -12.5 t-6 -11.5t-8 -7.5t-11 -6t-14 -1.5h-24q-40 0 -28 50q104 349 227 572q2 3 7 13t6.5 12t6 9t7 8.5t7.5 5.5t9.5 5t11 2t14.5 1zM345 583q-65 -115 -126 -283h253q-36 99 -127 283zM334 765q-36 16 -67 16q-23 0 -37 -16q-9 -11 -24.5 -7t-15.5 21q0 36 23 54q24 19 61 19 q8 0 14 -0.5t13 -2t10.5 -2t11.5 -3.5t10 -4t12.5 -5.5t12.5 -5.5q36 -16 67 -16q23 0 37 16q9 11 24.5 7t15.5 -21q0 -36 -23 -54q-24 -19 -61 -19q-8 0 -14 0.5t-13 2t-10.5 2t-11.5 3.5t-10 4t-12.5 5.5t-12.5 5.5z" />
<glyph unicode="&#xc4;" horiz-adv-x="687" d="M340 678h11q8 0 14.5 -1t11 -2t9.5 -5t7.5 -5.5t7 -8.5t6 -9t6.5 -12t7 -13q123 -223 227 -572q13 -50 -28 -50h-24q-8 0 -14 1.5t-11 6t-8 7.5t-6 11.5t-4.5 12.5t-4.5 15.5t-4 15.5q-27 100 -47 158h-302q-20 -62 -46 -158q-1 -4 -4 -15.5t-4.5 -15.5t-4.5 -12.5 t-6 -11.5t-8 -7.5t-11 -6t-14 -1.5h-24q-40 0 -28 50q104 349 227 572q2 3 7 13t6.5 12t6 9t7 8.5t7.5 5.5t9.5 5t11 2t14.5 1zM345 583q-65 -115 -126 -283h253q-36 99 -127 283zM197 797q0 19 13.5 31.5t32.5 12.5t32 -12.5t13 -31.5q0 -20 -13 -33t-32 -13t-32.5 13 t-13.5 33zM399 797q0 19 13 31.5t33 12.5q18 0 31 -12.5t13 -31.5q0 -20 -13 -33t-31 -13q-20 0 -33 13t-13 33z" />
<glyph unicode="&#xc5;" horiz-adv-x="687" d="M340 678h11q8 0 14.5 -1t11 -2t9.5 -5t7.5 -5.5t7 -8.5t6 -9t6.5 -12t7 -13q123 -223 227 -572q13 -50 -28 -50h-24q-8 0 -14 1.5t-11 6t-8 7.5t-6 11.5t-4.5 12.5t-4.5 15.5t-4 15.5q-27 100 -47 158h-302q-20 -62 -46 -158q-1 -4 -4 -15.5t-4.5 -15.5t-4.5 -12.5 t-6 -11.5t-8 -7.5t-11 -6t-14 -1.5h-24q-40 0 -28 50q104 349 227 572q2 3 7 13t6.5 12t6 9t7 8.5t7.5 5.5t9.5 5t11 2t14.5 1zM345 583q-65 -115 -126 -283h253q-36 99 -127 283zM256 819q0 39 24 62t63 23t63 -23t24 -62t-24 -62t-63 -23t-63 23t-24 62zM301 819 q0 -21 11.5 -32.5t30.5 -11.5q18 0 30 12.5t12 31.5q0 21 -11.5 32.5t-30.5 11.5t-30.5 -11.5t-11.5 -32.5z" />
<glyph unicode="&#xc7;" horiz-adv-x="699" d="M394 687q106 0 174.5 -42t68.5 -93q0 -22 -16.5 -35.5t-43.5 -13.5q-31 106 -183 106q-100 0 -169.5 -67.5t-69.5 -200.5q0 -132 70 -202.5t169 -70.5q154 0 196 113q24 0 37.5 -13.5t13.5 -35.5q0 -49 -66.5 -93t-168.5 -47l-6 -20h13q31 0 50.5 -14.5t19.5 -40.5 q0 -36 -28.5 -55t-70.5 -19q-32 0 -50 11.5t-18 32.5q0 14 9 23.5t23 9.5q0 -25 44 -25q17 0 28 7t11 19q0 22 -35 22h-22q-23 0 -23 20q0 5 3 13l7 18q-129 10 -213.5 100t-84.5 247q0 167 95 256.5t236 89.5z" />
<glyph unicode="&#xc8;" horiz-adv-x="566" d="M140 679h345q37 0 37 -38q0 -37 -37 -37h-297v-214h264q37 0 37 -38q0 -37 -37 -37h-264v-240h297q37 0 37 -38q0 -37 -37 -37h-345q-39 0 -39 38v603q0 38 39 38zM383 737l-182 81q-20 9 -20 33v27q0 18 18 18q9 0 16 -4l180 -107q16 -10 18 -27v-9q0 -15 -17 -15 q-7 0 -13 3z" />
<glyph unicode="&#xc9;" horiz-adv-x="566" d="M140 679h345q37 0 37 -38q0 -37 -37 -37h-297v-214h264q37 0 37 -38q0 -37 -37 -37h-264v-240h297q37 0 37 -38q0 -37 -37 -37h-345q-39 0 -39 38v603q0 38 39 38zM391 818l-181 -81q-6 -3 -13 -3q-16 0 -16 15v9q0 15 18 27l180 107q5 4 16 4q18 0 18 -18v-27 q0 -24 -22 -33z" />
<glyph unicode="&#xca;" horiz-adv-x="566" d="M140 679h345q37 0 37 -38q0 -37 -37 -37h-297v-214h264q37 0 37 -38q0 -37 -37 -37h-264v-240h297q37 0 37 -38q0 -37 -37 -37h-345q-39 0 -39 38v603q0 38 39 38zM297 808l-86 -53q-14 -9 -28 -9q-30 0 -30 24q0 12 22 27l89 63q14 10 33 10q17 0 33 -11l89 -62 q22 -15 22 -27q0 -24 -30 -24q-14 0 -28 9z" />
<glyph unicode="&#xcb;" horiz-adv-x="566" d="M140 679h345q37 0 37 -38q0 -37 -37 -37h-297v-214h264q37 0 37 -38q0 -37 -37 -37h-264v-240h297q37 0 37 -38q0 -37 -37 -37h-345q-39 0 -39 38v603q0 38 39 38zM151 797q0 19 13.5 31.5t32.5 12.5t32 -12.5t13 -31.5q0 -20 -13 -33t-32 -13t-32.5 13t-13.5 33z M353 797q0 19 13 31.5t33 12.5q18 0 31 -12.5t13 -31.5q0 -20 -13 -33t-31 -13q-20 0 -33 13t-13 33z" />
<glyph unicode="&#xcc;" horiz-adv-x="281" d="M138 679h9q40 0 40 -39v-602q0 -38 -40 -38h-9q-38 0 -38 38v602q0 39 38 39zM228 736l-182 81q-20 9 -20 33v27q0 18 18 18q9 0 16 -4l180 -107q16 -10 18 -27v-9q0 -15 -17 -15q-7 0 -13 3z" />
<glyph unicode="&#xcd;" horiz-adv-x="281" d="M138 679h9q40 0 40 -39v-602q0 -38 -40 -38h-9q-38 0 -38 38v602q0 39 38 39zM236 817l-181 -81q-6 -3 -13 -3q-16 0 -16 15v9q0 15 18 27l180 107q5 4 16 4q18 0 18 -18v-27q0 -24 -22 -33z" />
<glyph unicode="&#xce;" horiz-adv-x="288" d="M139 679h9q40 0 40 -39v-602q0 -38 -40 -38h-9q-38 0 -38 38v602q0 39 38 39zM145 807l-86 -53q-14 -9 -28 -9q-30 0 -30 24q0 12 22 27l89 63q14 10 33 10q17 0 33 -11l89 -62q22 -15 22 -27q0 -24 -30 -24q-14 0 -28 9z" />
<glyph unicode="&#xcf;" horiz-adv-x="280" d="M136 679h9q40 0 40 -39v-602q0 -38 -40 -38h-9q-38 0 -38 38v602q0 39 38 39zM-5 796q0 19 13.5 31.5t32.5 12.5t32 -12.5t13 -31.5q0 -20 -13 -33t-32 -13t-32.5 13t-13.5 33zM197 796q0 19 13 31.5t33 12.5q18 0 31 -12.5t13 -31.5q0 -20 -13 -33t-31 -13q-20 0 -33 13 t-13 33z" />
<glyph unicode="&#xd1;" horiz-adv-x="757" d="M142 679h20q38 0 64 -42l344 -500v503q0 21 9 30t29 9h9q39 0 39 -39v-592q0 -21 -10 -34.5t-29 -13.5h-13q-38 0 -73 51l-343 499v-512q0 -38 -36 -38h-10q-40 0 -40 38v592q0 49 40 49zM363 750q-36 16 -67 16q-23 0 -37 -16q-9 -11 -24.5 -7t-15.5 21q0 36 23 54 q24 19 61 19q8 0 14 -0.5t13 -2t10.5 -2t11.5 -3.5t10 -4t12.5 -5.5t12.5 -5.5q36 -16 67 -16q23 0 37 16q9 11 24.5 7t15.5 -21q0 -36 -23 -54q-24 -19 -61 -19q-8 0 -14 0.5t-13 2t-10.5 2t-11.5 3.5t-10 4t-12.5 5.5t-12.5 5.5z" />
<glyph unicode="&#xd2;" horiz-adv-x="767" d="M384 687q62 0 118 -20.5t103.5 -60.5t76 -109.5t28.5 -158.5q0 -88 -28.5 -156.5t-76 -108.5t-103.5 -60.5t-118 -20.5t-118.5 20.5t-104 60.5t-75.5 108.5t-28 156.5q0 89 28 158.5t75.5 109.5t104 60.5t118.5 20.5zM384 610q-98 0 -168.5 -70t-70.5 -201 q0 -130 70.5 -200t168.5 -70t168.5 70t70.5 200q0 131 -70.5 201t-168.5 70zM472 736l-182 81q-20 9 -20 33v27q0 18 18 18q9 0 16 -4l180 -107q16 -10 18 -27v-9q0 -15 -17 -15q-7 0 -13 3z" />
<glyph unicode="&#xd3;" horiz-adv-x="767" d="M384 687q62 0 118 -20.5t103.5 -60.5t76 -109.5t28.5 -158.5q0 -88 -28.5 -156.5t-76 -108.5t-103.5 -60.5t-118 -20.5t-118.5 20.5t-104 60.5t-75.5 108.5t-28 156.5q0 89 28 158.5t75.5 109.5t104 60.5t118.5 20.5zM384 610q-98 0 -168.5 -70t-70.5 -201 q0 -130 70.5 -200t168.5 -70t168.5 70t70.5 200q0 131 -70.5 201t-168.5 70zM480 817l-181 -81q-6 -3 -13 -3q-16 0 -16 15v9q0 15 18 27l180 107q5 4 16 4q18 0 18 -18v-27q0 -24 -22 -33z" />
<glyph unicode="&#xd4;" horiz-adv-x="767" d="M384 687q62 0 118 -20.5t103.5 -60.5t76 -109.5t28.5 -158.5q0 -88 -28.5 -156.5t-76 -108.5t-103.5 -60.5t-118 -20.5t-118.5 20.5t-104 60.5t-75.5 108.5t-28 156.5q0 89 28 158.5t75.5 109.5t104 60.5t118.5 20.5zM384 610q-98 0 -168.5 -70t-70.5 -201 q0 -130 70.5 -200t168.5 -70t168.5 70t70.5 200q0 131 -70.5 201t-168.5 70zM385 807l-86 -53q-14 -9 -28 -9q-30 0 -30 24q0 12 22 27l89 63q14 10 33 10q17 0 33 -11l89 -62q22 -15 22 -27q0 -24 -30 -24q-14 0 -28 9z" />
<glyph unicode="&#xd5;" horiz-adv-x="767" d="M384 687q62 0 118 -20.5t103.5 -60.5t76 -109.5t28.5 -158.5q0 -88 -28.5 -156.5t-76 -108.5t-103.5 -60.5t-118 -20.5t-118.5 20.5t-104 60.5t-75.5 108.5t-28 156.5q0 89 28 158.5t75.5 109.5t104 60.5t118.5 20.5zM384 610q-98 0 -168.5 -70t-70.5 -201 q0 -130 70.5 -200t168.5 -70t168.5 70t70.5 200q0 131 -70.5 201t-168.5 70zM374 765q-36 16 -67 16q-23 0 -37 -16q-9 -11 -24.5 -7t-15.5 21q0 36 23 54q24 19 61 19q8 0 14 -0.5t13 -2t10.5 -2t11.5 -3.5t10 -4t12.5 -5.5t12.5 -5.5q36 -16 67 -16q23 0 37 16 q9 11 24.5 7t15.5 -21q0 -36 -23 -54q-24 -19 -61 -19q-8 0 -14 0.5t-13 2t-10.5 2t-11.5 3.5t-10 4t-12.5 5.5t-12.5 5.5z" />
<glyph unicode="&#xd6;" horiz-adv-x="767" d="M384 687q62 0 118 -20.5t103.5 -60.5t76 -109.5t28.5 -158.5q0 -88 -28.5 -156.5t-76 -108.5t-103.5 -60.5t-118 -20.5t-118.5 20.5t-104 60.5t-75.5 108.5t-28 156.5q0 89 28 158.5t75.5 109.5t104 60.5t118.5 20.5zM384 610q-98 0 -168.5 -70t-70.5 -201 q0 -130 70.5 -200t168.5 -70t168.5 70t70.5 200q0 131 -70.5 201t-168.5 70zM238 796q0 19 13.5 31.5t32.5 12.5t32 -12.5t13 -31.5q0 -20 -13 -33t-32 -13t-32.5 13t-13.5 33zM440 796q0 19 13 31.5t33 12.5q18 0 31 -12.5t13 -31.5q0 -20 -13 -33t-31 -13q-20 0 -33 13 t-13 33z" />
<glyph unicode="&#xd7;" horiz-adv-x="485" d="M105 141l109 109l-109 109q-15 15 -14 26q0 12 14 26.5t27 14.5q14 0 27 -13l108 -111l105 110q14 14 27 14t27.5 -14t14.5 -27q-2 -16 -13 -27l-107 -108l107 -107q11 -11 13 -27q0 -13 -14 -27.5t-27 -14.5q-15 0 -28 14l-105 110l-107 -110q-14 -15 -27 -15t-27.5 14 t-14.5 27t14 27z" />
<glyph unicode="&#xd8;" horiz-adv-x="767" d="M384 687q109 0 194 -60l40 52q17 23 41 5l4 -3q24 -17 6 -40l-43 -56q84 -94 84 -247q0 -88 -28.5 -156.5t-76 -108.5t-103.5 -60.5t-118 -20.5q-103 0 -182 50l-55 -70q-17 -22 -40 -5l-4 3q-24 18 -7 40l56 72q-94 94 -94 256q0 89 28 158.5t75.5 109.5t104 60.5 t118.5 20.5zM384 610q-98 0 -168.5 -70t-70.5 -201q0 -118 60 -189l322 412q-62 48 -143 48zM623 339q0 106 -51 177l-319 -409q57 -38 131 -38q98 0 168.5 70t70.5 200z" />
<glyph unicode="&#xd9;" horiz-adv-x="740" d="M136 679h10q39 0 39 -39v-356q0 -218 185 -218t185 218v356q0 39 39 39h8q41 0 41 -39v-352q0 -42 -6 -79t-23.5 -78.5t-46.5 -71t-79.5 -48.5t-117.5 -19t-117.5 19t-79.5 48.5t-46.5 71t-23.5 78.5t-6 79v352q0 39 39 39zM458 736l-182 81q-20 9 -20 33v27q0 18 18 18 q9 0 16 -4l180 -107q16 -10 18 -27v-9q0 -15 -17 -15q-7 0 -13 3z" />
<glyph unicode="&#xda;" horiz-adv-x="740" d="M136 679h10q39 0 39 -39v-356q0 -218 185 -218t185 218v356q0 39 39 39h8q41 0 41 -39v-352q0 -42 -6 -79t-23.5 -78.5t-46.5 -71t-79.5 -48.5t-117.5 -19t-117.5 19t-79.5 48.5t-46.5 71t-23.5 78.5t-6 79v352q0 39 39 39zM466 817l-181 -81q-6 -3 -13 -3q-16 0 -16 15 v9q0 15 18 27l180 107q5 4 16 4q18 0 18 -18v-27q0 -24 -22 -33z" />
<glyph unicode="&#xdb;" horiz-adv-x="740" d="M136 679h10q39 0 39 -39v-356q0 -218 185 -218t185 218v356q0 39 39 39h8q41 0 41 -39v-352q0 -42 -6 -79t-23.5 -78.5t-46.5 -71t-79.5 -48.5t-117.5 -19t-117.5 19t-79.5 48.5t-46.5 71t-23.5 78.5t-6 79v352q0 39 39 39zM371 807l-86 -53q-14 -9 -28 -9q-30 0 -30 24 q0 12 22 27l89 63q14 10 33 10q17 0 33 -11l89 -62q22 -15 22 -27q0 -24 -30 -24q-14 0 -28 9z" />
<glyph unicode="&#xdc;" horiz-adv-x="740" d="M136 679h10q39 0 39 -39v-356q0 -218 185 -218t185 218v356q0 39 39 39h8q41 0 41 -39v-352q0 -42 -6 -79t-23.5 -78.5t-46.5 -71t-79.5 -48.5t-117.5 -19t-117.5 19t-79.5 48.5t-46.5 71t-23.5 78.5t-6 79v352q0 39 39 39zM224 796q0 19 13.5 31.5t32.5 12.5t32 -12.5 t13 -31.5q0 -20 -13 -33t-32 -13t-32.5 13t-13.5 33zM426 796q0 19 13 31.5t33 12.5q18 0 31 -12.5t13 -31.5q0 -20 -13 -33t-31 -13q-20 0 -33 13t-13 33z" />
<glyph unicode="&#xdd;" horiz-adv-x="631" d="M72 679h21q6 0 11 -1.5t9.5 -6t8 -8.5t7.5 -11.5t6 -12.5t6.5 -15t6.5 -15q67 -149 162 -272h11q95 123 162 272q2 5 6.5 15t6.5 15t6 12.5t7.5 11.5t8 8.5t9.5 6t11 1.5h21q32 0 32 -28q0 -14 -4 -22q-8 -22 -18 -43.5t-18 -39t-20.5 -39.5t-20 -35.5t-23.5 -37 t-22.5 -34t-25.5 -36.5t-25 -34t-28 -37.5t-27 -36.5v-218q0 -38 -39 -38h-9q-39 0 -39 38v218q-5 7 -27 36.5t-28 37.5t-25 34t-25.5 36.5t-22.5 34t-23.5 37t-20 35.5t-20.5 39.5t-18 39t-18 43.5q-4 8 -4 22q0 28 32 28zM409 832l-181 -81q-6 -3 -13 -3q-16 0 -16 15v9 q0 15 18 27l180 107q5 4 16 4q18 0 18 -18v-27q0 -24 -22 -33z" />
<glyph unicode="&#xdf;" horiz-adv-x="588" d="M73 524q0 93 52 149t144 56q95 0 154 -49t59 -135q0 -53 -35.5 -89.5t-120.5 -84.5q51 -25 71.5 -35.5t55 -30t47.5 -32.5t29.5 -33.5t22 -43t5.5 -50.5q0 -68 -51 -110.5t-133 -42.5q-64 0 -106 24.5t-42 60.5q0 42 38 49q7 -32 39.5 -50t77.5 -18q47 0 72 23.5t25 59.5 q0 48 -29 75t-115 67q-57 27 -73.5 40.5t-16.5 41.5q0 24 24 44.5t53 34t53 40t24 60.5q0 58 -38 87t-90 29t-83 -34.5t-31 -100.5v-491q0 -36 -38 -36h-6q-20 0 -29 8.5t-9 27.5v489z" />
<glyph unicode="&#xe0;" horiz-adv-x="538" d="M248 501q212 0 212 -197v-198q0 -55 42 -70q-15 -38 -56 -38q-30 0 -47.5 21.5t-17.5 56.5q-63 -84 -163 -84q-81 0 -127.5 41.5t-46.5 109.5q0 73 54.5 117t147.5 44q20 0 37.5 -1.5t33 -5t23 -6t21.5 -7.5t16 -6v44q0 61 -31 86.5t-94 25.5q-89 0 -138 -68 q-42 6 -42 39q0 38 52 67t124 29zM248 242q-56 0 -89 -26t-33 -69q0 -40 28.5 -64.5t77.5 -24.5q62 0 103.5 40t41.5 97v19q-63 28 -129 28zM352 551l-182 81q-20 9 -20 33v27q0 18 18 18q9 0 16 -4l180 -107q16 -10 18 -27v-9q0 -15 -17 -15q-7 0 -13 3z" />
<glyph unicode="&#xe1;" horiz-adv-x="538" d="M248 501q212 0 212 -197v-198q0 -55 42 -70q-15 -38 -56 -38q-30 0 -47.5 21.5t-17.5 56.5q-63 -84 -163 -84q-81 0 -127.5 41.5t-46.5 109.5q0 73 54.5 117t147.5 44q20 0 37.5 -1.5t33 -5t23 -6t21.5 -7.5t16 -6v44q0 61 -31 86.5t-94 25.5q-89 0 -138 -68 q-42 6 -42 39q0 38 52 67t124 29zM248 242q-56 0 -89 -26t-33 -69q0 -40 28.5 -64.5t77.5 -24.5q62 0 103.5 40t41.5 97v19q-63 28 -129 28zM360 632l-181 -81q-6 -3 -13 -3q-16 0 -16 15v9q0 15 18 27l180 107q5 4 16 4q18 0 18 -18v-27q0 -24 -22 -33z" />
<glyph unicode="&#xe2;" horiz-adv-x="538" d="M248 501q212 0 212 -197v-198q0 -55 42 -70q-15 -38 -56 -38q-30 0 -47.5 21.5t-17.5 56.5q-63 -84 -163 -84q-81 0 -127.5 41.5t-46.5 109.5q0 73 54.5 117t147.5 44q20 0 37.5 -1.5t33 -5t23 -6t21.5 -7.5t16 -6v44q0 61 -31 86.5t-94 25.5q-89 0 -138 -68 q-42 6 -42 39q0 38 52 67t124 29zM248 242q-56 0 -89 -26t-33 -69q0 -40 28.5 -64.5t77.5 -24.5q62 0 103.5 40t41.5 97v19q-63 28 -129 28zM265 622l-86 -53q-14 -9 -28 -9q-30 0 -30 24q0 12 22 27l89 63q14 10 33 10q17 0 33 -11l89 -62q22 -15 22 -27q0 -24 -30 -24 q-14 0 -28 9z" />
<glyph unicode="&#xe3;" horiz-adv-x="538" d="M248 501q212 0 212 -197v-198q0 -55 42 -70q-15 -38 -56 -38q-30 0 -47.5 21.5t-17.5 56.5q-63 -84 -163 -84q-81 0 -127.5 41.5t-46.5 109.5q0 73 54.5 117t147.5 44q20 0 37.5 -1.5t33 -5t23 -6t21.5 -7.5t16 -6v44q0 61 -31 86.5t-94 25.5q-89 0 -138 -68 q-42 6 -42 39q0 38 52 67t124 29zM248 242q-56 0 -89 -26t-33 -69q0 -40 28.5 -64.5t77.5 -24.5q62 0 103.5 40t41.5 97v19q-63 28 -129 28zM258 565q-36 16 -67 16q-23 0 -37 -16q-9 -11 -24.5 -7t-15.5 21q0 36 23 54q24 19 61 19q8 0 14 -0.5t13 -2t10.5 -2t11.5 -3.5 t10 -4t12.5 -5.5t12.5 -5.5q36 -16 67 -16q23 0 37 16q9 11 24.5 7t15.5 -21q0 -36 -23 -54q-24 -19 -61 -19q-8 0 -14 0.5t-13 2t-10.5 2t-11.5 3.5t-10 4t-12.5 5.5t-12.5 5.5z" />
<glyph unicode="&#xe4;" horiz-adv-x="538" d="M248 501q212 0 212 -197v-198q0 -55 42 -70q-15 -38 -56 -38q-30 0 -47.5 21.5t-17.5 56.5q-63 -84 -163 -84q-81 0 -127.5 41.5t-46.5 109.5q0 73 54.5 117t147.5 44q20 0 37.5 -1.5t33 -5t23 -6t21.5 -7.5t16 -6v44q0 61 -31 86.5t-94 25.5q-89 0 -138 -68 q-42 6 -42 39q0 38 52 67t124 29zM248 242q-56 0 -89 -26t-33 -69q0 -40 28.5 -64.5t77.5 -24.5q62 0 103.5 40t41.5 97v19q-63 28 -129 28zM119 611q0 19 13.5 31.5t32.5 12.5t32 -12.5t13 -31.5q0 -20 -13 -33t-32 -13t-32.5 13t-13.5 33zM321 611q0 19 13 31.5t33 12.5 q18 0 31 -12.5t13 -31.5q0 -20 -13 -33t-31 -13q-20 0 -33 13t-13 33z" />
<glyph unicode="&#xe5;" horiz-adv-x="538" d="M248 501q212 0 212 -197v-198q0 -55 42 -70q-15 -38 -56 -38q-30 0 -47.5 21.5t-17.5 56.5q-63 -84 -163 -84q-81 0 -127.5 41.5t-46.5 109.5q0 73 54.5 117t147.5 44q20 0 37.5 -1.5t33 -5t23 -6t21.5 -7.5t16 -6v44q0 61 -31 86.5t-94 25.5q-89 0 -138 -68 q-42 6 -42 39q0 38 52 67t124 29zM248 242q-56 0 -89 -26t-33 -69q0 -40 28.5 -64.5t77.5 -24.5q62 0 103.5 40t41.5 97v19q-63 28 -129 28zM180 619q0 39 24 62t63 23t63 -23t24 -62t-24 -62t-63 -23t-63 23t-24 62zM225 619q0 -21 11.5 -32.5t30.5 -11.5q18 0 30 12.5 t12 31.5q0 21 -11.5 32.5t-30.5 11.5t-30.5 -11.5t-11.5 -32.5z" />
<glyph unicode="&#xe7;" horiz-adv-x="518" d="M289 502q74 0 119.5 -27t45.5 -58q0 -38 -43 -43q-10 22 -45 40.5t-83 18.5q-67 0 -111 -47.5t-44 -139.5q0 -90 45 -138t108 -48q100 0 135 65q19 0 32 -11.5t13 -29.5q0 -34 -46.5 -62.5t-119.5 -29.5l-6 -20h13q31 0 50.5 -14.5t19.5 -40.5q0 -36 -28.5 -55t-70.5 -19 q-32 0 -50 11.5t-18 32.5q0 14 9 23.5t23 9.5q0 -25 44 -25q17 0 28 7t11 19q0 22 -35 22h-22q-23 0 -23 20q0 5 3 13l7 19q-89 11 -148 74t-59 177q0 67 21.5 118.5t58 80.5t78.5 43t88 14z" />
<glyph unicode="&#xe8;" horiz-adv-x="515" d="M275 502q89 0 142 -46.5t53 -115.5t-54.5 -107.5t-140.5 -38.5t-155 27q0 -73 50 -117.5t122 -44.5q112 0 140 69q17 0 29 -9.5t12 -27.5q0 -35 -51.5 -67t-130.5 -32q-106 0 -177.5 64t-71.5 190q0 124 70 190t163 66zM273 436q-63 0 -107 -47t-45 -106q72 -24 143 -24 q130 0 130 84q0 39 -33.5 66t-87.5 27zM344 551l-182 81q-20 9 -20 33v27q0 18 18 18q9 0 16 -4l180 -107q16 -10 18 -27v-9q0 -15 -17 -15q-7 0 -13 3z" />
<glyph unicode="&#xe9;" horiz-adv-x="515" d="M275 502q89 0 142 -46.5t53 -115.5t-54.5 -107.5t-140.5 -38.5t-155 27q0 -73 50 -117.5t122 -44.5q112 0 140 69q17 0 29 -9.5t12 -27.5q0 -35 -51.5 -67t-130.5 -32q-106 0 -177.5 64t-71.5 190q0 124 70 190t163 66zM273 436q-63 0 -107 -47t-45 -106q72 -24 143 -24 q130 0 130 84q0 39 -33.5 66t-87.5 27zM352 632l-181 -81q-6 -3 -13 -3q-16 0 -16 15v9q0 15 18 27l180 107q5 4 16 4q18 0 18 -18v-27q0 -24 -22 -33z" />
<glyph unicode="&#xea;" horiz-adv-x="515" d="M275 502q89 0 142 -46.5t53 -115.5t-54.5 -107.5t-140.5 -38.5t-155 27q0 -73 50 -117.5t122 -44.5q112 0 140 69q17 0 29 -9.5t12 -27.5q0 -35 -51.5 -67t-130.5 -32q-106 0 -177.5 64t-71.5 190q0 124 70 190t163 66zM273 436q-63 0 -107 -47t-45 -106q72 -24 143 -24 q130 0 130 84q0 39 -33.5 66t-87.5 27zM278 622l-86 -53q-14 -9 -28 -9q-30 0 -30 24q0 12 22 27l89 63q14 10 33 10q17 0 33 -11l89 -62q22 -15 22 -27q0 -24 -30 -24q-14 0 -28 9z" />
<glyph unicode="&#xeb;" horiz-adv-x="515" d="M275 502q89 0 142 -46.5t53 -115.5t-54.5 -107.5t-140.5 -38.5t-155 27q0 -73 50 -117.5t122 -44.5q112 0 140 69q17 0 29 -9.5t12 -27.5q0 -35 -51.5 -67t-130.5 -32q-106 0 -177.5 64t-71.5 190q0 124 70 190t163 66zM273 436q-63 0 -107 -47t-45 -106q72 -24 143 -24 q130 0 130 84q0 39 -33.5 66t-87.5 27zM122 611q0 19 13.5 31.5t32.5 12.5t32 -12.5t13 -31.5q0 -20 -13 -33t-32 -13t-32.5 13t-13.5 33zM324 611q0 19 13 31.5t33 12.5q18 0 31 -12.5t13 -31.5q0 -20 -13 -33t-31 -13q-20 0 -33 13t-13 33z" />
<glyph unicode="&#xec;" horiz-adv-x="271" d="M223 562l-182 81q-20 9 -20 33v27q0 18 18 18q9 0 16 -4l180 -107q16 -10 18 -27v-9q0 -15 -17 -15q-7 0 -13 3zM131 493h6q38 0 38 -37v-418q0 -38 -38 -38h-6q-20 0 -29 9t-9 29v418q0 37 38 37z" />
<glyph unicode="&#xed;" horiz-adv-x="271" d="M231 643l-181 -81q-6 -3 -13 -3q-16 0 -16 15v9q0 15 18 27l180 107q5 4 16 4q18 0 18 -18v-27q0 -24 -22 -33zM131 493h6q38 0 38 -37v-418q0 -38 -38 -38h-6q-20 0 -29 9t-9 29v418q0 37 38 37z" />
<glyph unicode="&#xee;" horiz-adv-x="282" d="M142 633l-86 -53q-14 -9 -28 -9q-30 0 -30 24q0 12 22 27l89 63q14 10 33 10q17 0 33 -11l89 -62q22 -15 22 -27q0 -24 -30 -24q-14 0 -28 9zM138 493h6q38 0 38 -37v-418q0 -38 -38 -38h-6q-20 0 -29 9t-9 29v418q0 37 38 37z" />
<glyph unicode="&#xef;" horiz-adv-x="266" d="M-12 622q0 19 13.5 31.5t32.5 12.5t32 -12.5t13 -31.5q0 -20 -13 -33t-32 -13t-32.5 13t-13.5 33zM190 622q0 19 13 31.5t33 12.5q18 0 31 -12.5t13 -31.5q0 -20 -13 -33t-31 -13q-20 0 -33 13t-13 33zM132 493h6q38 0 38 -37v-418q0 -38 -38 -38h-6q-20 0 -29 9t-9 29 v418q0 37 38 37z" />
<glyph unicode="&#xf1;" horiz-adv-x="557" d="M111 493h7q38 0 38 -38v-49q19 38 60 67t94 29q81 0 132.5 -48.5t51.5 -153.5v-262q0 -20 -9 -29t-29 -9h-8q-37 0 -37 38v259q0 73 -31 104t-88 31q-61 0 -98 -48t-37 -127v-219q0 -38 -39 -38h-7q-20 0 -29 9t-9 29v417q0 38 38 38zM271 565q-36 16 -67 16 q-23 0 -37 -16q-9 -11 -24.5 -7t-15.5 21q0 36 23 54q24 19 61 19q8 0 14 -0.5t13 -2t10.5 -2t11.5 -3.5t10 -4t12.5 -5.5t12.5 -5.5q36 -16 67 -16q23 0 37 16q9 11 24.5 7t15.5 -21q0 -36 -23 -54q-24 -19 -61 -19q-8 0 -14 0.5t-13 2t-10.5 2t-11.5 3.5t-10 4t-12.5 5.5 t-12.5 5.5z" />
<glyph unicode="&#xf2;" d="M287 502q103 0 174 -67t71 -189t-71 -188t-174 -66t-174 66t-71 188t71 189t174 67zM287 433q-71 0 -115.5 -48.5t-44.5 -137.5q0 -90 44.5 -138.5t115.5 -48.5t115.5 48.5t44.5 138.5q0 89 -44.5 137.5t-115.5 48.5zM375 551l-182 81q-20 9 -20 33v27q0 18 18 18 q9 0 16 -4l180 -107q16 -10 18 -27v-9q0 -15 -17 -15q-7 0 -13 3z" />
<glyph unicode="&#xf3;" d="M287 502q103 0 174 -67t71 -189t-71 -188t-174 -66t-174 66t-71 188t71 189t174 67zM287 433q-71 0 -115.5 -48.5t-44.5 -137.5q0 -90 44.5 -138.5t115.5 -48.5t115.5 48.5t44.5 138.5q0 89 -44.5 137.5t-115.5 48.5zM383 632l-181 -81q-6 -3 -13 -3q-16 0 -16 15v9 q0 15 18 27l180 107q5 4 16 4q18 0 18 -18v-27q0 -24 -22 -33z" />
<glyph unicode="&#xf4;" d="M287 502q103 0 174 -67t71 -189t-71 -188t-174 -66t-174 66t-71 188t71 189t174 67zM287 433q-71 0 -115.5 -48.5t-44.5 -137.5q0 -90 44.5 -138.5t115.5 -48.5t115.5 48.5t44.5 138.5q0 89 -44.5 137.5t-115.5 48.5zM288 622l-86 -53q-14 -9 -28 -9q-30 0 -30 24 q0 12 22 27l89 63q14 10 33 10q17 0 33 -11l89 -62q22 -15 22 -27q0 -24 -30 -24q-14 0 -28 9z" />
<glyph unicode="&#xf5;" d="M287 502q103 0 174 -67t71 -189t-71 -188t-174 -66t-174 66t-71 188t71 189t174 67zM287 433q-71 0 -115.5 -48.5t-44.5 -137.5q0 -90 44.5 -138.5t115.5 -48.5t115.5 48.5t44.5 138.5q0 89 -44.5 137.5t-115.5 48.5zM278 565q-36 16 -67 16q-23 0 -37 -16 q-9 -11 -24.5 -7t-15.5 21q0 36 23 54q24 19 61 19q8 0 14 -0.5t13 -2t10.5 -2t11.5 -3.5t10 -4t12.5 -5.5t12.5 -5.5q36 -16 67 -16q23 0 37 16q9 11 24.5 7t15.5 -21q0 -36 -23 -54q-24 -19 -61 -19q-8 0 -14 0.5t-13 2t-10.5 2t-11.5 3.5t-10 4t-12.5 5.5t-12.5 5.5z" />
<glyph unicode="&#xf6;" d="M287 502q103 0 174 -67t71 -189t-71 -188t-174 -66t-174 66t-71 188t71 189t174 67zM287 433q-71 0 -115.5 -48.5t-44.5 -137.5q0 -90 44.5 -138.5t115.5 -48.5t115.5 48.5t44.5 138.5q0 89 -44.5 137.5t-115.5 48.5zM141 611q0 19 13.5 31.5t32.5 12.5t32 -12.5 t13 -31.5q0 -20 -13 -33t-32 -13t-32.5 13t-13.5 33zM343 611q0 19 13 31.5t33 12.5q18 0 31 -12.5t13 -31.5q0 -20 -13 -33t-31 -13q-20 0 -33 13t-13 33z" />
<glyph unicode="&#xf7;" horiz-adv-x="551" d="M276 175q27 0 46 -18t19 -47t-19 -47t-46 -18q-28 0 -47 18t-19 47t19 47t47 18zM276 485q27 0 46 -18t19 -47t-19 -47t-46 -18q-28 0 -47 18t-19 47t19 47t47 18zM95 297h360q37 0 37 -33t-37 -33h-360q-37 0 -37 33t37 33z" />
<glyph unicode="&#xf8;" d="M287 502q68 0 126 -32l34 46q17 23 41 5l4 -3q24 -17 6 -40l-35 -46q69 -71 69 -186q0 -122 -71 -188t-174 -66q-73 0 -130 33l-41 -54q-17 -22 -40 -5l-4 3q-24 18 -7 40l42 55q-65 68 -65 182q0 122 71 189t174 67zM447 247q0 73 -32 121l-214 -285q37 -23 86 -23 q71 0 115.5 48.5t44.5 138.5zM287 433q-71 0 -115.5 -48.5t-44.5 -137.5q0 -72 29 -118l213 283q-36 21 -82 21z" />
<glyph unicode="&#xf9;" horiz-adv-x="559" d="M99 492h7q38 0 38 -37v-257q0 -137 121 -137q46 0 77.5 27t43.5 64t12 80v223q0 37 39 37h7q20 0 28.5 -8.5t8.5 -28.5v-418q0 -20 -9 -28.5t-29 -8.5h-6q-39 0 -39 37v50q-14 -32 -59.5 -63.5t-97.5 -31.5q-180 0 -180 201v262q0 37 38 37zM355 551l-182 81 q-20 9 -20 33v27q0 18 18 18q9 0 16 -4l180 -107q16 -10 18 -27v-9q0 -15 -17 -15q-7 0 -13 3z" />
<glyph unicode="&#xfa;" horiz-adv-x="559" d="M99 492h7q38 0 38 -37v-257q0 -137 121 -137q46 0 77.5 27t43.5 64t12 80v223q0 37 39 37h7q20 0 28.5 -8.5t8.5 -28.5v-418q0 -20 -9 -28.5t-29 -8.5h-6q-39 0 -39 37v50q-14 -32 -59.5 -63.5t-97.5 -31.5q-180 0 -180 201v262q0 37 38 37zM378 632l-181 -81 q-6 -3 -13 -3q-16 0 -16 15v9q0 15 18 27l180 107q5 4 16 4q18 0 18 -18v-27q0 -24 -22 -33z" />
<glyph unicode="&#xfb;" horiz-adv-x="559" d="M99 492h7q38 0 38 -37v-257q0 -137 121 -137q46 0 77.5 27t43.5 64t12 80v223q0 37 39 37h7q20 0 28.5 -8.5t8.5 -28.5v-418q0 -20 -9 -28.5t-29 -8.5h-6q-39 0 -39 37v50q-14 -32 -59.5 -63.5t-97.5 -31.5q-180 0 -180 201v262q0 37 38 37zM275 622l-86 -53 q-14 -9 -28 -9q-30 0 -30 24q0 12 22 27l89 63q14 10 33 10q17 0 33 -11l89 -62q22 -15 22 -27q0 -24 -30 -24q-14 0 -28 9z" />
<glyph unicode="&#xfc;" horiz-adv-x="559" d="M99 492h7q38 0 38 -37v-257q0 -137 121 -137q46 0 77.5 27t43.5 64t12 80v223q0 37 39 37h7q20 0 28.5 -8.5t8.5 -28.5v-418q0 -20 -9 -28.5t-29 -8.5h-6q-39 0 -39 37v50q-14 -32 -59.5 -63.5t-97.5 -31.5q-180 0 -180 201v262q0 37 38 37zM129 611q0 19 13.5 31.5 t32.5 12.5t32 -12.5t13 -31.5q0 -20 -13 -33t-32 -13t-32.5 13t-13.5 33zM331 611q0 19 13 31.5t33 12.5q18 0 31 -12.5t13 -31.5q0 -20 -13 -33t-31 -13q-20 0 -33 13t-13 33z" />
<glyph unicode="&#xfd;" horiz-adv-x="517" d="M58 492h19q32 0 39 -31q61 -240 135 -388h9q84 207 135 388q9 31 39 31h16q31 0 31 -22q0 -6 -3 -14q-116 -362 -252 -650q-8 -17 -16.5 -24.5t-26.5 -7.5h-25q-24 0 -24 23q0 7 6 18q16 32 48 94t44 92h-2q-5 1 -10 2.5t-8 3t-6.5 5t-5.5 5t-5 7t-4 7t-4.5 9t-4.5 9.5 q-77 154 -152 407q-3 8 -3 14q0 22 31 22zM352 632l-181 -81q-6 -3 -13 -3q-16 0 -16 15v9q0 15 18 27l180 107q5 4 16 4q18 0 18 -18v-27q0 -24 -22 -33z" />
<glyph unicode="&#xff;" horiz-adv-x="517" d="M58 492h19q32 0 39 -31q61 -240 135 -388h9q84 207 135 388q9 31 39 31h16q31 0 31 -22q0 -6 -3 -14q-116 -362 -252 -650q-8 -17 -16.5 -24.5t-26.5 -7.5h-25q-24 0 -24 23q0 7 6 18q16 32 48 94t44 92h-2q-5 1 -10 2.5t-8 3t-6.5 5t-5.5 5t-5 7t-4 7t-4.5 9t-4.5 9.5 q-77 154 -152 407q-3 8 -3 14q0 22 31 22zM112 611q0 19 13.5 31.5t32.5 12.5t32 -12.5t13 -31.5q0 -20 -13 -33t-32 -13t-32.5 13t-13.5 33zM314 611q0 19 13 31.5t33 12.5q18 0 31 -12.5t13 -31.5q0 -20 -13 -33t-31 -13q-20 0 -33 13t-13 33z" />
<glyph unicode="&#x178;" horiz-adv-x="631" d="M72 679h21q6 0 11 -1.5t9.5 -6t8 -8.5t7.5 -11.5t6 -12.5t6.5 -15t6.5 -15q67 -149 162 -272h11q95 123 162 272q2 5 6.5 15t6.5 15t6 12.5t7.5 11.5t8 8.5t9.5 6t11 1.5h21q32 0 32 -28q0 -14 -4 -22q-8 -22 -18 -43.5t-18 -39t-20.5 -39.5t-20 -35.5t-23.5 -37 t-22.5 -34t-25.5 -36.5t-25 -34t-28 -37.5t-27 -36.5v-218q0 -38 -39 -38h-9q-39 0 -39 38v218q-5 7 -27 36.5t-28 37.5t-25 34t-25.5 36.5t-22.5 34t-23.5 37t-20 35.5t-20.5 39.5t-18 39t-18 43.5q-4 8 -4 22q0 28 32 28zM169 811q0 19 13.5 31.5t32.5 12.5t32 -12.5 t13 -31.5q0 -20 -13 -33t-32 -13t-32.5 13t-13.5 33zM371 811q0 19 13 31.5t33 12.5q18 0 31 -12.5t13 -31.5q0 -20 -13 -33t-31 -13q-20 0 -33 13t-13 33z" />
<glyph unicode="&#x2c6;" horiz-adv-x="397" d="M199 622l-86 -53q-14 -9 -28 -9q-30 0 -30 24q0 12 22 27l89 63q14 10 33 10q17 0 33 -11l89 -62q22 -15 22 -27q0 -24 -30 -24q-14 0 -28 9z" />
<glyph unicode="&#x2dc;" horiz-adv-x="399" d="M190 565q-36 16 -67 16q-23 0 -37 -16q-9 -11 -24.5 -7t-15.5 21q0 36 23 54q24 19 61 19q8 0 14 -0.5t13 -2t10.5 -2t11.5 -3.5t10 -4t12.5 -5.5t12.5 -5.5q36 -16 67 -16q23 0 37 16q9 11 24.5 7t15.5 -21q0 -36 -23 -54q-24 -19 -61 -19q-8 0 -14 0.5t-13 2t-10.5 2 t-11.5 3.5t-10 4t-12.5 5.5t-12.5 5.5z" />
<glyph unicode="&#x2000;" horiz-adv-x="455" />
<glyph unicode="&#x2001;" horiz-adv-x="910" />
<glyph unicode="&#x2002;" horiz-adv-x="455" />
<glyph unicode="&#x2003;" horiz-adv-x="910" />
<glyph unicode="&#x2004;" horiz-adv-x="303" />
<glyph unicode="&#x2005;" horiz-adv-x="227" />
<glyph unicode="&#x2006;" horiz-adv-x="151" />
<glyph unicode="&#x2007;" horiz-adv-x="151" />
<glyph unicode="&#x2008;" horiz-adv-x="113" />
<glyph unicode="&#x2009;" horiz-adv-x="182" />
<glyph unicode="&#x200a;" horiz-adv-x="50" />
<glyph unicode="&#x2010;" horiz-adv-x="440" d="M87 327h266q37 0 37 -33t-37 -33h-266q-37 0 -37 33t37 33z" />
<glyph unicode="&#x2011;" horiz-adv-x="440" d="M87 327h266q37 0 37 -33t-37 -33h-266q-37 0 -37 33t37 33z" />
<glyph unicode="&#x2012;" horiz-adv-x="440" d="M87 327h266q37 0 37 -33t-37 -33h-266q-37 0 -37 33t37 33z" />
<glyph unicode="&#x2013;" horiz-adv-x="586" d="M87 327h412q37 0 37 -33t-37 -33h-412q-37 0 -37 33t37 33z" />
<glyph unicode="&#x2014;" horiz-adv-x="847" d="M87 327h673q37 0 37 -33t-37 -33h-673q-37 0 -37 33t37 33z" />
<glyph unicode="&#x2018;" horiz-adv-x="195" d="M158 525q0 -27 -19 -45t-47 -18q-29 0 -50.5 22.5t-21.5 61.5q0 64 33 109.5t79 45.5q33 0 33 -24q-33 -8 -54.5 -35.5t-21.5 -66.5q8 4 23 4q20 0 33 -16t13 -38z" />
<glyph unicode="&#x2019;" horiz-adv-x="195" d="M37 638q0 27 19 45t47 18q29 0 50.5 -22.5t21.5 -61.5q0 -64 -33 -109.5t-79 -45.5q-33 0 -33 24q33 8 54.5 35.5t21.5 66.5q-8 -4 -23 -4q-20 0 -33 16t-13 38z" />
<glyph unicode="&#x201a;" horiz-adv-x="261" d="M65 59q0 27 19 45t47 18q29 0 50.5 -22.5t21.5 -61.5q0 -64 -33 -109.5t-79 -45.5q-33 0 -33 24q33 8 54.5 35.5t21.5 66.5q-8 -4 -23 -4q-20 0 -33 16t-13 38z" />
<glyph unicode="&#x201c;" horiz-adv-x="384" d="M168 525q0 -27 -19 -45t-47 -18q-29 0 -50.5 22.5t-21.5 61.5q0 64 33 109.5t79 45.5q33 0 33 -24q-33 -8 -54.5 -35.5t-21.5 -66.5q8 4 23 4q20 0 33 -16t13 -38zM337 525q0 -27 -19 -45t-47 -18q-29 0 -50.5 22.5t-21.5 61.5q0 64 33 109.5t79 45.5q33 0 33 -24 q-33 -8 -54.5 -35.5t-21.5 -66.5q8 4 23 4q20 0 33 -16t13 -38z" />
<glyph unicode="&#x201d;" horiz-adv-x="384" d="M47 638q0 27 19 45t47 18q29 0 50.5 -22.5t21.5 -61.5q0 -64 -33 -109.5t-79 -45.5q-33 0 -33 24q33 8 54.5 35.5t21.5 66.5q-8 -4 -23 -4q-20 0 -33 16t-13 38zM216 638q0 27 19 45t47 18q29 0 50.5 -22.5t21.5 -61.5q0 -64 -33 -109.5t-79 -45.5q-33 0 -33 24 q33 8 54.5 35.5t21.5 66.5q-8 -4 -23 -4q-20 0 -33 16t-13 38z" />
<glyph unicode="&#x201e;" horiz-adv-x="384" d="M216 59q0 27 19 45t47 18q29 0 50.5 -22.5t21.5 -61.5q0 -64 -33 -109.5t-79 -45.5q-33 0 -33 24q33 8 54.5 35.5t21.5 66.5q-8 -4 -23 -4q-20 0 -33 16t-13 38zM47 59q0 27 19 45t47 18q29 0 50.5 -22.5t21.5 -61.5q0 -64 -33 -109.5t-79 -45.5q-33 0 -33 24 q33 8 54.5 35.5t21.5 66.5q-8 -4 -23 -4q-20 0 -33 16t-13 38z" />
<glyph unicode="&#x2022;" horiz-adv-x="292" d="M146 442q41 0 69 -27.5t28 -69.5t-28 -69t-69 -27t-69 27t-28 69t28 69.5t69 27.5z" />
<glyph unicode="&#x2026;" horiz-adv-x="666" d="M131 122q27 0 46 -18t19 -47t-19 -47t-46 -18q-28 0 -47 18t-19 47t19 47t47 18zM338 122q27 0 46 -18t19 -47t-19 -47t-46 -18q-28 0 -47 18t-19 47t19 47t47 18zM536 122q27 0 46 -18t19 -47t-19 -47t-46 -18q-28 0 -47 18t-19 47t19 47t47 18z" />
<glyph unicode="&#x202f;" horiz-adv-x="182" />
<glyph unicode="&#x2039;" horiz-adv-x="342" d="M67 259q0 26 19 50q93 123 110 141q22 21 37 21q17 0 29 -10.5t12 -22.5t-9 -24l-119 -155l119 -155q9 -12 9 -24t-12 -22.5t-29 -10.5t-41 26.5t-82 103.5q-16 21 -24 32q-19 24 -19 50z" />
<glyph unicode="&#x203a;" horiz-adv-x="342" d="M275 259q0 -24 -19 -50q-12 -15 -32 -42q-55 -72 -76.5 -96t-38.5 -24t-29 10.5t-12 22.5t9 24l119 155l-119 155q-9 12 -9 24t12 22.5t29 10.5t38.5 -23.5t76.5 -96.5q20 -27 32 -42q19 -25 19 -50z" />
<glyph unicode="&#x205f;" horiz-adv-x="227" />
<glyph unicode="&#x20ac;" horiz-adv-x="667" d="M458 370h-245q-1 -11 -1 -32q0 -24 3 -47h243q20 0 28.5 -8.5t8.5 -29.5q0 -34 -37 -37h-230q23 -73 71 -111.5t111 -38.5q71 0 111 29t45 83q23 -2 39.5 -17.5t16.5 -36.5q0 -55 -58.5 -93t-153.5 -38q-100 0 -172 57.5t-98 165.5h-68q-38 0 -38 37q0 38 37 38h57 q-2 16 -2 50v29h-54q-38 0 -38 38q0 37 37 37h65q23 117 96.5 179.5t177.5 62.5q96 0 152 -35t56 -93q0 -26 -17 -40.5t-43 -16.5q-3 53 -41 81t-108 28q-68 0 -117 -42.5t-69 -123.5h235q37 0 37 -37q0 -35 -37 -38z" />
<glyph unicode="&#x2122;" horiz-adv-x="783" d="M540 389q15 51 41 145.5t33 117.5q8 27 42 27h35q23 0 23 -21v-296q0 -24 -22 -24h-9q-22 0 -22 24v261h-4q-15 -48 -42 -137.5t-38 -126.5q-7 -21 -27 -21h-20q-21 0 -27 21l-81 264h-4q0 -44 0.5 -131t0.5 -130q0 -24 -22 -24h-8q-23 0 -23 24q0 98 2 296q0 21 22 21 h33q32 0 43 -27q10 -37 35 -126t39 -137zM299 633h-90v-271q0 -24 -25 -24h-5q-22 0 -22 24v271h-91q-22 0 -22 23t22 23h233q21 0 21 -23t-21 -23z" />
<glyph unicode="&#x25fc;" horiz-adv-x="495" d="M0 495h495v-495h-495v495z" />
</font>
</defs>
</svg>
