<?xml version="1.0" encoding="utf-8"?>
<!-- Generator: Adobe Illustrator 17.1.0, SVG Export Plug-In . SVG Version: 6.00 Build 0)  -->
<!DOCTYPE svg PUBLIC "-//W3C//DTD SVG 1.1//EN" "http://www.w3.org/Graphics/SVG/1.1/DTD/svg11.dtd">
<svg version="1.1" id="Layer_1" xmlns="http://www.w3.org/2000/svg" xmlns:xlink="http://www.w3.org/1999/xlink" x="0px" y="0px"
	 viewBox="0 0 300 170" enable-background="new 0 0 300 170" xml:space="preserve">
<g>
	<g>
		<path fill="#FFFFFF" d="M74.5,166.8h142.7V3.2H74.5V166.8z"/>
	</g>
	<g>
		<path fill="#00B4B4" d="M220.5,170H71.2V0h149.2V170z M74.5,166.8h142.7V3.2H74.5V166.8z"/>
	</g>
	<path fill="#F1F0F0" d="M209.4,131.9c0,3.5-2.8,6.3-6.3,6.3H88.5c-3.5,0-6.3-2.8-6.3-6.3V17.3c0-3.5,2.8-6.3,6.3-6.3h114.6
		c3.5,0,6.3,2.8,6.3,6.3V131.9z"/>
	<g>
		<path fill="#00B4B4" d="M203.3,140.2H88.4c-4.5,0-8.1-3.6-8.1-8.1V17.2c0-4.5,3.6-8.1,8.1-8.1h114.8c4.5,0,8.1,3.6,8.1,8.1V132
			C211.4,136.5,207.7,140.2,203.3,140.2z M88.4,12.3c-2.7,0-4.9,2.2-4.9,4.9V132c0,2.7,2.2,4.9,4.9,4.9h114.8c2.7,0,4.9-2.2,4.9-4.9
			V17.2c0-2.7-2.2-4.9-4.9-4.9H88.4z"/>
	</g>
	<g>
		<path fill="#00B4B4" d="M203.3,140.2H88.4c-4.5,0-8.1-3.6-8.1-8.1V17.2c0-4.5,3.6-8.1,8.1-8.1h114.8c4.5,0,8.1,3.6,8.1,8.1V132
			C211.4,136.5,207.7,140.2,203.3,140.2z M88.4,12.3c-2.7,0-4.9,2.2-4.9,4.9V132c0,2.7,2.2,4.9,4.9,4.9h114.8c2.7,0,4.9-2.2,4.9-4.9
			V17.2c0-2.7-2.2-4.9-4.9-4.9H88.4z"/>
	</g>
	<g>
		<path fill="none" d="M114.5,136.6c-0.1-0.6-0.3-1.2-0.3-1.8c-0.2-1.2-0.4-1.8-0.9-2.1l-0.4-0.3l-0.2-0.5c-0.5-1.3-0.3-2.4-0.1-3
			c0.1-0.2,0.1-0.4,0.2-0.6c0.1-0.4,0.3-0.9,0.5-1.4c0.3-0.8,0.7-1.8,0.7-2.7l0-0.5l0.3-0.4c0.8-1.3,1.8-1.9,2.6-2.4
			c0.7-0.4,0.9-0.7,1-1c0.4-1,1.1-1.8,2.1-2.6c1.3-0.9,2.1-2.3,2.4-4.1c0.4-1.8,0.5-3.2,0.6-4.5c0.1-2.5,0.7-4.9,1.2-7.3
			c0.1-0.5,0.2-0.9,0.3-1.4c0.1-0.6,0.2-1.2,0.3-1.8c0.1-0.4,0.1-0.8,0.2-1.2c0-0.3,0.1-0.5,0.1-0.8c0.1-0.7,0.2-1.5,0.5-2.2
			c0.8-2.4,1.1-5,0.9-8.5c0-0.1,0-0.1,0-0.2c0-0.3,0-0.6,0-1c0.2-1.1-0.1-2.1-0.7-3.2c-0.3-0.5-0.5-1.1-0.7-1.8
			c-0.6-2.4-0.2-4.5,1.3-6.2c0.2-0.2,0.4-0.5,0.6-0.7c0-0.8-0.2-1.6-0.8-2.6c-0.9-1.7-1.9-3.4-2.9-5c-0.3-0.5-0.6-1-0.9-1.5
			c0-0.1-0.2-0.2-0.3-0.3l-1.4-1.4c-1.7-1.7-3.4-3.5-5.1-5.2c-0.8-0.8-1.8-1.9-2.6-3.2c-1.2-2.1-1.7-4.2-1.3-6.3
			c0.2-1.1,0.2-2.2,0.2-3.4c0-0.4,0-0.8,0-1.2c0-0.1-0.1-0.2-0.1-0.4l-0.1-0.3c-0.5-2,0.1-3.8,1.6-5.3c0.2-0.2,0.4-0.4,0.7-0.6
			c1.3-0.7,2.1-1.9,3-3.6c0.2-0.3,0.4-0.6,0.6-1c1-1.3,2.5-1.7,4-1.2l0.1,0c1.3,0.5,2.6,1,3.9,1.6c2.4,1.2,4.6,2.6,6.7,4l0.7,0.5
			c0.8,0.5,1.6,1,2.4,1.5c0.8,0.5,1.5,0.9,2.3,1.4c0.7,0.4,1.5,0.7,2.5,1c0.4,0.1,0.8,0.1,1.1,0.1c0.7,0,1-0.2,1.2-0.4
			c1.1-0.9,2.4-1.4,3.7-1.4c1.3,0,2.5,0.4,3.5,0.8c0.8,0.3,1.6,0.8,2.4,1.2c0.4,0.2,0.7,0.4,1.1,0.6l0.7,0.4
			c0.9,0.4,1.7,0.9,2.5,1.2c1.5,0.6,2.7,1.4,3.7,2.2c0.4,0.3,0.9,0.6,1.4,0.8l0.6,0.3c0.5,0.3,1,0.5,1.5,0.7
			c2.5,0.7,3.7,2.7,4.5,4.3c0.5,1.2,1.2,2.7,1.6,4.3c0.9,3.5,2.9,6.4,4.4,8.6c1.1,1.5,2.3,3,3.5,4.4l0.8,1c0.9,1.1,1.4,2.3,1.4,3.6
			c0,0.2,0,0.3,0,0.5c0,0.9,0,2.1-0.5,3.2c-0.2,0.3-0.3,0.6-0.5,0.8c-0.1,0.1-0.1,0.2-0.2,0.3l-0.8,1.2l-1.3-0.6
			c-0.1,0-0.1-0.1-0.2-0.1c-0.3-0.1-0.9-0.3-1.3-0.9c-0.4-0.5-0.7-1.1-1-1.6l-0.1-0.3c-0.4-0.7-0.8-1.5-1.2-2.2l-0.2-0.4
			c-0.2-0.1-0.5-0.1-0.8-0.1c0,0.2,0.1,0.3,0.1,0.4c1.2,3.7,1.6,7.5,1.8,10.7c0,0.6,0.1,1.2,0.1,1.8c0.1,1.8,0.3,3.8,0.3,5.7
			c0,1.3,0,2.6-0.1,3.8l0,0.9c0,0.8-0.1,1.6-0.1,2.3c-0.1,1.5-0.2,2.9-0.2,4.3c0,0.8,0.1,1.7,0.3,2.6c0.1,0.7,0.2,1.5,0.3,2.2
			c0.2,2.2,1,4.4,2.6,6.6c0.9,1.2,1.9,2.4,3.1,3.4c1.9,1.7,3.5,3.6,4.6,5c1.2,1.5,2.3,3,3.4,4.4c0.5,0.6,0.9,1.2,1.4,1.8
			c0.1,0.1,0.3,0.3,0.4,0.7c0.4,1.1,1,2,1.8,3c0.7,1,1.4,2,2,3.2c0.2,0.4,0.5,0.3,0.8,1.3h8.1c2.7,0,5.3-2.3,5.3-5V17.2
			c0-2.7-2.6-5.2-5.3-5.2H87.9c-2.7,0-4.9,2.5-4.9,5.2V132c0,2.7,2.2,5,4.9,5h26.7c0,0,0-0.1,0-0.1L114.5,136.6z"/>
		<path fill="#F1F0F0" d="M187.1,130.7c-0.5-0.6-0.9-1.2-1.4-1.9c-1.1-1.4-2.2-2.9-3.3-4.3c-1.2-1.4-2.6-3.1-4.3-4.6
			c-1.4-1.2-2.6-2.6-3.6-4c-2-2.7-3-5.4-3.2-8.3c0-0.7-0.1-1.3-0.2-2c-0.1-1-0.3-2-0.3-3.1c0-1.5,0.1-3.1,0.2-4.6
			c0-0.8,0.1-1.5,0.1-2.3l0-0.9c0.1-1.2,0.1-2.4,0.1-3.5c-0.1-1.8-0.2-3.7-0.3-5.5c0-0.6-0.1-1.2-0.1-1.8c-0.2-3-0.6-6.5-1.7-9.9
			c-0.2-0.5-0.3-1.2-0.3-1.8c0-0.5,0.2-1,0.3-1.3c0-0.1,0.1-0.2,0.1-0.4l0.4-1.2l1.3,0.1c0.2,0,0.3,0,0.5,0c1,0,2,0.1,3.2,0.6
			l0.5,0.2l0.8,1.5c0.3,0.6,0.7,1.2,1,1.8c0-0.2,0-0.3,0-0.5c0-0.5-0.2-1-0.6-1.6l-0.8-1c-1.2-1.5-2.4-3-3.6-4.6
			c-1.7-2.4-3.9-5.7-4.9-9.6c-0.4-1.4-0.9-2.7-1.5-3.8c-0.7-1.5-1.4-2.2-2.4-2.6c-0.8-0.2-1.5-0.6-2.1-0.9l-0.6-0.3
			c-0.6-0.3-1.3-0.7-1.9-1.2c-0.8-0.7-1.8-1.3-3-1.8c-0.9-0.4-1.8-0.9-2.7-1.3l-0.7-0.4c-0.4-0.2-0.8-0.4-1.2-0.6
			c-0.7-0.4-1.4-0.7-2-1c-0.7-0.3-1.5-0.6-2.3-0.6c-0.6,0-1.1,0.2-1.6,0.6c-0.9,0.8-2,1.2-3.3,1.2c-0.6,0-1.2-0.1-1.8-0.2
			c-1.4-0.3-2.6-0.8-3.6-1.4c-0.7-0.5-1.5-0.9-2.2-1.4c-0.8-0.5-1.6-1-2.4-1.5l-0.7-0.5c-2.1-1.4-4.2-2.7-6.4-3.9
			c-1.1-0.6-2.3-1-3.6-1.5l-0.1,0c-0.1,0-0.1,0-0.1,0c0,0-0.1,0.1-0.2,0.2c-0.1,0.2-0.2,0.4-0.3,0.5c-0.9,1.6-2.1,3.6-4.2,4.8
			l-0.1,0.1c-0.7,0.7-0.9,1.4-0.7,2.2l0.1,0.2c0.1,0.4,0.2,0.8,0.2,1.3c0,0.4,0,0.7,0,1.1c0,1.3-0.1,2.6-0.3,3.9
			c-0.2,1.4,0,2.7,0.9,4.1c0.5,0.9,1.3,1.6,2.1,2.5c1.7,1.7,3.4,3.5,5.1,5.2l1.4,1.4c0.2,0.2,0.5,0.5,0.7,0.9c0.3,0.5,0.6,1,0.9,1.5
			c1,1.7,2,3.4,2.9,5.2c0.7,1.2,1.4,2.9,1.1,5l-0.1,0.5l-0.6,0.7c-0.2,0.3-0.5,0.6-0.7,0.8c-0.8,0.9-1,1.9-0.6,3.2
			c0.1,0.4,0.2,0.8,0.4,1c1,1.7,1.3,3.5,1.1,5.2c0,0.1,0,0.2,0,0.3c0,0.1,0,0.2,0,0.3c0.1,2.6,0.1,6.1-1.1,9.6
			c-0.2,0.5-0.3,1.1-0.4,1.7c0,0.3-0.1,0.6-0.2,0.9c-0.1,0.4-0.1,0.8-0.2,1.2c-0.1,0.6-0.2,1.2-0.4,1.9c-0.1,0.5-0.2,0.9-0.3,1.4
			c-0.5,2.3-1,4.5-1.1,6.8c-0.1,1.5-0.3,3-0.7,5c-0.5,2.7-1.8,4.7-3.7,6.1c-0.5,0.4-0.8,0.7-0.9,1.1c-0.4,1.1-1.3,2-2.5,2.7
			c-0.5,0.3-0.9,0.5-1.2,0.9c-0.1,1.3-0.5,2.5-0.9,3.6c-0.2,0.4-0.3,0.7-0.4,1.2c-0.1,0.2-0.1,0.4-0.2,0.6c-0.1,0.2-0.1,0.3-0.1,0.4
			c1.2,1.1,1.6,2.7,1.8,4c0.1,0.5,0.2,1,0.3,1.6l0,0.3c0.1,0.3,0.1,0.8,0.1,0.8h73c-0.4-1-1-1.7-1.6-2.6
			C188.4,133.3,187.6,132.1,187.1,130.7z"/>
		<path fill="#CCCCCC" d="M115.7,134.5c-0.2-1.3-0.5-2.6-1.6-3.3c-0.3-0.7-0.2-1.3,0-1.9c0.2-0.6,0.4-1.2,0.7-1.8
			c0.5-1.1,0.8-2.3,0.8-3.4c0.5-0.9,1.3-1.4,2-1.8c0.8-0.4,1.4-1,1.8-1.9c0.3-0.8,0.9-1.4,1.5-1.8c1.8-1.3,2.7-3.1,3.1-5.1
			c0.3-1.6,0.5-3.2,0.6-4.8c0.2-2.9,0.8-5.6,1.4-8.4c0.2-1,0.4-2,0.6-3c0.2-0.9,0.3-1.9,0.6-2.8c1-3,1.1-6,1-9.1
			c0-0.3-0.1-0.6,0-0.9c0.2-1.5-0.1-2.9-0.9-4.2c-0.3-0.4-0.4-0.9-0.6-1.4c-0.5-1.7-0.2-3.3,1-4.7c0.3-0.4,0.6-0.8,0.9-1.2
			c0.2-1.5-0.3-2.8-1-4c-1.2-2.2-2.5-4.4-3.8-6.6c-0.1-0.2-0.4-0.5-0.6-0.7c-2.1-2.2-4.3-4.4-6.4-6.6c-0.9-0.9-1.7-1.8-2.4-2.8
			c-1-1.6-1.4-3.3-1.1-5.2c0.3-1.6,0.2-3.2,0.3-4.8c0-0.4-0.1-0.7-0.2-1.1c-0.4-1.5,0.1-2.7,1.2-3.8c0.1-0.1,0.2-0.2,0.3-0.3
			c1.8-0.9,2.7-2.6,3.7-4.2c0.1-0.3,0.3-0.5,0.5-0.7c0.6-0.7,1.3-1,2.1-0.7c1.3,0.5,2.6,1,3.8,1.6c2.5,1.3,4.9,2.9,7.3,4.4
			c1.5,1,3.1,1.9,4.6,2.9c0.9,0.6,2,0.9,3,1.2c1.3,0.3,2.7,0.3,3.8-0.6c1.8-1.6,3.7-1.1,5.5-0.3c1.1,0.5,2.2,1.1,3.3,1.7
			c1.1,0.6,2.2,1.1,3.3,1.6c1.2,0.5,2.3,1.2,3.4,2c0.6,0.4,1.2,0.8,1.9,1.1c0.7,0.4,1.4,0.8,2.2,1c1.8,0.5,2.7,1.9,3.4,3.4
			c0.6,1.3,1.2,2.7,1.6,4.1c0.9,3.4,2.7,6.3,4.7,9.1c1.4,1.9,2.9,3.7,4.3,5.5c0.6,0.8,1,1.6,1,2.6c0,1,0.1,2.1-0.3,3
			c-0.1,0.3-0.3,0.5-0.6,0.8c-0.4-0.2-0.8-0.3-0.9-0.5c-0.4-0.5-0.7-1.1-1-1.7c-0.6-1.1-1.2-2.2-1.7-3.2c-1.1-0.5-2.1-0.4-3.2-0.5
			c-0.2,0.5-0.4,0.9-0.4,1.3c0,0.4,0.1,0.9,0.2,1.3c1.1,3.4,1.5,6.8,1.7,10.3c0.2,2.5,0.4,4.9,0.5,7.4c0.1,1.5,0,3.1-0.1,4.6
			c-0.1,2.3-0.3,4.5-0.3,6.8c0,1.7,0.4,3.3,0.6,5c0.2,2.8,1.3,5.2,2.9,7.4c1,1.3,2.1,2.6,3.4,3.7c1.7,1.5,3.1,3.1,4.4,4.8
			c1.6,2,3.2,4.2,4.8,6.3c0,0.1,0.1,0.1,0.1,0.2c0.8,2.4,2.8,4.1,3.8,6.4c0.1,0.2,0.2,0.6,0.3,0.6h2c-0.3-1-0.6-0.9-0.8-1.3
			c-0.5-1.2-1.3-2.2-2-3.2c-0.7-1-1.4-2-1.8-3c-0.1-0.3-0.3-0.6-0.4-0.7c-0.5-0.6-0.9-1.2-1.4-1.9c-1.1-1.5-2.2-3-3.4-4.4
			c-1.2-1.5-2.8-3.4-4.6-5c-1.2-1.1-2.3-2.2-3.1-3.4c-1.6-2.2-2.5-4.4-2.6-6.6c-0.1-0.8-0.2-1.5-0.3-2.2c-0.1-0.9-0.3-1.8-0.3-2.6
			c0-1.4,0.1-2.8,0.2-4.3c0-0.8,0.1-1.6,0.1-2.3l0-0.9c0.1-1.2,0.1-2.5,0.1-3.8c-0.1-1.9-0.2-3.8-0.3-5.7c0-0.6-0.1-1.2-0.1-1.8
			c-0.2-3.2-0.6-7-1.8-10.7c0-0.1-0.1-0.2-0.1-0.4c0.3,0,0.5,0.1,0.8,0.1l0.2,0.4c0.4,0.7,0.8,1.5,1.2,2.2l0.1,0.3
			c0.3,0.5,0.6,1.1,1,1.6c0.4,0.5,0.9,0.7,1.3,0.9c0.1,0,0.1,0.1,0.2,0.1l1.3,0.6l0.8-1.2c0.1-0.1,0.1-0.2,0.2-0.3
			c0.2-0.2,0.4-0.5,0.5-0.8c0.5-1.1,0.5-2.3,0.5-3.2c0-0.2,0-0.3,0-0.5c0-1.3-0.4-2.5-1.4-3.6l-0.8-1c-1.2-1.4-2.4-2.9-3.5-4.4
			c-1.6-2.2-3.5-5.1-4.4-8.6c-0.4-1.6-1.1-3.2-1.6-4.3c-0.7-1.6-1.9-3.6-4.5-4.3c-0.5-0.1-0.9-0.4-1.5-0.7l-0.6-0.3
			c-0.5-0.3-1-0.5-1.4-0.8c-1.1-0.9-2.3-1.6-3.7-2.2c-0.8-0.4-1.7-0.8-2.5-1.2l-0.7-0.4c-0.4-0.2-0.7-0.4-1.1-0.6
			c-0.7-0.4-1.5-0.8-2.4-1.2c-1-0.4-2.2-0.8-3.5-0.8c-1.4,0-2.6,0.5-3.7,1.4c-0.2,0.2-0.5,0.4-1.2,0.4c-0.3,0-0.7,0-1.1-0.1
			c-1.1-0.2-1.9-0.5-2.5-1c-0.7-0.5-1.5-0.9-2.3-1.4c-0.8-0.5-1.6-1-2.4-1.5l-0.7-0.5c-2.1-1.4-4.4-2.8-6.7-4
			c-1.3-0.6-2.6-1.1-3.9-1.6l-0.1,0c-1.4-0.5-2.9-0.1-4,1.2c-0.3,0.3-0.5,0.7-0.6,1c-0.9,1.7-1.7,2.9-3,3.6
			c-0.3,0.2-0.6,0.4-0.7,0.6c-1.5,1.5-2.1,3.3-1.6,5.3l0.1,0.3c0,0.1,0.1,0.3,0.1,0.4c0,0.4,0,0.8,0,1.2c0,1.2-0.1,2.3-0.2,3.4
			c-0.4,2.2,0.1,4.2,1.3,6.3c0.8,1.3,1.8,2.3,2.6,3.2c1.7,1.7,3.4,3.5,5.1,5.2l1.4,1.4c0.1,0.1,0.2,0.2,0.3,0.3
			c0.3,0.5,0.6,1,0.9,1.5c1,1.6,2,3.3,2.9,5c0.6,1,0.8,1.9,0.8,2.6c-0.2,0.2-0.4,0.5-0.6,0.7c-1.5,1.7-1.9,3.8-1.3,6.2
			c0.2,0.7,0.4,1.3,0.7,1.8c0.6,1.1,0.8,2.1,0.7,3.2c-0.1,0.4,0,0.7,0,1c0,0.1,0,0.1,0,0.2c0.1,3.5-0.2,6.2-0.9,8.5
			c-0.2,0.8-0.4,1.5-0.5,2.2c0,0.3-0.1,0.5-0.1,0.8c-0.1,0.4-0.2,0.8-0.2,1.2c-0.1,0.6-0.2,1.2-0.3,1.8c-0.1,0.5-0.2,0.9-0.3,1.4
			c-0.5,2.3-1,4.8-1.2,7.3c-0.1,1.3-0.3,2.7-0.6,4.5c-0.4,1.9-1.1,3.2-2.4,4.1c-1,0.7-1.7,1.6-2.1,2.6c-0.1,0.3-0.3,0.6-1,1
			c-0.8,0.4-1.8,1.1-2.6,2.4l-0.3,0.4l0,0.5c0,0.9-0.3,1.9-0.7,2.7c-0.2,0.5-0.3,0.9-0.5,1.4c-0.1,0.2-0.1,0.4-0.2,0.6
			c-0.2,0.7-0.5,1.7,0.1,3l0.2,0.5l0.4,0.3c0.4,0.3,0.7,0.9,0.9,2.1c0.1,0.6,0.2,1.2,0.3,1.8l0,0.3c0,0,0,0.1,0,0.1h1.6
			c0,0,0-0.3-0.1-0.5C116,135.9,115.8,135.2,115.7,134.5z"/>
		<path fill="#CCCCCC" d="M117.7,136.2l0-0.2c-0.1-0.6-0.2-1.1-0.3-1.6c-0.2-1.3-0.6-2.9-1.8-4c0-0.1,0-0.2,0.1-0.4
			c0.1-0.2,0.1-0.4,0.2-0.6c0.1-0.4,0.3-0.8,0.4-1.2c0.4-1,0.9-2.2,0.9-3.6c0.3-0.4,0.7-0.6,1.2-0.9c1.3-0.7,2.1-1.6,2.5-2.7
			c0.1-0.4,0.4-0.7,0.9-1.1c2-1.4,3.2-3.5,3.7-6.1c0.4-2,0.6-3.5,0.7-5c0.1-2.3,0.6-4.4,1.1-6.8c0.1-0.5,0.2-0.9,0.3-1.4
			c0.1-0.6,0.2-1.2,0.4-1.9c0.1-0.4,0.1-0.8,0.2-1.2c0.1-0.3,0.1-0.6,0.2-0.9c0.1-0.6,0.2-1.2,0.4-1.7c1.1-3.5,1.2-7,1.1-9.6
			c0-0.1,0-0.2,0-0.3c0-0.1,0-0.2,0-0.3c0.3-1.8-0.1-3.5-1.1-5.2c-0.2-0.3-0.3-0.6-0.4-1c-0.4-1.3-0.2-2.3,0.6-3.2
			c0.2-0.3,0.5-0.6,0.7-0.8l0.6-0.7l0.1-0.5c0.3-2.1-0.5-3.7-1.1-5c-0.9-1.8-2-3.5-2.9-5.2c-0.3-0.5-0.6-1-0.9-1.5
			c-0.2-0.4-0.5-0.7-0.7-0.9l-1.4-1.4c-1.7-1.7-3.4-3.5-5.1-5.2c-0.9-0.9-1.6-1.7-2.1-2.5c-0.9-1.4-1.1-2.7-0.9-4.1
			c0.2-1.3,0.3-2.6,0.3-3.9c0-0.4,0-0.8,0-1.1c0-0.5-0.1-1-0.2-1.3l-0.1-0.2c-0.2-0.9,0-1.5,0.7-2.2l0.1-0.1
			c2.2-1.2,3.3-3.2,4.2-4.8c0.1-0.2,0.2-0.4,0.3-0.5c0.1-0.1,0.2-0.2,0.2-0.2c0,0,0,0,0.1,0l0.1,0c1.3,0.5,2.4,0.9,3.6,1.5
			c2.2,1.1,4.4,2.5,6.4,3.9l0.7,0.5c0.8,0.5,1.6,1,2.4,1.5c0.7,0.5,1.5,0.9,2.2,1.4c1,0.6,2.1,1.1,3.6,1.4c0.7,0.1,1.3,0.2,1.8,0.2
			c1.3,0,2.4-0.4,3.3-1.2c0.5-0.4,1-0.6,1.6-0.6c0.7,0,1.5,0.3,2.3,0.6c0.7,0.3,1.3,0.6,2,1c0.4,0.2,0.8,0.4,1.2,0.6l0.7,0.4
			c0.9,0.4,1.8,0.9,2.7,1.3c1.2,0.5,2.2,1.1,3,1.8c0.6,0.5,1.3,0.9,1.9,1.2l0.6,0.3c0.6,0.3,1.3,0.7,2.1,0.9c1,0.3,1.7,1,2.4,2.6
			c0.5,1.1,1.1,2.5,1.5,3.8c1.1,4,3.2,7.2,4.9,9.6c1.1,1.6,2.4,3.1,3.6,4.6l0.8,1c0.4,0.5,0.6,1,0.6,1.6c0,0.2,0,0.3,0,0.5
			c-0.3-0.6-0.7-1.2-1-1.8l-0.8-1.5l-0.5-0.2c-1.2-0.5-2.3-0.5-3.2-0.6c-0.2,0-0.3,0-0.5,0l-1.3-0.1l-0.4,1.2c0,0.1-0.1,0.3-0.1,0.4
			c-0.1,0.4-0.3,0.8-0.3,1.3c0,0.7,0.1,1.3,0.3,1.8c1.1,3.4,1.5,6.9,1.7,9.9c0,0.6,0.1,1.2,0.1,1.8c0.1,1.8,0.3,3.7,0.3,5.5
			c0,1.1,0,2.3-0.1,3.5l0,0.9c0,0.8-0.1,1.5-0.1,2.3c-0.1,1.5-0.2,3-0.2,4.6c0,1.1,0.2,2.1,0.3,3.1c0.1,0.7,0.2,1.4,0.2,2
			c0.2,2.8,1.3,5.5,3.2,8.3c1,1.4,2.2,2.7,3.6,4c1.7,1.5,3.1,3.2,4.3,4.6c1.1,1.4,2.2,2.9,3.3,4.3c0.5,0.6,0.9,1.2,1.4,1.9
			c0.5,1.4,1.3,2.6,2.1,3.7c0.6,0.9,1.2,1.6,1.6,2.6h1.8c-0.1,0-0.2-0.4-0.3-0.6c-1-2.3-3-4-3.8-6.4c0-0.1-0.1-0.1-0.1-0.2
			c-1.6-2.1-3.1-4.2-4.8-6.3c-1.4-1.7-2.8-3.4-4.4-4.8c-1.2-1.1-2.4-2.4-3.4-3.7c-1.6-2.2-2.7-4.6-2.9-7.4c-0.1-1.7-0.5-3.3-0.6-5
			c0-2.3,0.2-4.5,0.3-6.8c0.1-1.5,0.2-3.1,0.1-4.6c-0.1-2.5-0.3-5-0.5-7.4c-0.2-3.5-0.6-7-1.7-10.3c-0.1-0.4-0.3-0.9-0.2-1.3
			c0-0.4,0.2-0.8,0.4-1.3c1.1,0.1,2.1,0,3.2,0.5c0.6,1,1.1,2.1,1.7,3.2c0.3,0.6,0.6,1.2,1,1.7c0.2,0.2,0.6,0.3,0.9,0.5
			c0.2-0.3,0.4-0.6,0.6-0.8c0.4-1,0.3-2,0.3-3c0-1-0.4-1.8-1-2.6c-1.5-1.8-3-3.6-4.3-5.5c-2-2.8-3.8-5.7-4.7-9.1
			c-0.4-1.4-0.9-2.8-1.6-4.1c-0.7-1.5-1.6-2.9-3.4-3.4c-0.8-0.2-1.5-0.6-2.2-1c-0.6-0.3-1.3-0.7-1.9-1.1c-1-0.8-2.2-1.5-3.4-2
			c-1.1-0.5-2.2-1.1-3.3-1.6c-1.1-0.6-2.2-1.2-3.3-1.7c-1.9-0.8-3.7-1.2-5.5,0.3c-1.1,0.9-2.4,0.9-3.8,0.6c-1.1-0.2-2.1-0.6-3-1.2
			c-1.5-1-3.1-1.9-4.6-2.9c-2.4-1.5-4.8-3.1-7.3-4.4c-1.2-0.6-2.5-1.1-3.8-1.6c-0.8-0.3-1.6,0-2.1,0.7c-0.2,0.2-0.3,0.5-0.5,0.7
			c-0.9,1.7-1.9,3.3-3.7,4.2c-0.1,0.1-0.2,0.2-0.3,0.3c-1.1,1-1.5,2.3-1.2,3.8c0.1,0.4,0.2,0.7,0.2,1.1c-0.1,1.6,0,3.2-0.3,4.8
			c-0.3,1.9,0.1,3.6,1.1,5.2c0.6,1.1,1.5,2,2.4,2.8c2.2,2.2,4.3,4.4,6.4,6.6c0.2,0.2,0.4,0.4,0.6,0.7c1.3,2.2,2.6,4.4,3.8,6.6
			c0.6,1.2,1.1,2.5,1,4c-0.3,0.4-0.6,0.8-0.9,1.2c-1.2,1.4-1.4,3-1,4.7c0.1,0.5,0.3,1,0.6,1.4c0.7,1.3,1.1,2.7,0.9,4.2
			c0,0.3,0,0.6,0,0.9c0.1,3.1,0,6.1-1,9.1c-0.3,0.9-0.4,1.9-0.6,2.8c-0.2,1-0.4,2-0.6,3c-0.6,2.8-1.3,5.5-1.4,8.4
			c-0.1,1.6-0.3,3.2-0.6,4.8c-0.4,2.1-1.3,3.9-3.1,5.1c-0.7,0.5-1.2,1-1.5,1.8c-0.3,0.9-1,1.4-1.8,1.9c-0.8,0.4-1.5,0.9-2,1.8
			c0.1,1.1-0.3,2.3-0.8,3.4c-0.3,0.6-0.4,1.2-0.7,1.8c-0.2,0.6-0.3,1.1,0,1.9c1.1,0.7,1.4,1.9,1.6,3.3c0.1,0.6,0.2,1.3,0.4,2
			c0,0.1,0.1,0.5,0.1,0.5h1.6C117.8,137,117.8,136.4,117.7,136.2z"/>
		<path fill="#00B4B4" d="M114.5,137H87.9c-2.7,0-4.9-2.3-4.9-5V17.2c0-2.7,2.2-5.2,4.9-5.2h114.8c2.7,0,5.3,2.5,5.3,5.2V132
			c0,2.7-2.6,5-5.3,5h-8.1c0.2,0,0.4,0.5,0.6,0.8l0.1,0c0.6,0.8,1.3,1.2,2.1,2.2h5.3c4.5,0,8.3-3.5,8.3-8V17.2
			c0-4.5-3.8-8.2-8.3-8.2H87.9c-4.5,0-7.9,3.7-7.9,8.2V132c0,4.5,3.4,8,7.9,8h26.6C114.7,139,114.7,138,114.5,137z"/>
		<path fill="#00B4B4" d="M117.8,140h75.3c-0.1,0-0.2-0.1-0.2-0.2l-0.1-0.1c-0.7-0.8-1.4-1.6-1.9-2.7c0,0,0,0,0,0h-73
			C118,138,117.9,139,117.8,140z"/>
		<path fill="#00B4B4" d="M116.2,137h-1.6c0.2,1,0.2,2-0.1,3h1.7C116.3,139,116.4,138,116.2,137z"/>
		<path fill="#00B4B4" d="M195.2,137.8c-0.2-0.3-0.4-0.8-0.6-0.8h-2c0.4,1,0.9,1.2,1.4,1.8c0.4,0.4,0.8,1.2,1.1,1.2h2.2
			C196.6,139,196,138.5,195.2,137.8L195.2,137.8z"/>
		<path fill="#00B4B4" d="M192.6,137h-1.8c0,0,0,0,0,0c0.5,1.1,1.2,2,1.9,2.8l0.1,0c0.1,0.1,0.2,0.2,0.2,0.2h2.2
			c-0.4,0-0.8-0.7-1.1-1.2C193.6,138.2,193,138,192.6,137z"/>
		<path fill="#00B4B4" d="M117.8,137h-1.6c0.2,1,0.1,2-0.1,3h1.6C117.9,139,118,138,117.8,137z"/>
	</g>
	<g>
		<path fill="#FFFFFF" d="M171,95.7l0-0.9c0.1-1.2,0.1-2.4,0.1-3.5c-0.1-1.8-0.2-3.7-0.3-5.5c0-0.6-0.1-1.2-0.1-1.8
			c-0.2-3-0.6-6.5-1.7-9.9c-0.2-0.5-0.3-1.2-0.3-1.8c0-0.5,0.2-1,0.3-1.3c0-0.1,0.1-0.2,0.1-0.4l0.4-1.2l1.3,0.1c0.2,0,0.3,0,0.5,0
			c1,0,2,0.1,3.2,0.6l0.5,0.2l0.8,1.5c0.3,0.6,0.7,1.2,1,1.8c0-0.2,0-0.3,0-0.5c0-0.5-0.2-1-0.6-1.6l-0.8-1c-1.2-1.5-2.4-3-3.6-4.6
			c-1.7-2.4-3.9-5.7-4.9-9.6c-0.4-1.4-0.9-2.7-1.5-3.8c-0.7-1.5-1.4-2.2-2.4-2.6c-0.8-0.2-1.5-0.6-2.1-0.9l-0.6-0.3
			c-0.6-0.3-1.3-0.7-1.9-1.2c-0.8-0.7-1.8-1.3-3-1.8c-0.9-0.4-1.8-0.9-2.7-1.3l-0.7-0.4c-0.4-0.2-0.8-0.4-1.2-0.6
			c-0.7-0.4-1.4-0.7-2-1c-0.7-0.3-1.5-0.6-2.3-0.6c-0.6,0-1.1,0.2-1.6,0.6c-0.9,0.8-2,1.2-3.3,1.2c-0.6,0-1.2-0.1-1.8-0.2
			c-1.4-0.3-2.6-0.8-3.6-1.4c-0.7-0.5-1.5-0.9-2.2-1.4c-0.8-0.5-1.6-1-2.4-1.5l-0.7-0.5c-2.1-1.4-4.2-2.8-6.4-3.9
			c-1.1-0.6-2.3-1-3.6-1.5l-0.1,0c-0.1,0-0.1,0-0.1,0c0,0-0.1,0.1-0.2,0.2c-0.1,0.2-0.2,0.4-0.3,0.5c-0.9,1.6-2.1,3.6-4.2,4.8
			l-0.1,0.1c-0.7,0.7-0.9,1.4-0.7,2.2l0.1,0.2c0.1,0.4,0.2,0.8,0.2,1.3c0,0.4,0,0.7,0,1.1c0,1.3-0.1,2.6-0.3,3.9
			c-0.2,1.4,0,2.7,0.9,4.1c0.5,0.9,1.3,1.6,2.1,2.5c1.7,1.7,3.4,3.5,5.1,5.2l1.4,1.4c0.2,0.2,0.5,0.5,0.7,0.9c0.3,0.5,0.6,1,0.9,1.5
			c1,1.7,2,3.4,2.9,5.2c0.7,1.2,1.4,2.9,1.1,5l-0.1,0.5l-0.6,0.7c-0.2,0.3-0.5,0.6-0.7,0.9c-0.8,0.9-1,1.9-0.6,3.2
			c0.1,0.4,0.2,0.8,0.4,1c1,1.7,1.3,3.5,1.1,5.2c0,0.1,0,0.2,0,0.3c0,0.1,0,0.2,0,0.3c0.1,2.6,0.1,6.1-1.1,9.6
			c-0.2,0.5-0.3,1.1-0.4,1.7c0,0.3-0.1,0.6-0.2,0.9c-0.1,0.4-0.1,0.8-0.2,1.2c-0.1,0.6-0.2,1.2-0.4,1.9c-0.1,0.5-0.2,0.9-0.3,1.4
			c-0.3,1.5-0.6,2.9-0.8,4.3l44.3-6.1c0-0.7,0.1-1.5,0.1-2.2C170.9,97.3,171,96.5,171,95.7z"/>
		<g>
			<path fill="#FFFFFF" d="M189.2,134.4c-0.8-1.1-1.6-2.3-2.1-3.7c-0.5-0.6-0.9-1.3-1.4-1.9c-1.1-1.4-2.2-2.9-3.3-4.3
				c-1.2-1.4-2.6-3.1-4.3-4.6c-1.4-1.2-2.6-2.6-3.6-4c-2-2.7-3-5.4-3.2-8.3c0-0.1,0-0.2,0-0.4l-45.7,6.3c0,0,0,0.1,0,0.1
				c-0.5,2.7-1.8,4.7-3.7,6.1c-0.5,0.4-0.8,0.7-0.9,1.1c-0.4,1.1-1.3,2-2.5,2.7c-0.5,0.2-0.9,0.5-1.2,0.9c-0.1,1.3-0.5,2.6-0.9,3.6
				c-0.1,0.4-0.3,0.7-0.4,1.2c-0.1,0.2-0.1,0.4-0.2,0.6c-0.1,0.2-0.1,0.3-0.1,0.4c1.2,1.1,1.6,2.7,1.8,4c0.1,0.5,0.2,1,0.3,1.6
				l0,0.3c0.1,0.3,0.1,0.8,0.1,0.8h73C190.4,136,189.9,135.3,189.2,134.4z"/>
		</g>
		<path fill="#F16232" d="M174.2,105.2c-0.1-0.9-0.3-1.8-0.3-2.6c0-0.9,0-1.9,0.1-2.8l-1.6,0.2l-1.6,0.2l-44.3,6.1l-1.7,0.2
			l-1.7,0.2c-0.1,0.6-0.1,1.2-0.2,1.8c-0.1,1.3-0.3,2.7-0.6,4.5c-0.1,0.3-0.2,0.7-0.3,1l1.7-0.2l1.7-0.2l45.7-6.3l1.6-0.2l1.6-0.2
			C174.4,106.3,174.3,105.8,174.2,105.2z"/>
		<path opacity="0.1" fill="#FFFFFF" d="M174,102.6c0-0.9,0-1.9,0.1-2.8l-1.6,0.2l-1.6,0.2l-44.3,6.1l-1.7,0.2l-1.7,0.2
			c-0.1,0.6-0.1,1.2-0.2,1.8c-0.1,1.3-0.3,2.7-0.6,4.5c-0.1,0.3-0.2,0.7-0.3,1l1.7-0.2L174,102.6z"/>
	</g>
	<g>
		<path fill="#F16232" d="M127.5,161.2c-0.4,0-0.8-0.1-1.1-0.2c-0.3-0.2-0.5-0.4-0.7-0.7c-0.2-0.3-0.3-0.7-0.3-1.1
			c0-0.4,0-0.9,0-1.5c0.1-0.4,0.2-0.8,0.3-1.3c0.1-0.4,0.3-0.8,0.6-1.2c0.2-0.5,0.6-0.9,1-1.3c0.1,0,0.2,0,0.2,0.1
			c0.1,0,0.1,0.1,0.1,0.1c0,0,0.1,0.1,0.1,0.1c0,0.1,0,0.3-0.1,0.4c-0.1,0.2-0.2,0.3-0.3,0.5c-0.2,0.5-0.4,1-0.5,1.4
			c-0.1,0.5-0.2,0.9-0.2,1.3c0,0.3,0,0.6,0,0.9c0,0.3,0.1,0.5,0.1,0.7c0.1,0.2,0.1,0.3,0.2,0.4c0.1,0.1,0.1,0.2,0.2,0.2
			s0.1,0,0.2-0.1c0.1-0.1,0.1-0.2,0.2-0.3c0.1-0.1,0.1-0.3,0.2-0.5c0.1-0.2,0.2-0.5,0.3-0.8c0.1-0.3,0.2-0.6,0.3-1
			c0.1-0.3,0.2-0.7,0.3-1c0.2-0.7,0.3-1.5,0.5-2.4c0.2-0.9,0.4-1.8,0.8-2.8c0.1-0.4,0.2-0.9,0.4-1.3c0.1-0.4,0.3-0.9,0.5-1.5
			c0.2-0.6,0.4-1.2,0.7-1.8c0-0.1,0-0.1,0.1-0.2c0.1,0,0.2-0.1,0.3-0.2c0.1-0.1,0.3-0.1,0.4-0.2c0.2-0.1,0.4-0.1,0.5-0.1
			c0.1,0,0.2,0,0.3,0s0.1,0.1,0.1,0.2c0,0.1,0,0.2,0,0.2c0,0.4,0,0.7,0,1c0,0.3,0,0.6,0,0.8c0,0.3,0,0.5,0,0.8c0,0.3,0,0.7,0,1.2
			c0,0.5-0.1,1-0.1,1.6s-0.1,1.1-0.1,1.6c0,0.5,0,1,0,1.3c0,0.2,0,0.4,0,0.5c0,0.2,0,0.3,0.1,0.5c0.1-0.4,0.3-0.8,0.5-1.2
			c0.2-0.4,0.4-0.9,0.5-1.3c0.2-0.4,0.3-0.8,0.5-1.1c0.2-0.3,0.3-0.6,0.4-0.9c0.1-0.3,0.3-0.7,0.5-1.2c0.2-0.5,0.4-0.9,0.7-1.4
			c0.2-0.5,0.4-0.9,0.6-1.3c0.2-0.4,0.3-0.7,0.4-0.8c0.1-0.1,0.2-0.2,0.3-0.3c0.2-0.1,0.3-0.2,0.5-0.2c0.2-0.1,0.4-0.1,0.5-0.1
			c0.2,0,0.3,0,0.3,0c0.1,0,0.2,0.1,0.3,0.1c0.1,0.1,0.1,0.1,0.1,0.1c0,0,0,0.1,0,0.2c0,0.1,0,0.3,0,0.5c0,0.3-0.1,0.7-0.2,1.2
			c-0.1,0.5-0.2,1.2-0.4,1.8c-0.1,0.7-0.3,1.4-0.5,2.2c-0.2,0.8-0.3,1.5-0.5,2.3c-0.2,0.8-0.3,1.5-0.4,2.1s-0.2,1.2-0.2,1.7
			c0,0.5,0,0.9,0.1,1.3c0,0.2,0.1,0.3,0.1,0.5s0.2,0.3,0.3,0.4c0.1,0.1,0.2,0.2,0.4,0.3c0.2,0.1,0.3,0.1,0.5,0
			c-0.3,0.2-0.5,0.3-0.8,0.4s-0.5,0.1-0.8,0.1c-0.3,0-0.5,0-0.7-0.1c-0.2-0.1-0.4-0.2-0.5-0.4c-0.1-0.2-0.2-0.4-0.3-0.6
			c-0.1-0.2-0.1-0.5-0.1-0.8c0-0.3,0.1-0.7,0.2-1.3c0.1-0.6,0.3-1.3,0.4-2.1c0.2-0.8,0.4-1.6,0.6-2.4c0.2-0.8,0.4-1.6,0.6-2.3
			c0.2-0.7,0.3-1.4,0.5-1.9c0.1-0.5,0.2-0.9,0.2-1c0-0.1,0-0.3,0.1-0.4s0-0.2,0.1-0.3c-0.1,0.2-0.2,0.5-0.4,0.8
			c-0.2,0.3-0.3,0.6-0.5,1c-0.2,0.4-0.4,0.7-0.5,1.1c-0.2,0.4-0.4,0.7-0.5,1.1c-0.3,0.6-0.5,1.2-0.8,1.8s-0.5,1.2-0.7,1.7
			c-0.2,0.5-0.4,1-0.5,1.4c-0.1,0.4-0.2,0.8-0.2,1v0.2c0,0.1,0,0.1,0,0.2c0,0.1,0,0.2,0,0.2l-0.7,0.5c-0.1,0-0.2,0.1-0.3,0.1
			c-0.1,0-0.1,0-0.2,0c-0.3,0-0.4-0.1-0.6-0.4c-0.1-0.2-0.3-0.7-0.4-1.4c-0.1-0.7-0.1-1.6-0.1-2.6c0-0.5,0.1-1,0.1-1.5
			c0-0.5,0.1-1,0.1-1.5s0.1-0.9,0.1-1.3c0-0.4,0.1-0.8,0.1-1.1c0-0.2,0-0.4,0-0.6c0-0.2,0-0.3-0.1-0.5c-0.1,0.3-0.2,0.6-0.3,1
			c-0.1,0.4-0.2,0.9-0.4,1.4c-0.1,0.5-0.3,1.1-0.4,1.7c-0.1,0.6-0.3,1.1-0.4,1.7c-0.1,0.5-0.2,1-0.4,1.5c-0.1,0.5-0.2,0.8-0.3,1.1
			c-0.1,0.4-0.2,0.9-0.3,1.5c-0.1,0.6-0.2,1.1-0.4,1.6c-0.2,0.5-0.4,0.9-0.6,1.3C128.2,161,127.9,161.1,127.5,161.2z"/>
		<path fill="#F16232" d="M144.3,155.5c-0.1,0.4-0.3,0.8-0.4,1.2c-0.2,0.4-0.4,0.7-0.7,0.9c-0.3,0.3-0.5,0.5-0.9,0.6
			c-0.3,0.1-0.7,0.2-1.1,0.2c-0.5,0-0.8-0.1-1.1-0.3c-0.3-0.2-0.5-0.4-0.6-0.7c-0.1-0.3-0.2-0.6-0.2-0.9c0-0.3,0-0.7,0-1
			c0-0.2,0-0.4,0.1-0.7s0.1-0.5,0.2-0.8c0.1-0.3,0.2-0.5,0.3-0.8c0.1-0.3,0.3-0.5,0.5-0.7c0.1-0.2,0.2-0.4,0.3-0.5
			c0.1-0.1,0.3-0.3,0.5-0.4c0.2-0.1,0.4-0.2,0.6-0.2c0.2,0,0.4-0.1,0.6-0.1c0,0,0.1,0,0.1,0c0,0,0.1,0,0.1,0c0.1,0,0.3,0.1,0.5,0.2
			c0.2,0.1,0.4,0.2,0.6,0.4c0.2,0.2,0.4,0.4,0.5,0.7c0.1,0.3,0.2,0.7,0.2,1.1c0,0.1,0,0.2,0,0.3c0,0.1,0,0.2,0,0.3
			c0.3-0.1,0.5-0.2,0.8-0.4c0.3-0.1,0.5-0.3,0.8-0.5c0.3-0.2,0.5-0.3,0.7-0.5c0.2-0.2,0.4-0.3,0.5-0.4c0.1-0.1,0.2-0.2,0.3-0.2
			c0.1,0,0.1,0,0.2,0.1c0,0.1,0,0.1,0,0.2c0,0.1-0.1,0.2-0.2,0.3c-0.1,0.1-0.2,0.2-0.4,0.4c-0.2,0.2-0.5,0.4-0.8,0.6
			c-0.3,0.2-0.6,0.5-1,0.7C145,155.2,144.7,155.3,144.3,155.5z M140.5,155.8c0,0.2,0,0.4,0,0.6c0,0.2,0.1,0.4,0.1,0.5
			c0.1,0.1,0.2,0.3,0.3,0.4c0.1,0.1,0.3,0.1,0.4,0.1c0.2,0,0.4,0,0.5-0.1c0.2-0.1,0.3-0.2,0.4-0.4c0.1-0.1,0.2-0.3,0.4-0.5
			c0.1-0.2,0.2-0.4,0.3-0.6c-0.1,0-0.2,0-0.2,0c-0.1,0-0.2,0-0.2,0c-0.4,0-0.8-0.1-1.1-0.4c-0.3-0.2-0.5-0.6-0.7-0.9
			c-0.1,0.2-0.1,0.5-0.2,0.7C140.5,155.4,140.5,155.6,140.5,155.8z M141.6,152.9c0,0.1,0,0.2,0,0.3c0,0.2,0,0.4,0,0.6
			c0,0.2,0.1,0.4,0.2,0.5c0.1,0.2,0.2,0.3,0.4,0.4c0.2,0.1,0.5,0.2,0.8,0.2c0.1,0,0.1,0,0.2,0c0.1,0,0.1,0,0.2,0
			c0-0.1,0.1-0.3,0.1-0.4c0-0.1,0-0.2,0-0.3c0-0.2,0-0.4,0-0.6c0-0.2-0.1-0.4-0.1-0.6c-0.1-0.2-0.1-0.3-0.2-0.4
			c-0.1-0.1-0.2-0.2-0.3-0.2c-0.2,0-0.4,0.1-0.6,0.2C141.9,152.6,141.7,152.7,141.6,152.9z"/>
		<path fill="#F16232" d="M151,155.5c-0.1,0.4-0.3,0.8-0.4,1.2c-0.2,0.4-0.4,0.7-0.7,0.9c-0.3,0.3-0.5,0.5-0.9,0.6
			c-0.3,0.1-0.7,0.2-1.1,0.2c-0.5,0-0.8-0.1-1.1-0.3c-0.3-0.2-0.5-0.4-0.6-0.7c-0.1-0.3-0.2-0.6-0.2-0.9c0-0.3,0-0.7,0-1
			c0-0.2,0-0.4,0.1-0.7s0.1-0.5,0.2-0.8c0.1-0.3,0.2-0.5,0.3-0.8c0.1-0.3,0.3-0.5,0.5-0.7c0.1-0.2,0.2-0.4,0.3-0.5
			c0.1-0.1,0.3-0.3,0.5-0.4c0.2-0.1,0.4-0.2,0.6-0.2c0.2,0,0.4-0.1,0.6-0.1c0,0,0.1,0,0.1,0c0,0,0.1,0,0.1,0c0.1,0,0.3,0.1,0.5,0.2
			c0.2,0.1,0.4,0.2,0.6,0.4c0.2,0.2,0.4,0.4,0.5,0.7c0.1,0.3,0.2,0.7,0.2,1.1c0,0.1,0,0.2,0,0.3c0,0.1,0,0.2,0,0.3
			c0.3-0.1,0.5-0.2,0.8-0.4c0.3-0.1,0.5-0.3,0.8-0.5c0.3-0.2,0.5-0.3,0.7-0.5c0.2-0.2,0.4-0.3,0.5-0.4c0.1-0.1,0.2-0.2,0.3-0.2
			c0.1,0,0.1,0,0.2,0.1c0,0.1,0,0.1,0,0.2c0,0.1-0.1,0.2-0.2,0.3c-0.1,0.1-0.2,0.2-0.4,0.4c-0.2,0.2-0.5,0.4-0.8,0.6
			c-0.3,0.2-0.6,0.5-1,0.7C151.7,155.2,151.3,155.3,151,155.5z M147.1,155.8c0,0.2,0,0.4,0,0.6c0,0.2,0.1,0.4,0.1,0.5
			c0.1,0.1,0.2,0.3,0.3,0.4c0.1,0.1,0.3,0.1,0.4,0.1c0.2,0,0.4,0,0.5-0.1c0.2-0.1,0.3-0.2,0.4-0.4c0.1-0.1,0.2-0.3,0.4-0.5
			c0.1-0.2,0.2-0.4,0.3-0.6c-0.1,0-0.2,0-0.2,0c-0.1,0-0.2,0-0.2,0c-0.4,0-0.8-0.1-1.1-0.4c-0.3-0.2-0.5-0.6-0.7-0.9
			c-0.1,0.2-0.1,0.5-0.2,0.7C147.2,155.4,147.1,155.6,147.1,155.8z M148.2,152.9c0,0.1,0,0.2,0,0.3c0,0.2,0,0.4,0,0.6
			c0,0.2,0.1,0.4,0.2,0.5c0.1,0.2,0.2,0.3,0.4,0.4c0.2,0.1,0.5,0.2,0.8,0.2c0.1,0,0.1,0,0.2,0c0.1,0,0.1,0,0.2,0
			c0-0.1,0.1-0.3,0.1-0.4c0-0.1,0-0.2,0-0.3c0-0.2,0-0.4,0-0.6c0-0.2-0.1-0.4-0.1-0.6c-0.1-0.2-0.1-0.3-0.2-0.4
			c-0.1-0.1-0.2-0.2-0.3-0.2c-0.2,0-0.4,0.1-0.6,0.2C148.5,152.6,148.4,152.7,148.2,152.9z"/>
		<path fill="#F16232" d="M155.1,157.5c0.1,0,0.2,0.1,0.3,0.1c0.1,0,0.2,0,0.3-0.1c0.1,0,0.2-0.1,0.3-0.2c0.1-0.1,0.2-0.2,0.2-0.3
			c0-0.1,0-0.3,0-0.5c0-0.2-0.1-0.5-0.2-0.7c-0.1-0.3-0.2-0.5-0.3-0.8c-0.1-0.3-0.2-0.5-0.3-0.7c-0.1-0.2-0.1-0.3-0.2-0.5
			c0-0.1-0.1-0.2-0.1-0.4c0-0.1-0.1-0.2-0.1-0.2c-0.1,0.1-0.2,0.2-0.3,0.4c-0.1,0.2-0.3,0.4-0.4,0.6c-0.2,0.2-0.3,0.4-0.5,0.6
			c-0.1,0.2-0.2,0.3-0.3,0.4c-0.1,0.1-0.2,0.2-0.3,0.2c-0.1,0-0.2,0-0.2,0c-0.1,0-0.1-0.1-0.1-0.2c0-0.1,0-0.2,0.1-0.3
			c0.1-0.1,0.2-0.2,0.3-0.4c0.1-0.2,0.3-0.4,0.4-0.6c0.1-0.2,0.3-0.4,0.4-0.5c0.1-0.2,0.2-0.3,0.2-0.3c0-0.1,0-0.2-0.1-0.3
			c-0.1-0.1-0.1-0.3,0-0.5c0-0.2,0.1-0.3,0.3-0.5c0.2-0.2,0.3-0.4,0.5-0.6c0.2-0.2,0.4-0.3,0.6-0.4c0.2-0.1,0.4-0.1,0.6,0
			c0.1,0.1,0.3,0.2,0.3,0.3c0.1,0.1,0.1,0.2,0.1,0.3c0,0.1-0.1,0.1-0.1,0.2c0,0.1-0.1,0.2-0.2,0.3c-0.1,0.1-0.2,0.3-0.4,0.5
			c0,0.3,0.1,0.5,0.1,0.7c0.1,0.2,0.1,0.4,0.2,0.5c0.1,0.2,0.1,0.4,0.2,0.5c0.1,0.2,0.2,0.4,0.3,0.6c0.1,0.2,0.2,0.4,0.3,0.6
			c0.1,0.2,0.2,0.4,0.2,0.6c0.1,0.2,0.1,0.3,0,0.4c0,0.2-0.1,0.4-0.3,0.7c-0.2,0.3-0.4,0.5-0.6,0.8c-0.2,0.2-0.5,0.5-0.8,0.6
			c-0.3,0.2-0.6,0.3-0.9,0.3c-0.2,0-0.5-0.1-0.7-0.2c-0.2-0.1-0.4-0.3-0.5-0.5c-0.1-0.2-0.3-0.4-0.3-0.6c-0.1-0.2-0.1-0.3,0-0.4
			c0.1-0.1,0.1-0.2,0.2-0.3c0.1-0.1,0.1-0.2,0.2-0.3c0,0,0.1-0.1,0.2-0.1c0.1,0,0.1-0.1,0.2-0.1c0.1,0,0.2-0.1,0.3-0.1
			c0.1,0.3,0.2,0.6,0.3,0.8c0.1,0.2,0.2,0.3,0.2,0.5C155,157.4,155,157.5,155.1,157.5z"/>
		<path fill="#F16232" d="M166.1,154.6c-0.3,0.5-0.7,1-1.1,1.4c-0.4,0.5-0.9,0.9-1.3,1.2c-0.5,0.4-0.9,0.6-1.4,0.9
			c-0.5,0.2-1,0.3-1.4,0.3c-0.2,0-0.5-0.1-0.8-0.2c-0.3-0.1-0.5-0.3-0.8-0.5c-0.2-0.2-0.4-0.6-0.6-0.9c-0.1-0.4-0.2-0.9-0.1-1.4
			c0-0.5,0.2-0.9,0.4-1.4c0.2-0.5,0.5-1,0.9-1.4c0.3-0.4,0.7-0.8,1.2-1c0.4-0.3,0.9-0.4,1.3-0.4c0.4,0,0.7,0.1,0.9,0.3
			c0.2,0.2,0.3,0.5,0.2,0.8c0,0.3-0.1,0.7-0.3,0.9c-0.2,0.3-0.3,0.5-0.6,0.8c-0.2,0.2-0.5,0.4-0.7,0.6c-0.2,0.2-0.5,0.4-0.7,0.5
			c-0.2,0.2-0.5,0.3-0.7,0.5c-0.2,0.1-0.4,0.3-0.6,0.4c0,0.3,0.1,0.5,0.1,0.7c0.1,0.2,0.2,0.3,0.3,0.5c0.1,0.1,0.3,0.2,0.5,0.2
			c0.2,0,0.3,0.1,0.5,0.1c0.4,0,0.8-0.1,1.2-0.4c0.4-0.2,0.8-0.5,1.2-0.9c0.4-0.3,0.8-0.7,1.1-1c0.3-0.4,0.6-0.7,0.8-0.9
			c0.1-0.1,0.2-0.1,0.2-0.2c0.1,0,0.1,0,0.2,0c0,0,0.1,0.1,0.1,0.2S166.2,154.5,166.1,154.6z M161.9,152.1c-0.1,0-0.3,0.1-0.5,0.2
			c-0.2,0.1-0.4,0.3-0.5,0.6c-0.2,0.2-0.3,0.5-0.5,0.9c-0.2,0.4-0.3,0.8-0.3,1.2c0.1-0.1,0.3-0.2,0.4-0.3c0.2-0.1,0.3-0.2,0.5-0.3
			c0.5-0.4,0.8-0.7,1-1c0.2-0.3,0.3-0.5,0.3-0.7c0-0.2,0-0.4-0.1-0.5C162.1,152.2,162,152.1,161.9,152.1z"/>
	</g>
	<rect x="202" y="25" fill="#FFFFFF" width="22" height="25"/>
	<g>
		<g>
			<path fill="#F16232" d="M213.8,40.3c-0.3,0-0.6-0.1-0.8-0.4l-5.5-6c-0.1-0.1-0.1-0.3,0-0.4l0.8-0.8c0.1-0.1,0.3-0.1,0.4,0l5,5.5
				l13.6-18.5c0.1-0.1,0.3-0.2,0.4-0.1l0.9,0.7c0.1,0.1,0.2,0.3,0.1,0.4l-14,19.1C214.5,40.1,214.2,40.2,213.8,40.3
				C213.8,40.3,213.8,40.3,213.8,40.3z"/>
		</g>
		<path fill="#F16232" d="M223.1,32.6v11.8c0,0.3-0.3,0.6-0.6,0.6h-17.5c-0.3,0-0.6-0.3-0.6-0.6V26.9c0-0.3,0.3-0.6,0.6-0.6h14.3
			l1.2-1.7h-15.5c-1.2,0-2.3,1-2.3,2.3v17.5c0,1.2,1,2.3,2.3,2.3h17.5c1.2,0,2.3-1,2.3-2.3V30.3L223.1,32.6z"/>
	</g>
	<rect x="202" y="50" fill="#FFFFFF" width="22" height="25"/>
	<g>
		<g>
			<path fill="#F16232" d="M213.8,68.8c-0.3,0-0.6-0.1-0.8-0.4l-5.5-6c-0.1-0.1-0.1-0.3,0-0.4l0.8-0.8c0.1-0.1,0.3-0.1,0.4,0l5,5.5
				l13.6-18.5c0.1-0.1,0.3-0.2,0.4-0.1l0.9,0.7c0.1,0.1,0.2,0.3,0.1,0.4l-14,19.1C214.5,68.6,214.2,68.8,213.8,68.8
				C213.8,68.8,213.8,68.8,213.8,68.8z"/>
		</g>
		<path fill="#F16232" d="M223.1,61.2v11.8c0,0.3-0.3,0.6-0.6,0.6h-17.5c-0.3,0-0.6-0.3-0.6-0.6V55.4c0-0.3,0.3-0.6,0.6-0.6h14.3
			l1.2-1.7h-15.5c-1.2,0-2.3,1-2.3,2.3v17.5c0,1.2,1,2.3,2.3,2.3h17.5c1.2,0,2.3-1,2.3-2.3V58.9L223.1,61.2z"/>
	</g>
</g>
</svg>
