<?xml version="1.0" encoding="utf-8"?>
<!-- Generator: Adobe Illustrator 17.1.0, SVG Export Plug-In . SVG Version: 6.00 Build 0)  -->
<!DOCTYPE svg PUBLIC "-//W3C//DTD SVG 1.1//EN" "http://www.w3.org/Graphics/SVG/1.1/DTD/svg11.dtd">
<svg version="1.1" id="Layer_1" xmlns="http://www.w3.org/2000/svg" xmlns:xlink="http://www.w3.org/1999/xlink" x="0px" y="0px"
	 viewBox="0 0 100 100" enable-background="new 0 0 100 100" xml:space="preserve">
<g>
	<path fill="#00B5B5" d="M15,38.3c-2.8,0-5,2.2-5,5c0,2.8,2.2,5,5,5s5-2.2,5-5C20,40.6,17.8,38.3,15,38.3z"/>
	<path fill="#00B5B5" d="M60,33.3c-11.9,0-21.7,9.7-21.7,21.7S48.1,76.7,60,76.7S81.7,66.9,81.7,55S71.9,33.3,60,33.3z M60,70
		c-8.3,0-15-6.7-15-15s6.7-15,15-15s15,6.7,15,15S68.3,70,60,70z"/>
	<path fill="#00B5B5" d="M89.8,25h-7.2l-3.9-6.7c-1.6-2.4-3.9-4.5-6.8-6.4l-0.4-0.3h-22l-0.4,0.3c-2.9,1.8-5.1,3.9-6.7,6.2L35.9,25
		H24.3l0-1.6c0-3.1-2.7-6.7-6-6.7H15c-3,0-6.5,3.6-6.5,6.6l-0.1,1.8c-5.4,0.6-8.4,4-8.4,9.7v43.7c0,6.1,3.6,9.6,10.3,9.8h79.4l0,0
		c6.6-0.2,10.3-3.7,10.3-9.8V33.3C100,27.6,96.9,25,89.8,25z M15,51.7c-4.6,0-8.3-3.7-8.3-8.3S10.4,35,15,35s8.3,3.7,8.3,8.3
		S19.6,51.7,15,51.7z M60,80c-13.8,0-25-11.2-25-25s11.2-25,25-25s25,11.2,25,25S73.8,80,60,80z"/>
</g>
</svg>
