<?xml version="1.0" encoding="utf-8"?>
<!-- Generator: Adobe Illustrator 17.1.0, SVG Export Plug-In . SVG Version: 6.00 Build 0)  -->
<!DOCTYPE svg PUBLIC "-//W3C//DTD SVG 1.1//EN" "http://www.w3.org/Graphics/SVG/1.1/DTD/svg11.dtd">
<svg version="1.1" id="Layer_1" xmlns="http://www.w3.org/2000/svg" xmlns:xlink="http://www.w3.org/1999/xlink" x="0px" y="0px"
	 viewBox="0 0 940.3 290.4" enable-background="new 0 0 940.3 290.4" xml:space="preserve">
<rect x="-211.1" y="-419.4" fill="none" width="723" height="234"/>
<text transform="matrix(1 0 0 1 -211.0634 -368.2622)" font-family="'Pacifico'" font-size="72">wagwag</text>
<rect x="-501.3" y="-16.2" fill="none" width="208" height="57"/>
<text transform="matrix(1 0 0 1 -501.3458 34.9382)" font-family="'OstrichSans-Medium'" font-size="72">wagw</text>
<path fill="#010101" d="M-556.5,23.9c-2.1-3-3-8.2-2.7-11.2c0.1-0.7,0.5-1.3,1-1.7c0.9-0.6,1.9-0.5,4,0.2c-0.9-3.8-1-8.2,0-11.2
	c0.4-1.2,1.6-1.8,2.8-1.4c1.2,0.4,1.8,1.6,1.4,2.8c-1,3.2-0.4,8.7,1.3,12.1c0.4,0.8,0.3,1.8-0.3,2.5c-1,1.2-2.1,0.9-5,0
	c-0.2-0.1-0.5-0.1-0.7-0.2c0.3,2,0.9,4.3,1.9,5.7c0.7,1,0.4,2.4-0.6,3.1c-0.4,0.3-0.8,0.4-1.3,0.4C-555.3,24.9-556,24.6-556.5,23.9z
	"/>
<path fill="#010101" d="M-554.5,35.4c-1-1.4-1.2-3.2-0.6-4.8c1-2.6,3.2-4.1,6.3-4.1h3.4c0.1,0,0.2,0,0.2-0.1c-1-2.7-1-7.4,1.3-10.7
	c1.4-2,4.3-4.2,9.7-3.4c1.2,0.2,2.1,1.3,1.9,2.5c-0.2,1.2-1.3,2.1-2.5,1.9c-2.6-0.4-4.4,0.1-5.5,1.6c-1.6,2.2-1.2,5.7-0.7,6.8
	c0.6,1.1,0.5,2.3-0.2,3.4c-0.9,1.4-2.6,2.4-4.4,2.4h-3.4c-1.5,0-1.9,0.6-2.1,1.2c-0.1,0.3,0,0.5,0.1,0.6c0.1,0.1,0.3,0.3,0.6,0.3h29
	c5.6,0,9.3-2.4,9.9-6.5c0.5-3.2-1.2-6.2-3.9-7.1c-1.2-0.4-1.8-1.6-1.5-2.8s1.6-1.8,2.8-1.5c4.8,1.5,7.7,6.7,6.9,12
	c-0.8,4.9-4.9,10.2-14.3,10.2h-29C-551.9,37.7-553.5,36.8-554.5,35.4z"/>
<path fill="#010101" d="M-571,35.4c-1-1.4-1.2-3.2-0.6-4.8c1-2.6,3.2-4.1,6.3-4.1l0.2,0c0.9,0,1.2-0.2,1.2-0.2
	c0.3-0.7-0.4-3.4-0.9-5.4c-1.3-5.2-3.3-13-0.6-21.6c0.4-1.2,1.6-1.8,2.8-1.4c1.2,0.4,1.8,1.6,1.4,2.8c-2.4,7.4-0.6,14.2,0.6,19.1
	c1,3.9,1.8,7.1,0.1,9.3c-1,1.3-2.5,1.9-4.7,1.9h-0.3c-1.5,0-1.9,0.6-2.1,1.2c-0.1,0.3,0,0.5,0.1,0.6c0.1,0.1,0.3,0.3,0.6,0.3h5.7
	c1.2,0,2.2,1,2.2,2.2s-1,2.2-2.2,2.2h-5.7C-568.4,37.7-570,36.8-571,35.4z"/>
<path fill="#010101" d="M-570-14.3c0.5,4.2,3.4,9,7.7,9.4c3,0.3,7.3-1.3,10.6-10.9c0.4-1.2-0.2-2.4-1.4-2.8
	c-1.2-0.4-2.4,0.2-2.8,1.4c-2.1,6.1-4.5,8.1-5.9,7.9c-1.7-0.2-3.4-2.7-3.8-5.5c-1.1-8.6,0.2-14.4,3.7-17.4c4-3.4,11-3.5,21.5-0.4
	c3.2,0.9,6.1,1.2,8.3,1.3c-0.4,0.4-0.7,1-0.7,1.6c0,1.3,1,2.3,2.3,2.3c0.6,0,1.2-0.3,1.6-0.7c0,0.1,0,0.1,0,0.2
	c-0.3,1.7-1.2,3.1-2.3,3.6l-0.3,0.1c-4.5,2-12.9,5.8-14.4,11.8c-0.9,3.8,2.1,6.7,5.9,10.3c5.8,5.5,13.8,13.1,14.6,28.7
	c0.1,1.2,1,2.1,2.2,2.1c0,0,0.1,0,0.1,0c1.2-0.1,2.2-1.1,2.1-2.3c-0.9-17.4-10-26-16-31.7c-2.6-2.5-4.9-4.7-4.6-6
	c0.9-3.8,8.6-7.3,11.9-8.8l0.3-0.1c2.5-1.1,4.3-3.7,4.9-6.9c0.6-3-0.1-5.8-1.7-7.5c-1-1-2.3-1-4.6-1.2c-2.2-0.1-5.2-0.3-8.4-1.2
	c-4.4-1.3-17.9-5.3-25.7,1.3C-569.5-31.6-571.3-24.4-570-14.3z"/>
<path fill="#010101" d="M-571.4-37.3l-7.9-8.8c-0.8-0.9-0.7-2.3,0.2-3.1c0.9-0.8,2.3-0.7,3.1,0.2l7.9,8.8c0.8,0.9,0.7,2.3-0.2,3.1
	c-0.4,0.4-1,0.6-1.5,0.6C-570.3-36.6-570.9-36.8-571.4-37.3z"/>
<path fill="#010101" d="M-574.2-31.2l-10.1-2.8c-1.2-0.3-1.9-1.6-1.6-2.7c0.3-1.2,1.6-1.9,2.7-1.6l10.1,2.8c1.2,0.3,1.9,1.6,1.6,2.7
	c-0.3,1-1.2,1.6-2.1,1.6C-573.8-31.1-574.1-31.2-574.2-31.2z"/>
<path fill="#010101" d="M-566.5-42.3l-1.5-10.2c-0.2-1.2,0.7-2.4,1.9-2.5c1.2-0.2,2.4,0.7,2.5,1.9l1.5,10.2c0.2,1.2-0.7,2.4-1.9,2.5
	c-0.1,0-0.2,0-0.3,0C-565.4-40.4-566.4-41.2-566.5-42.3z"/>
<circle fill="#010101" cx="-547.3" cy="-27.7" r="2.3"/>
<g>
	<path fill="#662D91" d="M227.1-639.1c-0.4,0-0.9-0.1-1.3-0.4c-1-0.7-1.3-2.1-0.6-3.1c0.9-1.4,1.6-3.7,1.9-5.7
		c-0.3,0.1-0.5,0.2-0.7,0.2c-2.9,0.9-4,1.2-5,0c-0.6-0.7-0.7-1.7-0.3-2.5c1.7-3.4,2.3-8.9,1.3-12.1c-0.4-1.2,0.3-2.4,1.4-2.8
		c1.2-0.4,2.4,0.3,2.8,1.4c1,3.1,0.9,7.4,0,11.2c2.2-0.7,3.1-0.8,4-0.2c0.6,0.4,0.9,1,1,1.7c0.3,3-0.6,8.2-2.7,11.2
		C228.5-639.4,227.8-639.1,227.1-639.1z"/>
	<path fill="#662D91" d="M222.6-626.3h-29c-9.4,0-13.6-5.3-14.3-10.2c-0.8-5.3,2.2-10.5,6.9-12c1.2-0.4,2.4,0.3,2.8,1.5
		c0.4,1.2-0.3,2.4-1.5,2.8c-2.7,0.9-4.4,3.9-3.9,7.1c0.6,4,4.3,6.5,9.9,6.5h29c0.3,0,0.5-0.2,0.6-0.3c0.1-0.1,0.2-0.4,0.1-0.6
		c-0.2-0.6-0.6-1.2-2.1-1.2h-3.4c-1.7,0-3.5-1-4.4-2.4c-0.7-1.1-0.7-2.3-0.2-3.4c0.5-1,0.9-4.6-0.7-6.8c-1.1-1.5-2.8-2-5.5-1.6
		c-1.2,0.2-2.4-0.7-2.5-1.9c-0.2-1.2,0.7-2.4,1.9-2.5c5.4-0.8,8.3,1.4,9.7,3.4c2.4,3.3,2.3,8,1.3,10.7c0.1,0,0.2,0.1,0.2,0.1h3.4
		c3,0,5.3,1.4,6.3,4.1c0.6,1.6,0.4,3.4-0.6,4.8C225.9-627.2,224.3-626.3,222.6-626.3z"/>
	<path fill="#662D91" d="M239.1-626.3h-5.7c-1.2,0-2.2-1-2.2-2.2c0-1.2,1-2.2,2.2-2.2h5.7c0.3,0,0.5-0.2,0.6-0.3
		c0.1-0.1,0.2-0.4,0.1-0.6c-0.2-0.6-0.6-1.2-2.1-1.2h-0.3c-2.2,0-3.7-0.7-4.7-1.9c-1.7-2.2-0.9-5.3,0.1-9.3c1.3-4.9,3-11.7,0.6-19.1
		c-0.4-1.2,0.3-2.4,1.4-2.8c1.2-0.4,2.4,0.3,2.8,1.4c2.8,8.6,0.8,16.5-0.6,21.6c-0.5,2-1.2,4.8-0.9,5.4c0,0,0.3,0.2,1.2,0.2l0.2,0
		c3,0,5.3,1.4,6.3,4.1c0.6,1.6,0.4,3.4-0.6,4.8C242.4-627.2,240.8-626.3,239.1-626.3z"/>
	<path fill="#662D91" d="M237.2-699.7c-7.7-6.6-21.2-2.6-25.7-1.3c-3.3,1-6.3,1.1-8.4,1.2c-2.3,0.1-3.6,0.2-4.6,1.2
		c-1.7,1.7-2.3,4.5-1.7,7.5c0.6,3.2,2.4,5.7,4.9,6.9l0.3,0.1c3.3,1.5,10.9,4.9,11.9,8.8c0.3,1.3-2,3.5-4.6,6
		c-6,5.7-15.1,14.3-16,31.7c-0.1,1.2,0.9,2.3,2.1,2.3c0,0,0.1,0,0.1,0c1.2,0,2.2-0.9,2.2-2.1c0.8-15.6,8.8-23.2,14.6-28.7
		c3.8-3.6,6.8-6.4,5.9-10.3c-1.5-6-9.8-9.7-14.4-11.8l-0.3-0.1c-1.1-0.5-2-1.9-2.3-3.6c0-0.1,0-0.1,0-0.2c0.4,0.4,1,0.7,1.6,0.7
		c1.3,0,2.3-1.1,2.3-2.3c0-0.6-0.3-1.2-0.7-1.6c2.2-0.1,5.1-0.4,8.3-1.3c10.5-3.1,17.5-2.9,21.5,0.4c3.5,3,4.8,8.9,3.7,17.4
		c-0.3,2.8-2.1,5.3-3.8,5.5c-1.5,0.1-3.8-1.8-5.9-7.9c-0.4-1.2-1.7-1.8-2.8-1.4c-1.2,0.4-1.8,1.7-1.4,2.8
		c3.3,9.6,7.6,11.2,10.6,10.9c4.3-0.4,7.2-5.2,7.7-9.4C243.7-688.4,241.9-695.6,237.2-699.7z"/>
	<path fill="#662D91" d="M242.1-700.6c-0.5,0-1.1-0.2-1.5-0.6c-0.9-0.8-1-2.2-0.2-3.1l7.9-8.8c0.8-0.9,2.2-1,3.1-0.2
		c0.9,0.8,1,2.2,0.2,3.1l-7.9,8.8C243.4-700.8,242.7-700.6,242.1-700.6z"/>
	<path fill="#662D91" d="M246.1-695.1c-1,0-1.9-0.6-2.1-1.6c-0.3-1.2,0.4-2.4,1.6-2.7l10.1-2.8c1.2-0.3,2.4,0.4,2.7,1.6
		c0.3,1.2-0.4,2.4-1.6,2.7l-10.1,2.8C246.5-695.2,246.3-695.1,246.1-695.1z"/>
	<path fill="#662D91" d="M236.8-704.4c-0.1,0-0.2,0-0.3,0c-1.2-0.2-2.1-1.3-1.9-2.5l1.5-10.2c0.2-1.2,1.3-2.1,2.5-1.9
		c1.2,0.2,2.1,1.3,1.9,2.5l-1.5,10.2C238.8-705.2,237.9-704.4,236.8-704.4z"/>
	<circle fill="#662D91" cx="219.8" cy="-691.7" r="2.3"/>
</g>
<rect x="-548" y="-253.1" fill="none" width="306.9" height="62.7"/>
<text transform="matrix(1 0 0 1 -547.9826 -200.7115)" font-family="'ArialRoundedMTBold'" font-size="72">WagWa</text>
<g>
	<path fill="#010101" d="M-595.2-199.1c-2.1-3-3-8.2-2.7-11.2c0.1-0.7,0.5-1.3,1-1.7c0.9-0.6,1.9-0.5,4,0.2c-0.9-3.8-1-8.2,0-11.2
		c0.4-1.2,1.6-1.8,2.8-1.4c1.2,0.4,1.8,1.6,1.4,2.8c-1,3.2-0.4,8.7,1.3,12.1c0.4,0.8,0.3,1.8-0.3,2.5c-1,1.2-2.1,0.9-5,0
		c-0.2-0.1-0.5-0.1-0.7-0.2c0.3,2,0.9,4.3,1.9,5.7c0.7,1,0.4,2.4-0.6,3.1c-0.4,0.3-0.8,0.4-1.3,0.4
		C-594-198.2-594.7-198.5-595.2-199.1z"/>
	<path fill="#010101" d="M-593.2-187.6c-1-1.4-1.2-3.2-0.6-4.8c1-2.6,3.2-4.1,6.3-4.1h3.4c0.1,0,0.2,0,0.2-0.1
		c-1-2.7-1-7.4,1.3-10.7c1.4-2,4.3-4.2,9.7-3.4c1.2,0.2,2.1,1.3,1.9,2.5c-0.2,1.2-1.3,2.1-2.5,1.9c-2.6-0.4-4.4,0.1-5.5,1.6
		c-1.6,2.2-1.2,5.7-0.7,6.8c0.6,1.1,0.5,2.3-0.2,3.4c-0.9,1.4-2.6,2.4-4.4,2.4h-3.4c-1.5,0-1.9,0.6-2.1,1.2c-0.1,0.3,0,0.5,0.1,0.6
		c0.1,0.1,0.3,0.3,0.6,0.3h29c5.6,0,9.3-2.4,9.9-6.5c0.5-3.2-1.2-6.2-3.9-7.1c-1.2-0.4-1.8-1.6-1.5-2.8c0.4-1.2,1.6-1.8,2.8-1.5
		c4.8,1.5,7.7,6.7,6.9,12c-0.8,4.9-4.9,10.2-14.3,10.2h-29C-590.6-185.4-592.2-186.2-593.2-187.6z"/>
	<path fill="#010101" d="M-609.7-187.6c-1-1.4-1.2-3.2-0.6-4.8c1-2.6,3.2-4.1,6.3-4.1l0.2,0c0.9,0,1.2-0.2,1.2-0.2
		c0.3-0.7-0.4-3.4-0.9-5.4c-1.3-5.2-3.3-13-0.6-21.6c0.4-1.2,1.6-1.8,2.8-1.4c1.2,0.4,1.8,1.6,1.4,2.8c-2.4,7.4-0.6,14.2,0.6,19.1
		c1,3.9,1.8,7.1,0.1,9.3c-1,1.3-2.5,1.9-4.7,1.9h-0.3c-1.5,0-1.9,0.6-2.1,1.2c-0.1,0.3,0,0.5,0.1,0.6c0.1,0.1,0.3,0.3,0.6,0.3h5.7
		c1.2,0,2.2,1,2.2,2.2s-1,2.2-2.2,2.2h-5.7C-607.1-185.4-608.7-186.2-609.7-187.6z"/>
	<path fill="#010101" d="M-608.7-237.3c0.5,4.2,3.4,9,7.7,9.4c3,0.3,7.3-1.3,10.6-10.9c0.4-1.2-0.2-2.4-1.4-2.8
		c-1.2-0.4-2.4,0.2-2.8,1.4c-2.1,6.1-4.5,8.1-5.9,7.9c-1.7-0.2-3.4-2.8-3.8-5.5c-1.1-8.6,0.2-14.4,3.7-17.4c4-3.4,11-3.5,21.5-0.4
		c3.2,0.9,6.1,1.2,8.3,1.3c-0.4,0.4-0.7,1-0.7,1.6c0,1.3,1.1,2.3,2.3,2.3c0.6,0,1.2-0.3,1.6-0.7c0,0.1,0,0.1,0,0.2
		c-0.3,1.7-1.2,3.1-2.3,3.6l-0.3,0.1c-4.5,2-12.9,5.8-14.4,11.8c-0.9,3.8,2.1,6.7,5.9,10.3c5.8,5.5,13.8,13.1,14.6,28.7
		c0.1,1.2,1,2.1,2.2,2.1c0,0,0.1,0,0.1,0c1.2-0.1,2.2-1.1,2.1-2.3c-0.9-17.4-10-26-16-31.7c-2.6-2.5-4.9-4.7-4.6-6
		c0.9-3.8,8.6-7.3,11.9-8.8l0.3-0.1c2.5-1.1,4.3-3.7,4.9-6.9c0.6-3-0.1-5.8-1.7-7.5c-1-1-2.3-1-4.6-1.2c-2.2-0.1-5.2-0.3-8.4-1.2
		c-4.4-1.3-17.9-5.3-25.7,1.3C-608.2-254.7-610-247.5-608.7-237.3z"/>
	<path fill="#010101" d="M-610.1-260.4l-7.9-8.8c-0.8-0.9-0.7-2.3,0.2-3.1c0.9-0.8,2.3-0.7,3.1,0.2l7.9,8.8c0.8,0.9,0.7,2.3-0.2,3.1
		c-0.4,0.4-1,0.6-1.5,0.6C-609-259.6-609.6-259.9-610.1-260.4z"/>
	<path fill="#010101" d="M-613-254.3l-10.1-2.8c-1.2-0.3-1.9-1.6-1.6-2.7c0.3-1.2,1.6-1.9,2.7-1.6l10.1,2.8c1.2,0.3,1.9,1.6,1.6,2.7
		c-0.3,1-1.2,1.6-2.1,1.6C-612.6-254.2-612.8-254.2-613-254.3z"/>
	<path fill="#010101" d="M-605.3-265.4l-1.5-10.2c-0.2-1.2,0.7-2.4,1.9-2.5c1.2-0.2,2.4,0.7,2.5,1.9l1.5,10.2
		c0.2,1.2-0.7,2.4-1.9,2.5c-0.1,0-0.2,0-0.3,0C-604.1-263.5-605.1-264.3-605.3-265.4z"/>
	<circle fill="#010101" cx="-586.1" cy="-250.8" r="2.3"/>
</g>
<rect x="268.4" y="-702.4" fill="none" width="341.8" height="89.9"/>
<text transform="matrix(1 0 0 1 268.3701 -622.8624)" fill="#662D91" font-family="'OstrichSans-Medium'" font-size="112">wagwa</text>
<g>
	<path fill="#FFFFFF" d="M9.6,114c4.1,0,6.1,2,7,6.1c6.6,27,13.3,50,21.5,75.8l0,0c6.5-25.8,14.3-50,20.3-75.8
		c1-4.1,3.5-6.1,7.6-6.1H69c4.1,0,6.6,2,7.6,6.1c6.1,25.8,14.3,50,20.7,75.8l0,0c8.2-25.8,14.5-48.9,21.1-75.8c1-4.1,2.9-6.1,7-6.1
		h3.1c3.5,0,6.5,1.4,6.5,4.3c0,0.8-0.2,1.8-0.4,2.7c-7.2,26.8-13.5,54.5-23.1,79.6c-2.3,6.1-5.7,9.6-13.5,9.6h-1.8
		c-7.6,0-10.2-3.1-12.1-9.6C78,179.5,72.5,160.3,68,133.6h-1.2c-4.5,26.8-9.4,45.9-15.6,67.1c-2,6.5-4.5,9.6-12.1,9.6h-1.8
		c-7.8,0-11.1-3.5-13.5-9.6c-9.6-25-16.2-52.8-23.5-79.6c-0.2-1-0.4-2-0.4-2.7c0-2.9,2.9-4.3,6.5-4.3H9.6z"/>
	<path fill="#FFFFFF" d="M230.9,150.8v38.7c0,8.8,4.9,12.5,8.2,13.7c-1.8,4.5-6.3,7.4-10.9,7.4c-8,0-12.7-6.5-12.7-15.2
		c-5.3,7-15.2,16.4-31.9,16.4c-21.3,0-34-11.9-34-29.5c0-19,15.1-31.5,39.5-31.5c14.1,0,20.5,3.3,25.6,5.1v-8.6
		c0-16.4-8.8-21.9-24.4-21.9c-11.7,0-21.5,5.7-27,13.3c-4.3-0.6-8.2-2.7-8.2-7.6c0-9.8,15.4-18.8,34.4-18.8
		C216,112.2,230.9,124.8,230.9,150.8z M165.6,181.5c0,10.4,7.8,17.4,20.7,17.4c16.2,0,28.3-12.1,28.3-26.8v-3.7
		c-6.6-2.9-15.4-5.5-25.2-5.5C174.6,162.9,165.6,170.3,165.6,181.5z"/>
	<path fill="#FFFFFF" d="M342.5,116.9c0,8.2-8.6,12.3-14.5,14.1c2.1,2.9,4.3,10.2,4.3,17.2c0,23.3-17.6,34-37.9,34
		c-2.7,0-5.9-0.4-8.8-0.4c-6.5,0-11.3,3.9-11.3,7.8c0,5.3,5.5,7.4,12.5,7.4h14.5c27.2,0,41.6,7.6,41.6,25.6
		c0,18.4-19.7,30.1-46.3,31.1h-4.7c-22.3,0-40.1-10.4-40.1-22.3c0-5.9,3.3-9.2,7.4-9.8c1.6,3.1,3.9,6.1,7.2,8.8c6.5,5.3,16.2,9,28,9
		h1.4c20.3,0,31.3-7.2,31.3-15.6c0-9.4-10-12.9-29.9-12.9c-26,0-38.5-3.3-38.5-16.4c0-8,4.7-12.9,14.3-16.8
		c-10.2-5.7-17-14.5-17-30.5c0-23.3,18.4-35,39.3-35c12.5,0,22.5,6.8,26.4,11.1c5.7-3.7,7.4-11.1,7.4-17.8
		C335.8,105.6,342.5,110.1,342.5,116.9z M271.1,147.4c0,16.4,11.1,22.7,23.3,22.7c11.9,0,23.1-6.3,23.1-22.7s-11.1-22.7-23.1-22.7
		C282.3,124.8,271.1,131,271.1,147.4z"/>
</g>
<g>
	<path fill="#FFFFFF" d="M607.1,114c4.1,0,6.1,2,7,6.1c6.6,27,13.3,50,21.5,75.8l0,0c6.5-25.8,14.3-50,20.3-75.8
		c1-4.1,3.5-6.1,7.6-6.1h2.9c4.1,0,6.6,2,7.6,6.1c6.1,25.8,14.3,50,20.7,75.8l0,0c8.2-25.8,14.5-48.9,21.1-75.8c1-4.1,2.9-6.1,7-6.1
		h3.1c3.5,0,6.5,1.4,6.5,4.3c0,0.8-0.2,1.8-0.4,2.7c-7.2,26.8-13.5,54.5-23.1,79.6c-2.3,6.1-5.7,9.6-13.5,9.6h-1.8
		c-7.6,0-10.2-3.1-12.1-9.6c-6.3-21.1-11.7-40.3-16.2-67.1h-1.2c-4.5,26.8-9.4,45.9-15.6,67.1c-2,6.5-4.5,9.6-12.1,9.6h-1.8
		c-7.8,0-11.1-3.5-13.5-9.6c-9.6-25-16.2-52.8-23.5-79.6c-0.2-1-0.4-2-0.4-2.7c0-2.9,2.9-4.3,6.5-4.3H607.1z"/>
	<path fill="#FFFFFF" d="M828.3,150.8v38.7c0,8.8,4.9,12.5,8.2,13.7c-1.8,4.5-6.3,7.4-10.9,7.4c-8,0-12.7-6.5-12.7-15.2
		c-5.3,7-15.2,16.4-31.9,16.4c-21.3,0-34-11.9-34-29.5c0-19,15.1-31.5,39.5-31.5c14.1,0,20.5,3.3,25.6,5.1v-8.6
		c0-16.4-8.8-21.9-24.4-21.9c-11.7,0-21.5,5.7-27,13.3c-4.3-0.6-8.2-2.7-8.2-7.6c0-9.8,15.4-18.8,34.4-18.8
		C813.5,112.2,828.3,124.8,828.3,150.8z M763,181.5c0,10.4,7.8,17.4,20.7,17.4c16.2,0,28.3-12.1,28.3-26.8v-3.7
		c-6.6-2.9-15.4-5.5-25.2-5.5C772,162.9,763,170.3,763,181.5z"/>
	<path fill="#FFFFFF" d="M939.9,116.9c0,8.2-8.6,12.3-14.5,14.1c2.1,2.9,4.3,10.2,4.3,17.2c0,23.3-17.6,34-37.9,34
		c-2.7,0-5.9-0.4-8.8-0.4c-6.5,0-11.3,3.9-11.3,7.8c0,5.3,5.5,7.4,12.5,7.4h14.5c27.2,0,41.6,7.6,41.6,25.6
		c0,18.4-19.7,30.1-46.3,31.1h-4.7c-22.3,0-40.1-10.4-40.1-22.3c0-5.9,3.3-9.2,7.4-9.8c1.6,3.1,3.9,6.1,7.2,8.8c6.5,5.3,16.2,9,28,9
		h1.4c20.3,0,31.3-7.2,31.3-15.6c0-9.4-10-12.9-29.9-12.9c-26,0-38.5-3.3-38.5-16.4c0-8,4.7-12.9,14.3-16.8
		c-10.2-5.7-17-14.5-17-30.5c0-23.3,18.4-35,39.3-35c12.5,0,22.5,6.8,26.4,11.1c5.7-3.7,7.4-11.1,7.4-17.8
		C933.3,105.6,939.9,110.1,939.9,116.9z M868.6,147.4c0,16.4,11.1,22.7,23.3,22.7c11.9,0,23.1-6.3,23.1-22.7s-11.1-22.7-23.1-22.7
		C879.7,124.8,868.6,131,868.6,147.4z"/>
</g>
<g>
	<path fill="#662D91" d="M1340.6-101.5c-2.1-3-3-8.2-2.7-11.2c0.1-0.7,0.5-1.3,1-1.7c0.9-0.6,1.9-0.5,4,0.2c-0.9-3.8-1-8.2,0-11.2
		c0.4-1.2,1.6-1.8,2.8-1.4c1.2,0.4,1.8,1.6,1.4,2.8c-1,3.2-0.4,8.7,1.3,12.1c0.4,0.8,0.3,1.8-0.3,2.5c-1,1.2-2.1,0.9-5,0
		c-0.2-0.1-0.5-0.1-0.7-0.2c0.3,2,0.9,4.3,1.9,5.7c0.7,1,0.4,2.4-0.6,3.1c-0.4,0.3-0.8,0.4-1.3,0.4
		C1341.7-100.5,1341-100.8,1340.6-101.5z"/>
	<path fill="#662D91" d="M1342.6-90c-1-1.4-1.2-3.2-0.6-4.8c1-2.6,3.2-4.1,6.3-4.1h3.4c0.1,0,0.2,0,0.2-0.1c-1-2.7-1-7.4,1.3-10.7
		c1.4-2,4.3-4.2,9.7-3.4c1.2,0.2,2.1,1.3,1.9,2.5c-0.2,1.2-1.3,2.1-2.5,1.9c-2.6-0.4-4.4,0.1-5.5,1.6c-1.6,2.2-1.2,5.7-0.7,6.8
		c0.6,1.1,0.5,2.3-0.2,3.4c-0.9,1.4-2.6,2.4-4.4,2.4h-3.4c-1.5,0-1.9,0.6-2.1,1.2c-0.1,0.3,0,0.5,0.1,0.6c0.1,0.1,0.3,0.3,0.6,0.3
		h29c5.6,0,9.3-2.4,9.9-6.5c0.5-3.2-1.2-6.2-3.9-7.1c-1.2-0.4-1.8-1.6-1.5-2.8c0.4-1.2,1.6-1.8,2.8-1.5c4.8,1.5,7.7,6.7,6.9,12
		c-0.8,4.9-4.9,10.2-14.3,10.2h-29C1345.1-87.7,1343.5-88.6,1342.6-90z"/>
	<path fill="#662D91" d="M1326.1-90c-1-1.4-1.2-3.2-0.6-4.8c1-2.6,3.2-4.1,6.3-4.1l0.2,0c0.9,0,1.2-0.2,1.2-0.2
		c0.3-0.7-0.4-3.4-0.9-5.4c-1.3-5.2-3.3-13-0.6-21.6c0.4-1.2,1.6-1.8,2.8-1.4c1.2,0.4,1.8,1.6,1.4,2.8c-2.4,7.4-0.6,14.2,0.6,19.1
		c1,3.9,1.8,7.1,0.1,9.3c-1,1.3-2.5,1.9-4.7,1.9h-0.3c-1.5,0-1.9,0.6-2.1,1.2c-0.1,0.3,0,0.5,0.1,0.6c0.1,0.1,0.3,0.3,0.6,0.3h5.7
		c1.2,0,2.2,1,2.2,2.2s-1,2.2-2.2,2.2h-5.7C1328.6-87.7,1327-88.6,1326.1-90z"/>
	<path fill="#662D91" d="M1327-139.7c0.5,4.2,3.4,9,7.7,9.4c3,0.3,7.3-1.3,10.6-10.9c0.4-1.2-0.2-2.4-1.4-2.8
		c-1.2-0.4-2.4,0.2-2.8,1.4c-2.1,6.1-4.5,8.1-5.9,7.9c-1.7-0.2-3.4-2.8-3.8-5.5c-1.1-8.6,0.2-14.4,3.7-17.4c4-3.4,11-3.5,21.5-0.4
		c3.2,0.9,6.1,1.2,8.3,1.3c-0.4,0.4-0.7,1-0.7,1.6c0,1.3,1.1,2.3,2.3,2.3c0.6,0,1.2-0.3,1.6-0.7c0,0.1,0,0.1,0,0.2
		c-0.3,1.7-1.2,3.1-2.3,3.6l-0.3,0.1c-4.5,2-12.9,5.8-14.4,11.8c-0.9,3.8,2.1,6.7,5.9,10.3c5.8,5.5,13.8,13.1,14.6,28.7
		c0.1,1.2,1,2.1,2.2,2.1c0,0,0.1,0,0.1,0c1.2-0.1,2.2-1.1,2.1-2.3c-0.9-17.4-10-26-16-31.7c-2.6-2.5-4.9-4.7-4.6-6
		c0.9-3.8,8.6-7.3,11.9-8.8l0.3-0.1c2.5-1.1,4.3-3.7,4.9-6.9c0.6-3-0.1-5.8-1.7-7.5c-1-1-2.3-1.1-4.6-1.2c-2.2-0.1-5.2-0.3-8.4-1.2
		c-4.4-1.3-17.9-5.3-25.7,1.3C1327.5-157,1325.8-149.8,1327-139.7z"/>
	<path fill="#662D91" d="M1325.7-162.7l-7.9-8.8c-0.8-0.9-0.7-2.3,0.2-3.1c0.9-0.8,2.3-0.7,3.1,0.2l7.9,8.8c0.8,0.9,0.7,2.3-0.2,3.1
		c-0.4,0.4-1,0.6-1.5,0.6C1326.7-162,1326.1-162.2,1325.7-162.7z"/>
	<path fill="#662D91" d="M1322.8-156.6l-10.1-2.8c-1.2-0.3-1.9-1.6-1.6-2.7c0.3-1.2,1.6-1.9,2.7-1.6l10.1,2.8
		c1.2,0.3,1.9,1.6,1.6,2.7c-0.3,1-1.2,1.6-2.1,1.6C1323.2-156.5,1323-156.6,1322.8-156.6z"/>
	<path fill="#662D91" d="M1330.5-167.7l-1.5-10.2c-0.2-1.2,0.7-2.4,1.9-2.5c1.2-0.2,2.4,0.7,2.5,1.9l1.5,10.2
		c0.2,1.2-0.7,2.4-1.9,2.5c-0.1,0-0.2,0-0.3,0C1331.6-165.8,1330.7-166.6,1330.5-167.7z"/>
	<circle fill="#662D91" cx="1349.7" cy="-153.1" r="2.3"/>
</g>
<rect x="279.2" y="-478.2" fill="none" width="153" height="162.5"/>
<text transform="matrix(1 0 0 1 279.2412 -427.0714)"><tspan x="0" y="0" fill="#662D91" font-family="'GothamBook'" font-size="72">wag</tspan><tspan x="0" y="86.4" fill="#662D91" font-family="'GothamLight'" font-size="72">wag</tspan></text>
<rect x="1305" y="-239.5" fill="none" width="104" height="228.8"/>
<text transform="matrix(1 0 0 1 1305.0438 -188.3997)"><tspan x="0" y="0" font-family="'OstrichSans-Medium'" font-size="72">wa</tspan><tspan x="0" y="86.4" font-family="'OstrichSans-Medium'" font-size="72">g</tspan></text>
<g>
	<path fill="#FFFFFF" d="M450.2,247.4c-6.5-9.5-9.5-25.7-8.5-35.1c0.2-2.1,1.4-4.1,3.2-5.2c2.9-1.9,5.8-1.5,12.6,0.5
		c-2.9-12-3.1-25.6,0-35.2c1.2-3.7,5.1-5.7,8.8-4.5c3.7,1.2,5.7,5.1,4.5,8.8c-3.2,10-1.4,27.4,3.9,38c1.3,2.5,0.9,5.6-0.9,7.8
		c-3.3,3.9-6.7,2.8-15.8,0c-0.7-0.2-1.4-0.4-2.2-0.7c0.8,6.3,2.9,13.6,5.9,17.9c2.2,3.2,1.4,7.5-1.8,9.7c-1.2,0.8-2.6,1.2-3.9,1.2
		C453.7,250.4,451.5,249.4,450.2,247.4z"/>
	<path fill="#FFFFFF" d="M456.4,283.4c-3-4.4-3.7-9.9-1.8-14.9c3.1-8.2,10.1-12.7,19.6-12.7H485c0.2,0,0.5-0.1,0.7-0.2
		c-3-8.4-3.2-23.1,4.2-33.4c4.5-6.3,13.5-13.2,30.5-10.6c3.8,0.6,6.4,4.1,5.8,7.9c-0.6,3.8-4.1,6.4-7.9,5.8
		c-8.2-1.2-13.8,0.4-17.1,5c-5,6.9-3.7,18-2.1,21.2c1.7,3.4,1.5,7.3-0.5,10.7c-2.7,4.3-8.3,7.4-13.6,7.4h-10.7
		c-4.7,0-5.9,1.9-6.6,3.8c-0.3,0.9,0,1.5,0.3,2c0.3,0.4,0.9,1,1.9,1h90.9c17.5,0,29.1-7.5,31.1-20.2c1.5-9.9-3.7-19.5-12.1-22.1
		c-3.7-1.2-5.7-5.1-4.5-8.8c1.2-3.7,5.1-5.7,8.8-4.5c14.9,4.7,24.2,20.9,21.7,37.6c-2.4,15.5-15.4,32-44.9,32h-90.9
		C464.5,290.4,459.5,287.8,456.4,283.4z"/>
	<path fill="#FFFFFF" d="M404.8,283.4c-3-4.4-3.7-9.9-1.8-14.9c3.1-8.2,10.1-12.7,19.6-12.7l0.7,0c2.8,0,3.7-0.5,3.7-0.5
		c1-2-1.2-10.7-2.8-17.1c-4.2-16.2-10.4-40.6-1.8-67.7c1.2-3.7,5.1-5.7,8.8-4.5c3.7,1.2,5.7,5.1,4.5,8.8c-7.4,23.2-2,44.4,2,59.9
		c3.2,12.3,5.7,22.1,0.4,29c-3,4-7.8,5.9-14.7,6h-0.8c-4.7,0-5.9,1.9-6.6,3.8c-0.3,0.9,0,1.5,0.3,2c0.3,0.4,0.9,1,1.9,1H436
		c3.9,0,7,3.1,7,7c0,3.9-3.1,7-7,7h-17.8C412.8,290.4,407.8,287.8,404.8,283.4z"/>
	<path fill="#FFFFFF" d="M407.8,127.8c1.7,13.2,10.7,28,24.2,29.4c9.5,1,22.9-4.2,33.2-34.2c1.2-3.6-0.7-7.6-4.3-8.9
		c-3.6-1.2-7.6,0.7-8.9,4.3c-6.5,19.1-14,25.3-18.6,24.9c-5.2-0.5-10.7-8.6-11.8-17.3c-3.3-26.8,0.6-45.2,11.7-54.6
		c12.5-10.6,34.5-11,67.3-1.4c10,3,19.2,3.8,26.1,4.2c-1.3,1.3-2.1,3.1-2.1,5.1c0,4.1,3.3,7.3,7.3,7.3c2,0,3.8-0.8,5.1-2.1
		c0,0.2,0,0.4-0.1,0.6c-1,5.4-3.8,9.7-7.3,11.3l-1,0.5c-14.1,6.4-40.4,18.2-44.9,36.8c-2.9,12,6.5,20.9,18.4,32.2
		c18.2,17.2,43.2,40.8,45.8,89.8c0.2,3.7,3.3,6.6,7,6.6c0.1,0,0.3,0,0.4,0c3.8-0.2,6.8-3.5,6.6-7.3c-2.9-54.5-31.3-81.4-50.2-99.2
		c-8.3-7.8-15.4-14.6-14.4-18.7c2.9-12,26.9-22.8,37.1-27.4l1-0.5c7.7-3.5,13.4-11.5,15.3-21.5c1.8-9.5-0.3-18.3-5.5-23.6
		c-3-3.1-7.3-3.3-14.4-3.6c-6.8-0.3-16.2-0.8-26.4-3.8c-13.9-4.1-56-16.5-80.3,4.1C409.4,73.5,403.8,96,407.8,127.8z"/>
	<path fill="#FFFFFF" d="M403.6,55.7l-24.7-27.6c-2.6-2.9-2.3-7.3,0.6-9.9c2.9-2.6,7.3-2.3,9.9,0.6L414,46.4
		c2.6,2.9,2.3,7.3-0.6,9.9c-1.3,1.2-3,1.8-4.6,1.8C406.9,58,405,57.3,403.6,55.7z"/>
	<path fill="#FFFFFF" d="M394.5,74.8L363.1,66c-3.7-1-5.9-4.9-4.9-8.6c1-3.7,4.9-5.9,8.6-4.9l31.5,8.7c3.7,1,5.9,4.9,4.9,8.6
		c-0.9,3.1-3.7,5.1-6.7,5.1C395.8,75,395.2,74.9,394.5,74.8z"/>
	<path fill="#FFFFFF" d="M418.7,40l-4.7-32c-0.6-3.8,2.1-7.4,5.9-7.9c3.8-0.6,7.4,2.1,7.9,5.9l4.7,32c0.6,3.8-2.1,7.4-5.9,7.9
		c-0.3,0-0.7,0.1-1,0.1C422.2,46,419.2,43.5,418.7,40z"/>
	<circle fill="#FFFFFF" cx="478.7" cy="85.7" r="7.3"/>
</g>
<polygon fill="#010101" points="1326.4,326.3 1326.4,323.3 1334.7,323.3 1337.5,319.2 1318.1,305.3 1318.1,320 "/>
<path fill="#010101" d="M1333.9,339.9l-7.5-5v-5.1l-8.6-6.6l-20.6-6.6v-3.7c0-1.1-0.9-2.1-2.1-2.1c-1.1,0-2.1,0.9-2.1,2.1v8.5
	l-15.3,7.1c-1.7,0.8-2.5,2.9-1.7,4.6c0.6,1.3,1.8,2,3.2,2c0.5,0,1-0.1,1.5-0.3l3.7-1.7c-0.4,0.9-0.4,1.9,0,2.8c0.6,1.3,1.8,2,3.2,2
	c0.5,0,1-0.1,1.5-0.3l12.3-5.7l25.6,23.2c0.7,0.6,1.5,0.9,2.3,0.9c0.9,0,1.9-0.4,2.6-1.1c1.3-1.4,1.2-3.6-0.2-4.9l-10.1-9.1l0.5-0.5
	l8.1,5.4c0.6,0.4,1.3,0.6,1.9,0.6c1.1,0,2.2-0.5,2.9-1.5C1335.9,343.1,1335.5,341,1333.9,339.9z"/>
<circle fill="#010101" cx="1347.9" cy="333.8" r="6.2"/>
<path fill="#010101" d="M1311.1,381.7l50,0v-31.9C1337.5,353.9,1311.1,381.7,1311.1,381.7z"/>
<path fill="#010101" d="M1307.1,377.8c0.6-0.6,8.6-9,19.7-17.2c-19.6-10.3-44.3-20.6-65.7-20.6l0,41.7h42.3L1307.1,377.8z"/>
<circle fill="#010101" cx="1349.3" cy="321.3" r="2.1"/>
<circle fill="#010101" cx="1349.3" cy="312.9" r="2.1"/>
<circle fill="#010101" cx="1346.5" cy="304.6" r="2.1"/>
<circle fill="#010101" cx="1342.4" cy="297.6" r="2.1"/>
<circle fill="#010101" cx="1335.4" cy="293.5" r="2.1"/>
<circle fill="#010101" cx="1327.1" cy="293.5" r="2.1"/>
<circle fill="#010101" cx="1318.7" cy="296.3" r="2.1"/>
<circle fill="#010101" cx="1311.8" cy="300.4" r="2.1"/>
<circle fill="#010101" cx="1309" cy="293.5" r="2.1"/>
<circle fill="#010101" cx="1306.2" cy="286.5" r="2.1"/>
<circle fill="#010101" cx="1299.3" cy="283.8" r="2.1"/>
<circle fill="#010101" cx="1292.4" cy="286.5" r="2.1"/>
<g>
	<path fill="#662D91" stroke="#662D91" stroke-miterlimit="10" d="M-602.5,609.9h-7.5l-27.3-78.5l-27.5,78.5h-7.5l-33.6-92.3h9.9
		l27.7,80.5l27.7-80.8h7l27.7,80.8l27.7-80.5h9.5L-602.5,609.9z"/>
	<path fill="#662D91" stroke="#662D91" stroke-miterlimit="10" d="M-484.2,609.2v-15.3c-6.3,8.8-17.6,17.4-35,17.4
		c-17.1,0-35.4-9.7-35.4-28.7v-0.4c0-19,16.3-29.8,40-29.8c12.8,0,21.6,1.6,30.4,4v-4c0-18.5-11.3-28-30.2-28
		c-11.1,0-20.3,3.1-28.7,7.4l-3.2-7.7c10.1-4.7,19.9-7.9,32.5-7.9c23.5,0,38.3,12.2,38.3,35.9v57.1H-484.2z M-484,564.4
		c-7.7-2-18-4.1-31.1-4.1c-19.4,0-30.2,8.6-30.2,21.4v0.4c0,13.3,12.6,21,26.6,21c18.7,0,34.7-11.5,34.7-28.2V564.4z"/>
	<path fill="#662D91" stroke="#662D91" stroke-miterlimit="10" d="M-403.8,638.3c-15.3,0-29.5-4.7-42-14l5.2-7.2
		c11,8.4,23.5,12.9,37,12.9c21,0,35.9-12,35.9-35.6v-13.3c-7.9,11.3-20.1,21.2-38.3,21.2c-22.1,0-44-16.9-44-43.1v-0.4
		c0-26.4,21.9-43.5,44-43.5c18.3,0,30.7,9.7,38.3,20.5v-18.3h8.8V595C-358.9,622.8-377.7,638.3-403.8,638.3z M-367.1,558.7
		c0-21.2-18.9-34.8-37.9-34.8c-19.2,0-35.4,13.3-35.4,34.7v0.4c0,20.7,16.5,35,35.4,35c19,0,37.9-14,37.9-34.8V558.7z"/>
</g>
<g>
	<path fill="#662D91" stroke="#662D91" stroke-miterlimit="10" d="M-19.8,609.9h-7.5l-27.3-78.5l-27.5,78.5h-7.5l-33.6-92.3h9.9
		l27.7,80.5l27.7-80.8h7l27.7,80.8l27.7-80.5h9.5L-19.8,609.9z"/>
	<path fill="#662D91" stroke="#662D91" stroke-miterlimit="10" d="M98.5,609.2v-15.3c-6.3,8.8-17.6,17.4-35,17.4
		c-17.1,0-35.4-9.7-35.4-28.7v-0.4c0-19,16.3-29.8,40-29.8c12.8,0,21.6,1.6,30.4,4v-4c0-18.5-11.3-28-30.2-28
		c-11.1,0-20.3,3.1-28.7,7.4l-3.2-7.7c10.1-4.7,19.9-7.9,32.5-7.9c23.5,0,38.3,12.2,38.3,35.9v57.1H98.5z M98.7,564.4
		c-7.7-2-18-4.1-31.1-4.1c-19.4,0-30.2,8.6-30.2,21.4v0.4c0,13.3,12.6,21,26.6,21c18.7,0,34.7-11.5,34.7-28.2V564.4z"/>
	<path fill="#662D91" stroke="#662D91" stroke-miterlimit="10" d="M178.9,638.3c-15.3,0-29.5-4.7-42-14l5.2-7.2
		c11,8.4,23.5,12.9,37,12.9c21,0,35.9-12,35.9-35.6v-13.3c-7.9,11.3-20.1,21.2-38.3,21.2c-22.1,0-44-16.9-44-43.1v-0.4
		c0-26.4,21.9-43.5,44-43.5c18.3,0,30.7,9.7,38.3,20.5v-18.3h8.8V595C223.8,622.8,205,638.3,178.9,638.3z M215.6,558.7
		c0-21.2-18.9-34.8-37.9-34.8c-19.2,0-35.4,13.3-35.4,34.7v0.4c0,20.7,16.5,35,35.4,35c19,0,37.9-14,37.9-34.8V558.7z"/>
</g>
<g>
	<path fill="#662D91" d="M-258,612.5c-5.2-7.6-7.6-20.4-6.8-28c0.2-1.7,1.2-3.3,2.5-4.2c2.3-1.5,4.6-1.2,10.1,0.4
		c-2.3-9.6-2.5-20.4,0-28c0.9-2.9,4.1-4.5,7-3.6c2.9,0.9,4.5,4.1,3.6,7c-2.5,8-1.1,21.8,3.1,30.2c1,2,0.7,4.5-0.7,6.2
		c-2.6,3.1-5.3,2.2-12.6,0c-0.5-0.2-1.1-0.4-1.8-0.5c0.7,5,2.3,10.8,4.7,14.2c1.7,2.5,1.1,6-1.4,7.7c-1,0.7-2.1,1-3.1,1
		C-255.1,614.9-256.9,614.1-258,612.5z"/>
	<path fill="#662D91" d="M-253,641.2c-2.4-3.5-2.9-7.9-1.4-11.9c2.5-6.5,8.1-10.1,15.6-10.1h8.6c0.2,0,0.4-0.1,0.6-0.1
		c-2.4-6.7-2.6-18.4,3.3-26.6c3.6-5,10.8-10.5,24.3-8.4c3,0.5,5.1,3.3,4.7,6.3c-0.5,3-3.3,5.1-6.3,4.7c-6.5-1-11,0.3-13.6,4
		c-4,5.5-3,14.3-1.6,16.9c1.4,2.7,1.2,5.8-0.4,8.6c-2.1,3.5-6.6,5.9-10.9,5.9h-8.6c-3.8,0-4.7,1.5-5.2,3c-0.3,0.7,0,1.2,0.2,1.6
		c0.2,0.3,0.7,0.8,1.5,0.8h72.4c14,0,23.2-6,24.8-16.1c1.2-7.9-2.9-15.5-9.6-17.6c-2.9-0.9-4.6-4.1-3.6-7c0.9-2.9,4-4.5,7-3.6
		c11.9,3.8,19.3,16.6,17.3,29.9c-1.9,12.3-12.3,25.5-35.8,25.5h-72.4C-246.6,646.8-250.6,644.7-253,641.2z"/>
	<path fill="#662D91" d="M-294.1,641.2c-2.4-3.5-2.9-7.9-1.4-11.9c2.5-6.5,8-10.1,15.6-10.1l0.6,0c2.3,0,3-0.4,3-0.4
		c0.8-1.6-0.9-8.5-2.2-13.6c-3.3-12.9-8.3-32.4-1.4-53.9c0.9-2.9,4.1-4.5,7-3.6c2.9,0.9,4.5,4.1,3.6,7c-5.9,18.5-1.6,35.4,1.6,47.8
		c2.5,9.8,4.5,17.6,0.3,23.1c-2.4,3.1-6.2,4.7-11.7,4.8h-0.7c-3.8,0-4.7,1.5-5.2,3c-0.3,0.7,0,1.2,0.2,1.6c0.2,0.3,0.7,0.8,1.5,0.8
		h14.2c3.1,0,5.6,2.5,5.6,5.6s-2.5,5.6-5.6,5.6h-14.2C-287.7,646.8-291.7,644.7-294.1,641.2z"/>
	<path fill="#662D91" d="M-291.7,517.2c1.3,10.5,8.5,22.3,19.3,23.4c7.5,0.8,18.2-3.3,26.5-27.3c1-2.9-0.6-6.1-3.5-7.1
		c-2.9-1-6.1,0.6-7.1,3.5c-5.2,15.2-11.2,20.1-14.8,19.8c-4.1-0.4-8.5-6.9-9.4-13.8c-2.7-21.3,0.5-36,9.3-43.5
		c9.9-8.4,27.5-8.8,53.6-1.1c8,2.4,15.3,3,20.8,3.3c-1,1.1-1.6,2.5-1.6,4.1c0,3.2,2.6,5.9,5.9,5.9c1.6,0,3-0.6,4.1-1.7
		c0,0.2,0,0.3-0.1,0.5c-0.8,4.3-3,7.8-5.8,9l-0.8,0.4c-11.2,5.1-32.2,14.5-35.8,29.3c-2.3,9.6,5.2,16.6,14.7,25.6
		c14.5,13.7,34.4,32.5,36.5,71.6c0.2,3,2.6,5.3,5.5,5.3c0.1,0,0.2,0,0.3,0c3.1-0.2,5.4-2.8,5.3-5.8c-2.3-43.5-25-64.9-40-79.1
		c-6.6-6.2-12.3-11.6-11.5-14.9c2.3-9.6,21.4-18.2,29.6-21.8l0.8-0.4c6.1-2.8,10.7-9.2,12.2-17.1c1.4-7.5-0.2-14.6-4.3-18.8
		c-2.4-2.4-5.8-2.6-11.4-2.9c-5.4-0.3-12.9-0.7-21.1-3.1c-11-3.2-44.7-13.1-64,3.3C-290.5,474-294.9,491.9-291.7,517.2z"/>
	<path fill="#662D91" d="M-295.1,459.8l-19.7-22c-2-2.3-1.8-5.8,0.4-7.9c2.3-2,5.8-1.8,7.9,0.4l19.7,22c2,2.3,1.8,5.8-0.4,7.9
		c-1.1,0.9-2.4,1.4-3.7,1.4C-292.5,461.6-294,461-295.1,459.8z"/>
	<path fill="#662D91" d="M-302.3,475l-25.1-7c-3-0.8-4.7-3.9-3.9-6.8c0.8-3,3.9-4.7,6.8-3.9l25.1,7c3,0.8,4.7,3.9,3.9,6.8
		c-0.7,2.5-2.9,4.1-5.4,4.1C-301.3,475.2-301.8,475.1-302.3,475z"/>
	<path fill="#662D91" d="M-283.1,447.3l-3.8-25.5c-0.5-3,1.6-5.9,4.7-6.3c3-0.4,5.9,1.6,6.3,4.7l3.8,25.5c0.5,3-1.6,5.9-4.7,6.3
		c-0.3,0-0.6,0.1-0.8,0.1C-280.3,452-282.7,450-283.1,447.3z"/>
	<circle fill="#662D91" cx="-235.2" cy="483.7" r="5.9"/>
</g>
<g>
	<path d="M581.7,583.6L581.7,583.6c-1.1,1.9-2.3,3.3-3.7,4.2c-1.5,0.9-3.2,1.4-5.3,1.4c-1.8,0-3.3-0.3-4.6-1
		c-1.3-0.7-2.3-1.6-3.2-2.7c-0.8-1.1-1.4-2.4-1.8-3.9c-0.4-1.5-0.6-3-0.6-4.6c0-1.7,0.2-3.4,0.6-4.9c0.4-1.5,1.1-2.8,1.9-3.9
		c0.9-1.1,2-2,3.3-2.6c1.3-0.6,2.8-1,4.6-1c0.9,0,1.9,0.1,2.8,0.4c0.9,0.3,1.8,0.6,2.5,1.1c0.8,0.5,1.5,1.1,2,1.8
		c0.6,0.7,1,1.6,1.3,2.5h0.1v-14.4h1.7v32.6h-1.7V583.6z M572.9,587.7c1.5,0,2.8-0.3,3.9-0.9c1.1-0.6,2-1.4,2.7-2.4
		c0.7-1,1.2-2.2,1.6-3.4c0.3-1.3,0.5-2.6,0.5-4c0-1.4-0.2-2.7-0.5-4c-0.4-1.3-0.9-2.5-1.6-3.5c-0.7-1-1.6-1.8-2.7-2.4
		c-1.1-0.6-2.4-0.9-3.9-0.9c-1.6,0-2.9,0.3-4,0.9c-1.1,0.6-2,1.4-2.7,2.4c-0.7,1-1.2,2.2-1.6,3.5c-0.3,1.3-0.5,2.7-0.5,4.1
		c0,1.4,0.2,2.7,0.5,4c0.3,1.3,0.9,2.4,1.6,3.4c0.7,1,1.6,1.8,2.7,2.4C570.1,587.4,571.4,587.7,572.9,587.7z"/>
	<path d="M587.8,576.9c0-1.7,0.2-3.3,0.7-4.7c0.5-1.5,1.2-2.8,2.1-3.9c0.9-1.1,2-2,3.4-2.7c1.3-0.7,2.9-1,4.6-1s3.3,0.3,4.6,1
		c1.3,0.7,2.5,1.5,3.4,2.7c0.9,1.1,1.6,2.4,2.1,3.9c0.5,1.5,0.7,3.1,0.7,4.7c0,1.7-0.2,3.3-0.7,4.8c-0.5,1.5-1.2,2.8-2.1,3.9
		c-0.9,1.1-2,2-3.4,2.7c-1.3,0.7-2.9,1-4.6,1s-3.3-0.3-4.6-1c-1.3-0.7-2.5-1.5-3.4-2.7c-0.9-1.1-1.6-2.4-2.1-3.9
		C588.1,580.2,587.8,578.6,587.8,576.9z M589.6,576.9c0,1.4,0.2,2.7,0.6,4c0.4,1.3,1,2.4,1.7,3.4c0.8,1,1.7,1.8,2.8,2.4
		c1.1,0.6,2.4,0.9,3.9,0.9c1.5,0,2.8-0.3,3.9-0.9c1.1-0.6,2.1-1.4,2.8-2.4c0.8-1,1.3-2.2,1.7-3.4c0.4-1.3,0.6-2.6,0.6-4
		c0-1.4-0.2-2.7-0.6-4c-0.4-1.3-1-2.4-1.7-3.4c-0.8-1-1.7-1.8-2.8-2.4c-1.1-0.6-2.4-0.9-3.9-0.9c-1.5,0-2.8,0.3-3.9,0.9
		c-1.1,0.6-2.1,1.4-2.8,2.4c-0.8,1-1.3,2.2-1.7,3.4C589.8,574.2,589.6,575.5,589.6,576.9z"/>
	<path d="M632.9,565.2v22.3c0,1.3-0.2,2.6-0.5,3.8c-0.3,1.2-0.8,2.3-1.6,3.3c-0.7,0.9-1.8,1.7-3.1,2.3c-1.3,0.6-3,0.8-5,0.8
		c-1.2,0-2.4-0.1-3.5-0.4c-1.1-0.3-2.1-0.7-2.9-1.2c-0.8-0.6-1.5-1.3-2-2.2c-0.5-0.9-0.8-2.1-0.8-3.5h1.7c0.1,1,0.3,1.9,0.8,2.7
		c0.4,0.7,1,1.3,1.7,1.8c0.7,0.5,1.5,0.8,2.3,1c0.9,0.2,1.8,0.3,2.7,0.3c1.6,0,3-0.2,4-0.7c1.1-0.5,1.9-1.1,2.6-1.9
		c0.6-0.8,1.1-1.7,1.3-2.7c0.3-1,0.4-2,0.4-3v-5.4H631c-0.8,1.7-1.9,3.1-3.4,4c-1.4,0.9-3.1,1.4-5.1,1.4c-1.7,0-3.2-0.3-4.5-0.9
		c-1.3-0.6-2.3-1.4-3.1-2.5c-0.8-1.1-1.5-2.3-1.9-3.7c-0.4-1.4-0.6-2.9-0.6-4.6c0-1.6,0.2-3,0.7-4.4c0.4-1.4,1.1-2.6,1.9-3.7
		c0.9-1.1,1.9-1.9,3.2-2.5c1.3-0.6,2.7-0.9,4.4-0.9c1.9,0,3.6,0.5,5.1,1.4c1.6,0.9,2.7,2.3,3.4,4h0.1v-4.9H632.9z M622.6,566.1
		c-1.4,0-2.7,0.3-3.7,0.9c-1.1,0.6-1.9,1.3-2.6,2.3c-0.7,0.9-1.2,2-1.6,3.2c-0.4,1.2-0.5,2.4-0.5,3.7c0,1.4,0.2,2.7,0.5,3.9
		c0.3,1.2,0.9,2.3,1.6,3.2c0.7,0.9,1.6,1.6,2.7,2.2c1.1,0.5,2.3,0.8,3.6,0.8c1.4,0,2.7-0.3,3.7-0.8c1.1-0.5,2-1.3,2.7-2.2
		c0.7-0.9,1.2-2,1.6-3.2c0.3-1.2,0.5-2.5,0.5-3.8c0-1.3-0.2-2.6-0.5-3.8c-0.4-1.2-0.9-2.3-1.6-3.2c-0.7-0.9-1.6-1.7-2.7-2.2
		C625.3,566.4,624,566.1,622.6,566.1z"/>
	<path d="M656.6,586.7L656.6,586.7l6.5-21.5h2.3l6.4,21.5h0.1l6.6-21.5h1.9l-7.5,23.5h-2.1l-6.4-21.3h-0.1l-6.5,21.3h-2.2l-7.4-23.5
		h1.9L656.6,586.7z"/>
	<path d="M698.5,584L698.5,584c-0.4,0.7-0.8,1.4-1.3,2c-0.5,0.6-1.2,1.2-1.9,1.7c-0.7,0.5-1.6,0.9-2.5,1.1c-0.9,0.3-2,0.4-3.1,0.4
		c-2.5,0-4.4-0.5-5.8-1.6c-1.4-1.1-2.1-2.7-2.1-5c0-1.4,0.3-2.5,0.8-3.4c0.5-0.9,1.2-1.6,2.1-2.1c0.8-0.5,1.8-0.9,2.8-1.1
		c1-0.2,2-0.4,2.9-0.5l2.7-0.2c1.2-0.1,2.2-0.2,2.9-0.4c0.7-0.2,1.3-0.5,1.6-0.8c0.4-0.3,0.6-0.8,0.7-1.3c0.1-0.5,0.1-1.2,0.1-2.1
		c0-0.6-0.1-1.2-0.4-1.8c-0.2-0.5-0.6-1-1.1-1.5c-0.5-0.4-1.2-0.8-2-1c-0.8-0.2-1.8-0.4-3-0.4c-2.1,0-3.8,0.5-5.1,1.6
		c-1.3,1-2,2.6-2.1,4.7H683c0.1-2.6,1-4.5,2.5-5.8c1.5-1.3,3.7-1.9,6.6-1.9s4.9,0.6,6.2,1.7c1.3,1.1,1.9,2.6,1.9,4.4v13.7
		c0,0.3,0,0.7,0,1c0,0.3,0.1,0.6,0.2,0.9c0.1,0.3,0.2,0.5,0.5,0.7c0.2,0.2,0.5,0.3,0.9,0.3c0.3,0,0.7,0,1.3-0.1v1.5
		c-0.5,0.1-0.9,0.2-1.4,0.2c-0.7,0-1.3-0.1-1.7-0.3c-0.4-0.2-0.7-0.4-0.9-0.7c-0.2-0.3-0.4-0.7-0.4-1.1c-0.1-0.4-0.1-0.9-0.1-1.3
		V584z M698.5,575.3c-0.4,0.5-1.1,0.9-1.9,1.1c-0.9,0.2-1.8,0.3-2.9,0.4l-2.9,0.3c-0.9,0.1-1.7,0.2-2.6,0.4
		c-0.9,0.2-1.6,0.4-2.3,0.8c-0.7,0.4-1.2,0.9-1.7,1.6c-0.4,0.7-0.6,1.6-0.6,2.7c0,1.7,0.5,3,1.6,3.9c1.1,0.8,2.6,1.3,4.5,1.3
		c2,0,3.5-0.4,4.7-1.1c1.2-0.7,2-1.5,2.7-2.5c0.6-0.9,1-1.8,1.2-2.7c0.2-0.9,0.3-1.5,0.3-1.8V575.3z"/>
	<path d="M707.9,556.1v32.6h-1.7v-32.6H707.9z"/>
	<path d="M713.5,556.1h1.7v21.6l14.5-12.5h2.5L722,574l11,14.7h-2.4l-10-13.4l-5.3,4.5v8.9h-1.7V556.1z"/>
	<path d="M735,560.8v-4.7h1.7v4.7H735z M735,588.7v-23.5h1.7v23.5H735z"/>
	<path d="M742.2,565.2h1.7v5h0.1c0.3-0.9,0.7-1.7,1.3-2.4c0.6-0.7,1.2-1.3,2-1.8c0.7-0.5,1.6-0.9,2.4-1.1c0.9-0.2,1.8-0.4,2.7-0.4
		c1.4,0,2.5,0.2,3.5,0.5c1,0.3,1.7,0.8,2.4,1.3c0.6,0.5,1.1,1.2,1.4,1.9c0.3,0.7,0.6,1.4,0.8,2.1c0.2,0.7,0.2,1.4,0.3,2
		c0,0.7,0,1.2,0,1.7v14.5h-1.7v-14.8c0-0.6,0-1.3-0.1-2.2c-0.1-0.9-0.4-1.7-0.8-2.5c-0.4-0.8-1.1-1.5-2-2.1
		c-0.9-0.6-2.1-0.9-3.7-0.9c-1.3,0-2.5,0.2-3.6,0.7c-1,0.5-1.9,1.2-2.7,2c-0.7,0.9-1.3,1.9-1.7,3.1c-0.4,1.2-0.6,2.5-0.6,4v12.7
		h-1.7V565.2z"/>
	<path d="M785.3,565.2v22.3c0,1.3-0.2,2.6-0.5,3.8c-0.3,1.2-0.8,2.3-1.6,3.3c-0.7,0.9-1.8,1.7-3.1,2.3c-1.3,0.6-3,0.8-5,0.8
		c-1.2,0-2.4-0.1-3.5-0.4c-1.1-0.3-2.1-0.7-2.9-1.2c-0.8-0.6-1.5-1.3-2-2.2c-0.5-0.9-0.8-2.1-0.8-3.5h1.7c0.1,1,0.3,1.9,0.8,2.7
		c0.4,0.7,1,1.3,1.7,1.8c0.7,0.5,1.5,0.8,2.3,1c0.9,0.2,1.8,0.3,2.7,0.3c1.6,0,3-0.2,4-0.7c1.1-0.5,1.9-1.1,2.6-1.9
		c0.6-0.8,1.1-1.7,1.3-2.7c0.3-1,0.4-2,0.4-3v-5.4h-0.1c-0.8,1.7-1.9,3.1-3.4,4c-1.4,0.9-3.1,1.4-5.1,1.4c-1.7,0-3.2-0.3-4.5-0.9
		c-1.3-0.6-2.3-1.4-3.1-2.5c-0.8-1.1-1.5-2.3-1.9-3.7c-0.4-1.4-0.6-2.9-0.6-4.6c0-1.6,0.2-3,0.7-4.4c0.4-1.4,1.1-2.6,1.9-3.7
		c0.9-1.1,1.9-1.9,3.2-2.5c1.3-0.6,2.7-0.9,4.4-0.9c1.9,0,3.6,0.5,5.1,1.4c1.6,0.9,2.7,2.3,3.4,4h0.1v-4.9H785.3z M775,566.1
		c-1.4,0-2.7,0.3-3.7,0.9c-1.1,0.6-1.9,1.3-2.6,2.3c-0.7,0.9-1.2,2-1.6,3.2c-0.4,1.2-0.5,2.4-0.5,3.7c0,1.4,0.2,2.7,0.5,3.9
		c0.3,1.2,0.9,2.3,1.6,3.2c0.7,0.9,1.6,1.6,2.7,2.2c1.1,0.5,2.3,0.8,3.6,0.8c1.4,0,2.7-0.3,3.7-0.8c1.1-0.5,2-1.3,2.7-2.2
		c0.7-0.9,1.2-2,1.6-3.2c0.3-1.2,0.5-2.5,0.5-3.8c0-1.3-0.2-2.6-0.5-3.8c-0.4-1.2-0.9-2.3-1.6-3.2c-0.7-0.9-1.6-1.7-2.7-2.2
		C777.7,566.4,776.5,566.1,775,566.1z"/>
</g>
</svg>
