<?xml version="1.0" encoding="utf-8"?>
<!-- Generator: Adobe Illustrator 17.1.0, SVG Export Plug-In . SVG Version: 6.00 Build 0)  -->
<!DOCTYPE svg PUBLIC "-//W3C//DTD SVG 1.1//EN" "http://www.w3.org/Graphics/SVG/1.1/DTD/svg11.dtd">
<svg version="1.1" id="Layer_1" xmlns="http://www.w3.org/2000/svg" xmlns:xlink="http://www.w3.org/1999/xlink" x="0px" y="0px"
	 viewBox="0 0 600.4 337.8" enable-background="new 0 0 600.4 337.8" xml:space="preserve">
<g>
	<path fill="#3E4651" d="M65.9,65.5H36.6v-27h87.8v27H95.1v94.9H65.9V65.5z"/>
	<path fill="#3E4651" d="M149.3,38.4h29.2v45.4h33V38.4h29.3v121.9h-29.3V112h-33v48.4h-29.2V38.4z"/>
	<path fill="#3E4651" d="M326.2,134.5h-31l-5.4,25.9h-29.9l33.7-121.9h35.4l33.7,121.9h-31L326.2,134.5z M320.9,109.5l-1.9-8.4
		c-2.7-11.6-5.4-26.4-8.2-38.6h-0.7c-2.4,12.4-5.1,27-7.8,38.6l-1.9,8.4H320.9z"/>
	<path fill="#3E4651" d="M381.7,38.4h29.9l24.5,54.4l10.5,27.4h0.7c-1.4-13.1-3.7-31.5-3.7-46.5V38.4h27.9v121.9h-29.9l-24.5-54.6
		l-10.5-27.2h-0.7c1.4,13.9,3.7,31.5,3.7,46.5v35.3h-27.9V38.4z"/>
	<path fill="#3E4651" d="M504.6,38.4h29.2v45.4h0.7l27.9-45.4h32l-33,49.5l39.5,72.4h-32l-24.5-46.9L533.8,130v30.4h-29.2V38.4z"/>
	<path fill="#3E4651" d="M178.4,293.6L145,213.7h31.3l8.2,25.5c2.7,9.2,5.4,17.6,8.3,27.2h0.7c2.9-9.6,5.8-18,8.7-27.2l8.2-25.5
		h30.6l-33.3,79.9v42h-29.2V293.6z"/>
	<path fill="#3E4651" d="M251.9,274.1c0-40.1,20.7-62.6,51.4-62.6c30.6,0,51.4,22.7,51.4,62.6c0,40.1-20.8,63.8-51.4,63.8
		C272.6,337.8,251.9,314.2,251.9,274.1z M324.7,274.1c0-22.1-8.2-34.9-21.4-34.9c-13.3,0-21.4,12.8-21.4,34.9c0,22.1,8.2,36,21.4,36
		C316.5,310.1,324.7,296.2,324.7,274.1z"/>
	<path fill="#3E4651" d="M382.2,213.7h29.3v66.8c0,21.8,5.1,29.6,16.7,29.6c11.6,0,17-7.9,17-29.6v-66.8h28.2v63
		c0,41.6-14.3,61.2-45.2,61.2s-45.9-19.5-45.9-61.2V213.7z"/>
</g>
<g>
	<path fill="#3E4651" d="M24.8,30.3L11.4,15.3c-1.4-1.6-1.3-4,0.3-5.4c1.6-1.4,4-1.3,5.4,0.3l13.4,15.1c1.4,1.6,1.3,4-0.3,5.4
		c-0.7,0.6-1.6,1-2.5,1C26.6,31.6,25.6,31.2,24.8,30.3z"/>
	<path fill="#3E4651" d="M19.9,40.7L2.8,35.9c-2-0.6-3.2-2.7-2.6-4.7c0.6-2,2.7-3.2,4.7-2.6l17.1,4.8c2,0.6,3.2,2.7,2.6,4.7
		c-0.5,1.7-2,2.8-3.7,2.8C20.6,40.8,20.2,40.8,19.9,40.7z"/>
	<path fill="#3E4651" d="M33,21.8L30.5,4.4c-0.3-2.1,1.1-4,3.2-4.3c2.1-0.3,4,1.1,4.3,3.2l2.6,17.4c0.3,2.1-1.1,4-3.2,4.3
		c-0.2,0-0.4,0-0.6,0C35,25,33.3,23.7,33,21.8z"/>
</g>
</svg>
