<?xml version="1.0" encoding="utf-8"?>
<!-- Generator: Adobe Illustrator 17.1.0, SVG Export Plug-In . SVG Version: 6.00 Build 0)  -->
<!DOCTYPE svg PUBLIC "-//W3C//DTD SVG 1.1//EN" "http://www.w3.org/Graphics/SVG/1.1/DTD/svg11.dtd">
<svg version="1.1" id="Layer_1" xmlns="http://www.w3.org/2000/svg" xmlns:xlink="http://www.w3.org/1999/xlink" x="0px" y="0px"
	 viewBox="0 0 300 170" enable-background="new 0 0 300 170" xml:space="preserve">
<g>
	<g>
		<g>
			<g>
				<path fill="#F1F0F0" d="M247.5,52.2L110.6,2.4C104.8,0.3,98.5,3.2,96.4,9l-2.3,6.2l157.8,57.4l2.3-6.2
					C256.2,60.7,253.3,54.3,247.5,52.2z"/>
				<path fill="#CCCCCC" d="M252.7,74.4l-1.3-0.5L92.3,16.1l2.7-7.6c1.8-4.9,6.5-8.2,11.7-8.2c1.5,0,2.9,0.3,4.3,0.8L248,50.9
					c6.5,2.4,9.8,9.5,7.5,16L252.7,74.4z M95.9,14.4L251,70.9l1.8-4.9c1.8-5-0.8-10.6-5.8-12.4L110.1,3.7c-1.1-0.4-2.2-0.6-3.3-0.6
					c-4.1,0-7.7,2.6-9.1,6.4L95.9,14.4z"/>
			</g>
			<g>
				<path fill="#F1F0F0" d="M63.8,98.5c-2.1,5.8,0.9,12.1,6.6,14.2l136.9,49.8c5.8,2.1,12.1-0.9,14.2-6.6l22.7-62.5L86.5,36.1
					L63.8,98.5z"/>
				<path fill="#CCCCCC" d="M211.1,164.6C211.1,164.6,211.1,164.6,211.1,164.6c-1.5,0-2.9-0.3-4.3-0.8L69.9,114
					c-6.5-2.4-9.8-9.5-7.5-16l23.2-63.8l1.3,0.5l159.1,57.9l-23.2,63.8C221.1,161.3,216.4,164.6,211.1,164.6z M87.4,37.8L65.1,99
					c-1.8,5,0.8,10.6,5.8,12.4l136.9,49.8c1.1,0.4,2.2,0.6,3.3,0.6c4.1,0,7.7-2.6,9.1-6.4l22.3-61.2L87.4,37.8z"/>
			</g>
		</g>
		<g>
			
				<rect x="85.3" y="46" transform="matrix(0.9397 0.342 -0.342 0.9397 28.795 -54.5923)" fill="#00B4B4" width="167.9" height="16.6"/>
			<path fill="#00B4B4" d="M246.1,92.7l-1.3-0.5L85.7,34.3l6.6-18.2l1.3,0.5l159.1,57.9L246.1,92.7z M89.2,32.6l155.2,56.5l4.7-13
				L94,19.6L89.2,32.6z"/>
		</g>
		<line fill="none" stroke="#00B4B4" stroke-width="5" stroke-miterlimit="10" x1="81.4" y1="93.2" x2="159.5" y2="121.6"/>
	</g>
	<g>
		<path fill="#FFFFFF" d="M213,157.9c0,6.1-5,11.1-11.1,11.1H56.1C50,169,45,164,45,157.9V63.1C45,57,50,52,56.1,52h145.8
			c6.1,0,11.1,5,11.1,11.1V157.9z"/>
		<path fill="#CCCCCC" d="M215,157.5c0,6.9-5.6,12.5-12.5,12.5H56.5c-6.9,0-12.5-5.6-12.5-12.5V62.5C44,55.6,49.6,50,56.5,50h146.1
			c6.9,0,12.5,5.6,12.5,12.5V157.5z M212,62.7c0-5.4-4.3-9.7-9.7-9.7H56.7c-5.4,0-9.7,4.3-9.7,9.7v95.6c0,5.4,4.3,9.7,9.7,9.7h145.6
			c5.4,0,9.7-4.3,9.7-9.7V62.7z"/>
	</g>
	<g>
		<path fill="#F16232" d="M90,99.7c0,1.2-1,2.1-2.1,2.1H64.4c-1.2,0-2.1-1-2.1-2.1V76.2c0-1.2,1-2.1,2.1-2.1h23.4
			c1.2,0,2.1,1,2.1,2.1V99.7z"/>
		<path fill="#F16232" d="M87.8,103.2H64.4c-1.9,0-3.5-1.6-3.5-3.5V76.2c0-1.9,1.6-3.5,3.5-3.5h23.4c1.9,0,3.5,1.6,3.5,3.5v23.4
			C91.4,101.6,89.8,103.2,87.8,103.2z M64.4,75.5c-0.4,0-0.7,0.3-0.7,0.7v23.4c0,0.4,0.3,0.7,0.7,0.7h23.4c0.4,0,0.7-0.3,0.7-0.7
			V76.2c0-0.4-0.3-0.7-0.7-0.7H64.4z"/>
	</g>
	<g>
		<g>
			<rect x="62" y="118" fill="#00B4B4" width="31" height="3"/>
		</g>
		<g>
			<rect x="98" y="118" fill="#00B4B4" width="31" height="3"/>
		</g>
		<g>
			<rect x="134" y="118" fill="#00B4B4" width="31" height="3"/>
		</g>
		<g>
			<rect x="170" y="118" fill="#00B4B4" width="31" height="3"/>
		</g>
	</g>
	<g>
		<rect x="62" y="140" fill="#00B4B4" width="83" height="3"/>
	</g>
	<g>
		<rect x="164" y="84" fill="#00B4B4" width="37" height="3"/>
	</g>
	<path opacity="0.1" fill="#FFFFFF" d="M62.3,99.7V76.2c0-1.2,1-2.1,2.1-2.1h23.4c1.2,0,2.1,1,2.1,2.1L62.3,99.7z"/>
</g>
</svg>
