<?xml version="1.0" encoding="utf-8"?>
<!-- Generator: Adobe Illustrator 17.1.0, SVG Export Plug-In . SVG Version: 6.00 Build 0)  -->
<!DOCTYPE svg PUBLIC "-//W3C//DTD SVG 1.1//EN" "http://www.w3.org/Graphics/SVG/1.1/DTD/svg11.dtd">
<svg version="1.1" id="Layer_1" xmlns="http://www.w3.org/2000/svg" xmlns:xlink="http://www.w3.org/1999/xlink" x="0px" y="0px"
	 viewBox="0 0 100 100" enable-background="new 0 0 100 100" xml:space="preserve">
<g>
	<path fill="#00B5B5" d="M50,24.1c-9.2,0-16.7,7.5-16.7,16.7c0,8,5.7,14.8,13.3,16.3v33.7c0,1.8,1.5,3.3,3.3,3.3s3.3-1.5,3.3-3.3
		V57.1c7.6-1.5,13.3-8.3,13.3-16.3C66.7,31.6,59.2,24.1,50,24.1z"/>
	<path fill="#00B5B5" d="M86.8,7c-1.2-1.4-3.4-1.4-4.7-0.2c-1.4,1.2-1.4,3.4-0.2,4.7c7.4,8,11.4,18.4,11.4,29.3
		c0,13.4-6,25.8-16.5,34c-1.4,1.1-1.7,3.2-0.6,4.7c0.7,0.8,1.6,1.3,2.6,1.3c0.7,0,1.5-0.2,2.1-0.7C93.1,70.5,100,56.2,100,40.8
		C100,28.2,95.3,16.2,86.8,7z"/>
	<path fill="#00B5B5" d="M23.2,74.8c-10.5-8.3-16.5-20.7-16.5-34c0-10.9,4.1-21.3,11.4-29.3c1.2-1.4,1.2-3.5-0.2-4.7
		c-1.4-1.2-3.5-1.2-4.7,0.2C4.7,16.2,0,28.2,0,40.8c0,15.4,6.9,29.7,19.1,39.3c0.6,0.5,1.3,0.7,2.1,0.7c1,0,2-0.4,2.6-1.3
		C24.9,78.1,24.6,76,23.2,74.8z"/>
	<path fill="#00B5B5" d="M33.4,61.7C27,56.6,23.3,49,23.3,40.8c0-6.6,2.4-12.9,6.8-17.8c1.2-1.4,1.1-3.5-0.3-4.7
		c-1.4-1.2-3.5-1.1-4.7,0.3c-5.5,6.1-8.5,14-8.5,22.2c0,10.2,4.6,19.7,12.6,26.1c0.6,0.5,1.3,0.7,2.1,0.7c1,0,2-0.4,2.6-1.3
		C35.1,64.9,34.9,62.8,33.4,61.7z"/>
	<path fill="#00B5B5" d="M74.8,18.5c-1.2-1.4-3.3-1.5-4.7-0.2c-1.4,1.2-1.5,3.3-0.2,4.7c4.4,4.9,6.8,11.2,6.8,17.8
		c0,8.1-3.6,15.7-10,20.8c-1.4,1.2-1.7,3.3-0.5,4.7c0.7,0.8,1.6,1.2,2.6,1.2c0.7,0,1.5-0.2,2.1-0.7c7.9-6.4,12.5-15.8,12.5-26
		C83.3,32.5,80.3,24.6,74.8,18.5z"/>
</g>
</svg>
