<?xml version="1.0" encoding="utf-8"?>
<!-- Generator: Adobe Illustrator 17.1.0, SVG Export Plug-In . SVG Version: 6.00 Build 0)  -->
<!DOCTYPE svg PUBLIC "-//W3C//DTD SVG 1.1//EN" "http://www.w3.org/Graphics/SVG/1.1/DTD/svg11.dtd">
<svg version="1.1" id="Layer_1" xmlns="http://www.w3.org/2000/svg" xmlns:xlink="http://www.w3.org/1999/xlink" x="0px" y="0px"
	 viewBox="0 0 929.8 231.6" enable-background="new 0 0 929.8 231.6" xml:space="preserve">
<rect x="-218.1" y="-448.1" fill="none" width="723" height="234"/>
<text transform="matrix(1 0 0 1 -218.0927 -396.9679)" font-family="'Pacifico'" font-size="72">wagwag</text>
<rect x="-508.4" y="-44.9" fill="none" width="208" height="57"/>
<text transform="matrix(1 0 0 1 -508.3751 6.2325)" font-family="'OstrichSans-Medium'" font-size="72">wagw</text>
<path fill="#010101" d="M-563.5-4.8c-2.1-3-3-8.2-2.7-11.2c0.1-0.7,0.5-1.3,1-1.7c0.9-0.6,1.9-0.5,4,0.2c-0.9-3.8-1-8.2,0-11.2
	c0.4-1.2,1.6-1.8,2.8-1.4c1.2,0.4,1.8,1.6,1.4,2.8c-1,3.2-0.4,8.7,1.3,12.1c0.4,0.8,0.3,1.8-0.3,2.5c-1,1.2-2.1,0.9-5,0
	c-0.2-0.1-0.5-0.1-0.7-0.2c0.3,2,0.9,4.3,1.9,5.7c0.7,1,0.4,2.4-0.6,3.1c-0.4,0.3-0.8,0.4-1.3,0.4C-562.4-3.8-563.1-4.2-563.5-4.8z"
	/>
<path fill="#010101" d="M-561.5,6.7c-1-1.4-1.2-3.2-0.6-4.8c1-2.6,3.2-4.1,6.3-4.1h3.4c0.1,0,0.2,0,0.2-0.1c-1-2.7-1-7.4,1.3-10.7
	c1.4-2,4.3-4.2,9.7-3.4c1.2,0.2,2.1,1.3,1.9,2.5c-0.2,1.2-1.3,2.1-2.5,1.9c-2.6-0.4-4.4,0.1-5.5,1.6c-1.6,2.2-1.2,5.7-0.7,6.8
	c0.6,1.1,0.5,2.3-0.2,3.4c-0.9,1.4-2.6,2.4-4.4,2.4h-3.4c-1.5,0-1.9,0.6-2.1,1.2c-0.1,0.3,0,0.5,0.1,0.6c0.1,0.1,0.3,0.3,0.6,0.3h29
	c5.6,0,9.3-2.4,9.9-6.5c0.5-3.2-1.2-6.2-3.9-7.1c-1.2-0.4-1.8-1.6-1.5-2.8s1.6-1.8,2.8-1.5c4.8,1.5,7.7,6.7,6.9,12
	C-514.6,3.7-518.8,9-528.2,9h-29C-558.9,9-560.5,8.1-561.5,6.7z"/>
<path fill="#010101" d="M-578,6.7c-1-1.4-1.2-3.2-0.6-4.8c1-2.6,3.2-4.1,6.3-4.1l0.2,0c0.9,0,1.2-0.2,1.2-0.2
	c0.3-0.7-0.4-3.4-0.9-5.4c-1.3-5.2-3.3-13-0.6-21.6c0.4-1.2,1.6-1.8,2.8-1.4c1.2,0.4,1.8,1.6,1.4,2.8c-2.4,7.4-0.6,14.2,0.6,19.1
	c1,3.9,1.8,7.1,0.1,9.3c-1,1.3-2.5,1.9-4.7,1.9h-0.3c-1.5,0-1.9,0.6-2.1,1.2c-0.1,0.3,0,0.5,0.1,0.6c0.1,0.1,0.3,0.3,0.6,0.3h5.7
	c1.2,0,2.2,1,2.2,2.2s-1,2.2-2.2,2.2h-5.7C-575.4,9-577,8.1-578,6.7z"/>
<path fill="#010101" d="M-577-43c0.5,4.2,3.4,9,7.7,9.4c3,0.3,7.3-1.3,10.6-10.9c0.4-1.2-0.2-2.4-1.4-2.8c-1.2-0.4-2.4,0.2-2.8,1.4
	c-2.1,6.1-4.5,8.1-5.9,7.9c-1.7-0.2-3.4-2.8-3.8-5.5c-1.1-8.6,0.2-14.4,3.7-17.4c4-3.4,11-3.5,21.5-0.4c3.2,0.9,6.1,1.2,8.3,1.3
	c-0.4,0.4-0.7,1-0.7,1.6c0,1.3,1,2.3,2.3,2.3c0.6,0,1.2-0.3,1.6-0.7c0,0.1,0,0.1,0,0.2c-0.3,1.7-1.2,3.1-2.3,3.6l-0.3,0.1
	c-4.5,2-12.9,5.8-14.4,11.8c-0.9,3.8,2.1,6.7,5.9,10.3c5.8,5.5,13.8,13.1,14.6,28.7c0.1,1.2,1,2.1,2.2,2.1c0,0,0.1,0,0.1,0
	c1.2-0.1,2.2-1.1,2.1-2.3c-0.9-17.4-10-26-16-31.7c-2.6-2.5-4.9-4.7-4.6-6c0.9-3.8,8.6-7.3,11.9-8.8l0.3-0.1
	c2.5-1.1,4.3-3.7,4.9-6.9c0.6-3-0.1-5.8-1.7-7.5c-1-1-2.3-1.1-4.6-1.2c-2.2-0.1-5.2-0.3-8.4-1.2c-4.4-1.3-17.9-5.3-25.7,1.3
	C-576.5-60.3-578.3-53.1-577-43z"/>
<path fill="#010101" d="M-578.4-66l-7.9-8.8c-0.8-0.9-0.7-2.3,0.2-3.1c0.9-0.8,2.3-0.7,3.1,0.2l7.9,8.8c0.8,0.9,0.7,2.3-0.2,3.1
	c-0.4,0.4-1,0.6-1.5,0.6C-577.3-65.3-577.9-65.5-578.4-66z"/>
<path fill="#010101" d="M-581.3-59.9l-10.1-2.8c-1.2-0.3-1.9-1.6-1.6-2.7c0.3-1.2,1.6-1.9,2.7-1.6l10.1,2.8c1.2,0.3,1.9,1.6,1.6,2.7
	c-0.3,1-1.2,1.6-2.1,1.6C-580.9-59.8-581.1-59.9-581.3-59.9z"/>
<path fill="#010101" d="M-573.6-71l-1.5-10.2c-0.2-1.2,0.7-2.4,1.9-2.5c1.2-0.2,2.4,0.7,2.5,1.9l1.5,10.2c0.2,1.2-0.7,2.4-1.9,2.5
	c-0.1,0-0.2,0-0.3,0C-572.4-69.1-573.4-69.9-573.6-71z"/>
<circle fill="#010101" cx="-554.4" cy="-56.4" r="2.3"/>
<g>
	<path fill="#662D91" d="M220-667.8c-0.4,0-0.9-0.1-1.3-0.4c-1-0.7-1.3-2.1-0.6-3.1c0.9-1.4,1.6-3.7,1.9-5.7
		c-0.3,0.1-0.5,0.2-0.7,0.2c-2.9,0.9-4,1.2-5,0c-0.6-0.7-0.7-1.7-0.3-2.5c1.7-3.4,2.3-8.9,1.3-12.1c-0.4-1.2,0.3-2.4,1.4-2.8
		c1.2-0.4,2.4,0.3,2.8,1.4c1,3.1,0.9,7.4,0,11.2c2.2-0.7,3.1-0.8,4-0.2c0.6,0.4,0.9,1,1,1.7c0.3,3-0.6,8.2-2.7,11.2
		C221.4-668.1,220.7-667.8,220-667.8z"/>
	<path fill="#662D91" d="M215.6-655h-29c-9.4,0-13.6-5.3-14.3-10.2c-0.8-5.3,2.2-10.5,6.9-12c1.2-0.4,2.4,0.3,2.8,1.5
		s-0.3,2.4-1.5,2.8c-2.7,0.9-4.4,3.9-3.9,7.1c0.6,4,4.3,6.5,9.9,6.5h29c0.3,0,0.5-0.2,0.6-0.3c0.1-0.1,0.2-0.4,0.1-0.6
		c-0.2-0.6-0.6-1.2-2.1-1.2h-3.4c-1.7,0-3.5-1-4.4-2.4c-0.7-1.1-0.7-2.3-0.2-3.4c0.5-1,0.9-4.6-0.7-6.8c-1.1-1.5-2.8-2-5.5-1.6
		c-1.2,0.2-2.4-0.7-2.5-1.9c-0.2-1.2,0.7-2.4,1.9-2.5c5.4-0.8,8.3,1.4,9.7,3.4c2.4,3.3,2.3,8,1.3,10.7c0.1,0,0.2,0.1,0.2,0.1h3.4
		c3,0,5.3,1.4,6.3,4.1c0.6,1.6,0.4,3.4-0.6,4.8C218.9-655.9,217.3-655,215.6-655z"/>
	<path fill="#662D91" d="M232.1-655h-5.7c-1.2,0-2.2-1-2.2-2.2s1-2.2,2.2-2.2h5.7c0.3,0,0.5-0.2,0.6-0.3c0.1-0.1,0.2-0.4,0.1-0.6
		c-0.2-0.6-0.6-1.2-2.1-1.2h-0.3c-2.2,0-3.7-0.7-4.7-1.9c-1.7-2.2-0.9-5.3,0.1-9.3c1.3-5,3-11.7,0.6-19.1c-0.4-1.2,0.3-2.4,1.4-2.8
		c1.2-0.4,2.4,0.3,2.8,1.4c2.8,8.6,0.8,16.5-0.6,21.6c-0.5,2-1.2,4.8-0.9,5.4c0,0,0.3,0.2,1.2,0.2l0.2,0c3,0,5.3,1.4,6.3,4.1
		c0.6,1.6,0.4,3.4-0.6,4.8C235.4-655.9,233.8-655,232.1-655z"/>
	<path fill="#662D91" d="M230.2-728.4c-7.7-6.6-21.2-2.6-25.7-1.3c-3.3,1-6.3,1.1-8.4,1.2c-2.3,0.1-3.6,0.2-4.6,1.2
		c-1.7,1.7-2.3,4.5-1.7,7.5c0.6,3.2,2.4,5.7,4.9,6.9l0.3,0.1c3.3,1.5,10.9,4.9,11.9,8.8c0.3,1.3-2,3.5-4.6,6
		c-6,5.7-15.1,14.3-16,31.7c-0.1,1.2,0.9,2.3,2.1,2.3c0,0,0.1,0,0.1,0c1.2,0,2.2-0.9,2.2-2.1c0.8-15.6,8.8-23.2,14.6-28.7
		c3.8-3.6,6.8-6.4,5.9-10.3c-1.5-6-9.8-9.7-14.4-11.8l-0.3-0.1c-1.1-0.5-2-1.9-2.3-3.6c0-0.1,0-0.1,0-0.2c0.4,0.4,1,0.7,1.6,0.7
		c1.3,0,2.3-1.1,2.3-2.3c0-0.6-0.3-1.2-0.7-1.6c2.2-0.1,5.1-0.4,8.3-1.3c10.5-3.1,17.5-2.9,21.5,0.4c3.5,3,4.8,8.9,3.7,17.4
		c-0.3,2.8-2.1,5.3-3.8,5.5c-1.5,0.1-3.8-1.8-5.9-7.9c-0.4-1.2-1.7-1.8-2.8-1.4c-1.2,0.4-1.8,1.7-1.4,2.8
		c3.3,9.6,7.6,11.2,10.6,10.9c4.3-0.4,7.2-5.2,7.7-9.4C236.7-717.1,234.9-724.3,230.2-728.4z"/>
	<path fill="#662D91" d="M235.1-729.3c-0.5,0-1.1-0.2-1.5-0.6c-0.9-0.8-1-2.2-0.2-3.1l7.9-8.8c0.8-0.9,2.2-1,3.1-0.2
		c0.9,0.8,1,2.2,0.2,3.1l-7.9,8.8C236.3-729.5,235.7-729.3,235.1-729.3z"/>
	<path fill="#662D91" d="M239.1-723.8c-1,0-1.9-0.6-2.1-1.6c-0.3-1.2,0.4-2.4,1.6-2.7l10.1-2.8c1.2-0.3,2.4,0.4,2.7,1.6
		c0.3,1.2-0.4,2.4-1.6,2.7l-10.1,2.8C239.5-723.9,239.3-723.8,239.1-723.8z"/>
	<path fill="#662D91" d="M229.7-733.1c-0.1,0-0.2,0-0.3,0c-1.2-0.2-2.1-1.3-1.9-2.5l1.5-10.2c0.2-1.2,1.3-2.1,2.5-1.9
		c1.2,0.2,2.1,1.3,1.9,2.5l-1.5,10.2C231.8-733.9,230.8-733.1,229.7-733.1z"/>
	<circle fill="#662D91" cx="212.8" cy="-720.4" r="2.3"/>
</g>
<rect x="-555" y="-281.8" fill="none" width="306.9" height="62.7"/>
<text transform="matrix(1 0 0 1 -555.0119 -229.4172)" font-family="'ArialRoundedMTBold'" font-size="72">WagWa</text>
<g>
	<path fill="#010101" d="M-602.2-227.8c-2.1-3-3-8.2-2.7-11.2c0.1-0.7,0.5-1.3,1-1.7c0.9-0.6,1.9-0.5,4,0.2c-0.9-3.8-1-8.2,0-11.2
		c0.4-1.2,1.6-1.8,2.8-1.4c1.2,0.4,1.8,1.6,1.4,2.8c-1,3.2-0.4,8.7,1.3,12.1c0.4,0.8,0.3,1.8-0.3,2.5c-1,1.2-2.1,0.9-5,0
		c-0.2-0.1-0.5-0.1-0.7-0.2c0.3,2,0.9,4.3,1.9,5.7c0.7,1,0.4,2.4-0.6,3.1c-0.4,0.3-0.8,0.4-1.3,0.4
		C-601.1-226.9-601.8-227.2-602.2-227.8z"/>
	<path fill="#010101" d="M-600.2-216.3c-1-1.4-1.2-3.2-0.6-4.8c1-2.6,3.2-4.1,6.3-4.1h3.4c0.1,0,0.2,0,0.2-0.1
		c-1-2.7-1-7.4,1.3-10.7c1.4-2,4.3-4.2,9.7-3.4c1.2,0.2,2.1,1.3,1.9,2.5c-0.2,1.2-1.3,2.1-2.5,1.9c-2.6-0.4-4.4,0.1-5.5,1.6
		c-1.6,2.2-1.2,5.7-0.7,6.8c0.6,1.1,0.5,2.3-0.2,3.4c-0.9,1.4-2.6,2.4-4.4,2.4h-3.4c-1.5,0-1.9,0.6-2.1,1.2c-0.1,0.3,0,0.5,0.1,0.6
		c0.1,0.1,0.3,0.3,0.6,0.3h29c5.6,0,9.3-2.4,9.9-6.5c0.5-3.2-1.2-6.2-3.9-7.1c-1.2-0.4-1.8-1.6-1.5-2.8c0.4-1.2,1.6-1.8,2.8-1.5
		c4.8,1.5,7.7,6.7,6.9,12c-0.8,4.9-4.9,10.2-14.3,10.2h-29C-597.6-214.1-599.2-214.9-600.2-216.3z"/>
	<path fill="#010101" d="M-616.7-216.3c-1-1.4-1.2-3.2-0.6-4.8c1-2.6,3.2-4.1,6.3-4.1l0.2,0c0.9,0,1.2-0.2,1.2-0.2
		c0.3-0.7-0.4-3.4-0.9-5.4c-1.3-5.2-3.3-13-0.6-21.6c0.4-1.2,1.6-1.8,2.8-1.4c1.2,0.4,1.8,1.6,1.4,2.8c-2.4,7.4-0.6,14.2,0.6,19.1
		c1,3.9,1.8,7.1,0.1,9.3c-1,1.3-2.5,1.9-4.7,1.9h-0.3c-1.5,0-1.9,0.6-2.1,1.2c-0.1,0.3,0,0.5,0.1,0.6c0.1,0.1,0.3,0.3,0.6,0.3h5.7
		c1.2,0,2.2,1,2.2,2.2s-1,2.2-2.2,2.2h-5.7C-614.1-214.1-615.7-214.9-616.7-216.3z"/>
	<path fill="#010101" d="M-615.8-266c0.5,4.2,3.4,9,7.7,9.4c3,0.3,7.3-1.3,10.6-10.9c0.4-1.2-0.2-2.4-1.4-2.8
		c-1.2-0.4-2.4,0.2-2.8,1.4c-2.1,6.1-4.5,8.1-5.9,7.9c-1.7-0.2-3.4-2.8-3.8-5.5c-1.1-8.6,0.2-14.4,3.7-17.4c4-3.4,11-3.5,21.5-0.4
		c3.2,0.9,6.1,1.2,8.3,1.3c-0.4,0.4-0.7,1-0.7,1.6c0,1.3,1,2.3,2.3,2.3c0.6,0,1.2-0.3,1.6-0.7c0,0.1,0,0.1,0,0.2
		c-0.3,1.7-1.2,3.1-2.3,3.6l-0.3,0.1c-4.5,2-12.9,5.8-14.4,11.8c-0.9,3.8,2.1,6.7,5.9,10.3c5.8,5.5,13.8,13.1,14.6,28.7
		c0.1,1.2,1,2.1,2.2,2.1c0,0,0.1,0,0.1,0c1.2-0.1,2.2-1.1,2.1-2.3c-0.9-17.4-10-26-16-31.7c-2.6-2.5-4.9-4.7-4.6-6
		c0.9-3.8,8.6-7.3,11.9-8.8l0.3-0.1c2.5-1.1,4.3-3.7,4.9-6.9c0.6-3-0.1-5.8-1.7-7.5c-1-1-2.3-1-4.6-1.2c-2.2-0.1-5.2-0.3-8.4-1.2
		c-4.4-1.3-17.9-5.3-25.7,1.3C-615.3-283.4-617-276.2-615.8-266z"/>
	<path fill="#010101" d="M-617.1-289.1l-7.9-8.8c-0.8-0.9-0.7-2.3,0.2-3.1c0.9-0.8,2.3-0.7,3.1,0.2l7.9,8.8c0.8,0.9,0.7,2.3-0.2,3.1
		c-0.4,0.4-1,0.6-1.5,0.6C-616.1-288.3-616.7-288.6-617.1-289.1z"/>
	<path fill="#010101" d="M-620-283l-10.1-2.8c-1.2-0.3-1.9-1.6-1.6-2.7c0.3-1.2,1.6-1.9,2.7-1.6l10.1,2.8c1.2,0.3,1.9,1.6,1.6,2.7
		c-0.3,1-1.2,1.6-2.1,1.6C-619.6-282.9-619.8-282.9-620-283z"/>
	<path fill="#010101" d="M-612.3-294.1l-1.5-10.2c-0.2-1.2,0.7-2.4,1.9-2.5c1.2-0.2,2.4,0.7,2.5,1.9l1.5,10.2
		c0.2,1.2-0.7,2.4-1.9,2.5c-0.1,0-0.2,0-0.3,0C-611.2-292.2-612.1-293-612.3-294.1z"/>
	<circle fill="#010101" cx="-593.1" cy="-279.5" r="2.3"/>
</g>
<rect x="261.3" y="-731.1" fill="none" width="341.8" height="89.9"/>
<text transform="matrix(1 0 0 1 261.3408 -651.5682)" fill="#662D91" font-family="'OstrichSans-Medium'" font-size="112">wagwa</text>
<rect x="551.2" y="-437.8" fill="none" width="438" height="93.3"/>
<text transform="matrix(1 0 0 1 551.2408 -368.1745)" font-family="'Oxygen'" font-size="98">wag wag</text>
<g>
	<path fill="#662D91" d="M1333.6-130.2c-2.1-3-3-8.2-2.7-11.2c0.1-0.7,0.5-1.3,1-1.7c0.9-0.6,1.9-0.5,4,0.2c-0.9-3.8-1-8.2,0-11.2
		c0.4-1.2,1.6-1.8,2.8-1.4c1.2,0.4,1.8,1.6,1.4,2.8c-1,3.2-0.4,8.7,1.3,12.1c0.4,0.8,0.3,1.8-0.3,2.5c-1,1.2-2.1,0.9-5,0
		c-0.2-0.1-0.5-0.1-0.7-0.2c0.3,2,0.9,4.3,1.9,5.7c0.7,1,0.4,2.4-0.6,3.1c-0.4,0.3-0.8,0.4-1.3,0.4
		C1334.7-129.2,1334-129.5,1333.6-130.2z"/>
	<path fill="#662D91" d="M1335.5-118.7c-1-1.4-1.2-3.2-0.6-4.8c1-2.6,3.2-4.1,6.3-4.1h3.4c0.1,0,0.2,0,0.2-0.1
		c-1-2.7-1-7.4,1.3-10.7c1.4-2,4.3-4.2,9.7-3.4c1.2,0.2,2.1,1.3,1.9,2.5c-0.2,1.2-1.3,2.1-2.5,1.9c-2.6-0.4-4.4,0.1-5.5,1.6
		c-1.6,2.2-1.2,5.7-0.7,6.8c0.6,1.1,0.5,2.3-0.2,3.4c-0.9,1.4-2.6,2.4-4.4,2.4h-3.4c-1.5,0-1.9,0.6-2.1,1.2c-0.1,0.3,0,0.5,0.1,0.6
		c0.1,0.1,0.3,0.3,0.6,0.3h29c5.6,0,9.3-2.4,9.9-6.5c0.5-3.2-1.2-6.2-3.9-7.1c-1.2-0.4-1.8-1.6-1.5-2.8s1.6-1.8,2.8-1.5
		c4.8,1.5,7.7,6.7,6.9,12c-0.8,4.9-4.9,10.2-14.3,10.2h-29C1338.1-116.4,1336.5-117.3,1335.5-118.7z"/>
	<path fill="#662D91" d="M1319-118.7c-1-1.4-1.2-3.2-0.6-4.8c1-2.6,3.2-4.1,6.3-4.1l0.2,0c0.9,0,1.2-0.2,1.2-0.2
		c0.3-0.7-0.4-3.4-0.9-5.4c-1.3-5.2-3.3-13-0.6-21.6c0.4-1.2,1.6-1.8,2.8-1.4c1.2,0.4,1.8,1.6,1.4,2.8c-2.4,7.4-0.6,14.2,0.6,19.1
		c1,3.9,1.8,7.1,0.1,9.3c-1,1.3-2.5,1.9-4.7,1.9h-0.3c-1.5,0-1.9,0.6-2.1,1.2c-0.1,0.3,0,0.5,0.1,0.6c0.1,0.1,0.3,0.3,0.6,0.3h5.7
		c1.2,0,2.2,1,2.2,2.2s-1,2.2-2.2,2.2h-5.7C1321.6-116.4,1320-117.3,1319-118.7z"/>
	<path fill="#662D91" d="M1320-168.4c0.5,4.2,3.4,9,7.7,9.4c3,0.3,7.3-1.3,10.6-10.9c0.4-1.2-0.2-2.4-1.4-2.8
		c-1.2-0.4-2.4,0.2-2.8,1.4c-2.1,6.1-4.5,8.1-5.9,7.9c-1.7-0.2-3.4-2.8-3.8-5.5c-1.1-8.6,0.2-14.4,3.7-17.4c4-3.4,11-3.5,21.5-0.4
		c3.2,0.9,6.1,1.2,8.3,1.3c-0.4,0.4-0.7,1-0.7,1.6c0,1.3,1.1,2.3,2.3,2.3c0.6,0,1.2-0.3,1.6-0.7c0,0.1,0,0.1,0,0.2
		c-0.3,1.7-1.2,3.1-2.3,3.6l-0.3,0.1c-4.5,2-12.9,5.8-14.4,11.8c-0.9,3.8,2.1,6.7,5.9,10.3c5.8,5.5,13.8,13.1,14.6,28.7
		c0.1,1.2,1,2.1,2.2,2.1c0,0,0.1,0,0.1,0c1.2-0.1,2.2-1.1,2.1-2.3c-0.9-17.4-10-26-16-31.7c-2.6-2.5-4.9-4.7-4.6-6
		c0.9-3.8,8.6-7.3,11.9-8.8l0.3-0.1c2.5-1.1,4.3-3.7,4.9-6.9c0.6-3-0.1-5.8-1.7-7.5c-1-1-2.3-1.1-4.6-1.2c-2.2-0.1-5.2-0.3-8.4-1.2
		c-4.4-1.3-17.9-5.3-25.7,1.3C1320.5-185.7,1318.7-178.5,1320-168.4z"/>
	<path fill="#662D91" d="M1318.7-191.4l-7.9-8.8c-0.8-0.9-0.7-2.3,0.2-3.1c0.9-0.8,2.3-0.7,3.1,0.2l7.9,8.8c0.8,0.9,0.7,2.3-0.2,3.1
		c-0.4,0.4-1,0.6-1.5,0.6C1319.7-190.7,1319.1-190.9,1318.7-191.4z"/>
	<path fill="#662D91" d="M1315.8-185.3l-10.1-2.8c-1.2-0.3-1.9-1.6-1.6-2.7c0.3-1.2,1.6-1.9,2.7-1.6l10.1,2.8
		c1.2,0.3,1.9,1.6,1.6,2.7c-0.3,1-1.2,1.6-2.1,1.6C1316.2-185.2,1316-185.3,1315.8-185.3z"/>
	<path fill="#662D91" d="M1323.5-196.4l-1.5-10.2c-0.2-1.2,0.7-2.4,1.9-2.5c1.2-0.2,2.4,0.7,2.5,1.9l1.5,10.2
		c0.2,1.2-0.7,2.4-1.9,2.5c-0.1,0-0.2,0-0.3,0C1324.6-194.5,1323.6-195.3,1323.5-196.4z"/>
	<circle fill="#662D91" cx="1342.7" cy="-181.8" r="2.3"/>
</g>
<g>
	<path fill="#FFFFFF" d="M103.4,194.7h-7.5l-27.3-78.5l-27.5,78.5h-7.5L0,102.4h9.9l27.7,80.5L65.2,102h7l27.7,80.8l27.7-80.5h9.5
		L103.4,194.7z"/>
	<path fill="#FFFFFF" d="M221.8,194v-15.3c-6.3,8.8-17.6,17.4-35,17.4c-17.1,0-35.4-9.7-35.4-28.7V167c0-19,16.3-29.8,40-29.8
		c12.8,0,21.6,1.6,30.4,4v-4c0-18.5-11.3-28-30.2-28c-11.1,0-20.3,3.1-28.7,7.4l-3.2-7.7c10.1-4.7,19.9-7.9,32.5-7.9
		c23.5,0,38.3,12.2,38.3,35.9V194H221.8z M222,149.3c-7.7-2-18-4.1-31.1-4.1c-19.4,0-30.2,8.6-30.2,21.4v0.4c0,13.3,12.6,21,26.6,21
		c18.7,0,34.7-11.5,34.7-28.2V149.3z"/>
	<path fill="#FFFFFF" d="M302.2,223.1c-15.3,0-29.5-4.7-42-14l5.2-7.2c11,8.4,23.5,12.9,37,12.9c21,0,35.9-12,35.9-35.6V166
		c-7.9,11.3-20.1,21.2-38.3,21.2c-22.1,0-44-16.9-44-43.1v-0.4c0-26.4,21.9-43.5,44-43.5c18.3,0,30.7,9.7,38.3,20.5v-18.3h8.8v77.4
		C347.1,207.6,328.3,223.1,302.2,223.1z M338.9,143.5c0-21.2-18.9-34.8-37.9-34.8c-19.2,0-35.4,13.3-35.4,34.7v0.4
		c0,20.7,16.5,35,35.4,35c19,0,37.9-14,37.9-34.8V143.5z"/>
</g>
<g>
	<path fill="#FFFFFF" d="M686.1,194.7h-7.5l-27.3-78.5l-27.5,78.5h-7.5l-33.6-92.3h9.9l27.7,80.5l27.7-80.8h7l27.7,80.8l27.7-80.5
		h9.5L686.1,194.7z"/>
	<path fill="#FFFFFF" d="M804.5,194v-15.3c-6.3,8.8-17.6,17.4-35,17.4c-17.1,0-35.4-9.7-35.4-28.7V167c0-19,16.3-29.8,40-29.8
		c12.8,0,21.6,1.6,30.4,4v-4c0-18.5-11.3-28-30.2-28c-11.1,0-20.3,3.1-28.7,7.4l-3.2-7.7c10.1-4.7,19.9-7.9,32.5-7.9
		c23.5,0,38.3,12.2,38.3,35.9V194H804.5z M804.7,149.3c-7.7-2-18-4.1-31.1-4.1c-19.4,0-30.2,8.6-30.2,21.4v0.4
		c0,13.3,12.6,21,26.6,21c18.7,0,34.7-11.5,34.7-28.2V149.3z"/>
	<path fill="#FFFFFF" d="M884.9,223.1c-15.3,0-29.5-4.7-42-14l5.2-7.2c11,8.4,23.5,12.9,37,12.9c21,0,35.9-12,35.9-35.6V166
		c-7.9,11.3-20.1,21.2-38.3,21.2c-22.1,0-44-16.9-44-43.1v-0.4c0-26.4,21.9-43.5,44-43.5c18.3,0,30.7,9.7,38.3,20.5v-18.3h8.8v77.4
		C929.8,207.6,911,223.1,884.9,223.1z M921.6,143.5c0-21.2-18.9-34.8-37.9-34.8c-19.2,0-35.4,13.3-35.4,34.7v0.4
		c0,20.7,16.5,35,35.4,35c19,0,37.9-14,37.9-34.8V143.5z"/>
</g>
<rect x="272.2" y="-506.9" fill="none" width="153" height="162.5"/>
<text transform="matrix(1 0 0 1 272.2119 -455.7771)"><tspan x="0" y="0" fill="#662D91" font-family="'GothamBook'" font-size="72">wag</tspan><tspan x="0" y="86.4" fill="#662D91" font-family="'GothamLight'" font-size="72">wag</tspan></text>
<rect x="1298" y="-268.2" fill="none" width="104" height="228.8"/>
<text transform="matrix(1 0 0 1 1298.0145 -217.1054)"><tspan x="0" y="0" font-family="'OstrichSans-Medium'" font-size="72">wa</tspan><tspan x="0" y="86.4" font-family="'OstrichSans-Medium'" font-size="72">g</tspan></text>
<g>
	<path fill="#FFFFFF" d="M448,197.3c-5.2-7.6-7.6-20.4-6.8-28c0.2-1.7,1.2-3.3,2.5-4.2c2.3-1.5,4.6-1.2,10.1,0.4
		c-2.3-9.6-2.5-20.4,0-28c0.9-2.9,4.1-4.5,7-3.6c2.9,0.9,4.5,4.1,3.6,7c-2.5,8-1.1,21.8,3.1,30.2c1,2,0.7,4.5-0.7,6.2
		c-2.6,3.1-5.3,2.2-12.6,0c-0.5-0.2-1.1-0.4-1.8-0.5c0.7,5,2.3,10.8,4.7,14.2c1.7,2.5,1.1,6-1.4,7.7c-1,0.7-2.1,1-3.1,1
		C450.8,199.7,449.1,198.9,448,197.3z"/>
	<path fill="#FFFFFF" d="M453,226c-2.4-3.5-2.9-7.9-1.4-11.9c2.5-6.5,8.1-10.1,15.6-10.1h8.6c0.2,0,0.4-0.1,0.6-0.1
		c-2.4-6.7-2.6-18.4,3.3-26.6c3.6-5,10.8-10.5,24.3-8.4c3,0.5,5.1,3.3,4.7,6.3c-0.5,3-3.3,5.1-6.3,4.7c-6.5-1-11,0.3-13.6,4
		c-4,5.5-3,14.3-1.6,16.9c1.4,2.7,1.2,5.8-0.4,8.6c-2.1,3.5-6.6,5.9-10.9,5.9h-8.6c-3.8,0-4.7,1.5-5.2,3c-0.3,0.7,0,1.2,0.2,1.6
		c0.2,0.3,0.7,0.8,1.5,0.8h72.4c14,0,23.2-6,24.8-16.1c1.2-7.9-2.9-15.5-9.6-17.6c-2.9-0.9-4.6-4.1-3.6-7s4-4.5,7-3.6
		c11.9,3.8,19.3,16.6,17.3,29.9c-1.9,12.3-12.3,25.5-35.8,25.5h-72.4C459.4,231.6,455.4,229.5,453,226z"/>
	<path fill="#FFFFFF" d="M411.8,226c-2.4-3.5-2.9-7.9-1.4-11.9c2.5-6.5,8-10.1,15.6-10.1l0.6,0c2.3,0,3-0.4,3-0.4
		c0.8-1.6-0.9-8.5-2.2-13.6c-3.3-12.9-8.3-32.4-1.4-53.9c0.9-2.9,4.1-4.5,7-3.6c2.9,0.9,4.5,4.1,3.6,7c-5.9,18.5-1.6,35.4,1.6,47.8
		c2.5,9.8,4.5,17.6,0.3,23.1c-2.4,3.1-6.2,4.7-11.7,4.8H426c-3.8,0-4.7,1.5-5.2,3c-0.3,0.7,0,1.2,0.2,1.6c0.2,0.3,0.7,0.8,1.5,0.8
		h14.2c3.1,0,5.6,2.5,5.6,5.6c0,3.1-2.5,5.6-5.6,5.6h-14.2C418.2,231.6,414.3,229.5,411.8,226z"/>
	<path fill="#FFFFFF" d="M414.2,102c1.3,10.5,8.5,22.3,19.3,23.4c7.5,0.8,18.2-3.3,26.5-27.3c1-2.9-0.6-6.1-3.5-7.1
		c-2.9-1-6.1,0.6-7.1,3.5c-5.2,15.2-11.2,20.1-14.8,19.8c-4.1-0.4-8.5-6.9-9.4-13.8c-2.7-21.3,0.5-36,9.3-43.5
		c9.9-8.4,27.5-8.8,53.6-1.1c8,2.4,15.3,3,20.8,3.3c-1,1.1-1.6,2.5-1.6,4.1c0,3.2,2.6,5.9,5.9,5.9c1.6,0,3-0.6,4.1-1.7
		c0,0.2,0,0.3-0.1,0.5c-0.8,4.3-3,7.8-5.8,9l-0.8,0.4c-11.2,5.1-32.2,14.5-35.8,29.3c-2.3,9.6,5.2,16.6,14.7,25.6
		C504,146.2,523.9,165,526,204c0.2,3,2.6,5.3,5.5,5.3c0.1,0,0.2,0,0.3,0c3.1-0.2,5.4-2.8,5.3-5.8c-2.3-43.5-25-64.9-40-79.1
		c-6.6-6.2-12.3-11.6-11.5-14.9c2.3-9.6,21.4-18.2,29.6-21.8l0.8-0.4c6.1-2.8,10.7-9.2,12.2-17.1c1.4-7.5-0.2-14.6-4.3-18.8
		c-2.4-2.4-5.8-2.6-11.4-2.9c-5.4-0.3-12.9-0.7-21.1-3.1c-11-3.2-44.7-13.1-64,3.3C415.5,58.8,411.1,76.7,414.2,102z"/>
	<path fill="#FFFFFF" d="M410.9,44.6l-19.7-22c-2-2.3-1.8-5.8,0.4-7.9c2.3-2,5.8-1.8,7.9,0.4l19.7,22c2,2.3,1.8,5.8-0.4,7.9
		c-1.1,0.9-2.4,1.4-3.7,1.4C413.5,46.5,412,45.8,410.9,44.6z"/>
	<path fill="#FFFFFF" d="M403.7,59.8l-25.1-7c-3-0.8-4.7-3.9-3.9-6.8c0.8-3,3.9-4.7,6.8-3.9l25.1,7c3,0.8,4.7,3.9,3.9,6.8
		c-0.7,2.5-2.9,4.1-5.4,4.1C404.7,60,404.2,59.9,403.7,59.8z"/>
	<path fill="#FFFFFF" d="M422.9,32.1l-3.8-25.5c-0.5-3,1.6-5.9,4.7-6.3c3-0.4,5.9,1.6,6.3,4.7l3.8,25.5c0.5,3-1.6,5.9-4.7,6.3
		c-0.3,0-0.6,0.1-0.8,0.1C425.7,36.8,423.3,34.9,422.9,32.1z"/>
	<circle fill="#FFFFFF" cx="470.8" cy="68.5" r="5.9"/>
</g>
<polygon fill="#010101" points="1319.4,297.6 1319.4,294.6 1327.7,294.6 1330.5,290.5 1311,276.6 1311,291.3 "/>
<path fill="#010101" d="M1326.8,311.2l-7.5-5v-5.1l-8.6-6.6l-20.6-6.6v-3.7c0-1.1-0.9-2.1-2.1-2.1c-1.2,0-2.1,0.9-2.1,2.1v8.5
	l-15.3,7.1c-1.7,0.8-2.5,2.9-1.7,4.6c0.6,1.3,1.8,2,3.2,2c0.5,0,1-0.1,1.5-0.3l3.7-1.7c-0.4,0.9-0.4,1.9,0,2.8c0.6,1.3,1.8,2,3.2,2
	c0.5,0,1-0.1,1.5-0.3l12.3-5.7l25.6,23.2c0.7,0.6,1.5,0.9,2.3,0.9c0.9,0,1.9-0.4,2.6-1.1c1.3-1.4,1.2-3.6-0.2-4.9l-10.1-9.1l0.5-0.5
	l8.1,5.4c0.6,0.4,1.3,0.6,1.9,0.6c1.1,0,2.2-0.5,2.9-1.5C1328.9,314.4,1328.4,312.2,1326.8,311.2z"/>
<circle fill="#010101" cx="1340.9" cy="305" r="6.2"/>
<path fill="#010101" d="M1304.1,353l50,0V321C1330.5,325.2,1304.1,353,1304.1,353z"/>
<path fill="#010101" d="M1300.1,349.1c0.6-0.6,8.6-9,19.7-17.2c-19.6-10.3-44.3-20.6-65.7-20.6l0,41.7h42.3L1300.1,349.1z"/>
<circle fill="#010101" cx="1342.3" cy="292.6" r="2.1"/>
<circle fill="#010101" cx="1342.3" cy="284.2" r="2.1"/>
<circle fill="#010101" cx="1339.5" cy="275.9" r="2.1"/>
<circle fill="#010101" cx="1335.3" cy="268.9" r="2.1"/>
<circle fill="#010101" cx="1328.4" cy="264.8" r="2.1"/>
<circle fill="#010101" cx="1320.1" cy="264.8" r="2.1"/>
<circle fill="#010101" cx="1311.7" cy="267.6" r="2.1"/>
<circle fill="#010101" cx="1304.8" cy="271.7" r="2.1"/>
<circle fill="#010101" cx="1302" cy="264.8" r="2.1"/>
<circle fill="#010101" cx="1299.2" cy="257.8" r="2.1"/>
<circle fill="#010101" cx="1292.3" cy="255.1" r="2.1"/>
<circle fill="#010101" cx="1285.3" cy="257.8" r="2.1"/>
</svg>
