<?xml version="1.0" encoding="utf-8"?>
<!-- Generator: Adobe Illustrator 17.1.0, SVG Export Plug-In . SVG Version: 6.00 Build 0)  -->
<!DOCTYPE svg PUBLIC "-//W3C//DTD SVG 1.1//EN" "http://www.w3.org/Graphics/SVG/1.1/DTD/svg11.dtd">
<svg version="1.1" id="Layer_1" xmlns="http://www.w3.org/2000/svg" xmlns:xlink="http://www.w3.org/1999/xlink" x="0px" y="0px"
	 viewBox="0 0 168 153" enable-background="new 0 0 168 153" xml:space="preserve">
<g>
	<path fill="#FFFFFF" d="M158.7,31.2c-6.9-7.7-17.8-11.5-33.3-11.5c-10.7,0-20.5,5-28.3,14.6c-1.4,1.7-2.6,3.5-3.7,5.1
		c-1-1.6-2.3-3.4-3.7-5.1C82,24.7,72.2,19.7,61.5,19.7c-15.5,0-26.4,3.8-33.4,11.5c-8.1,9-10.6,22.8-8.2,44.6
		c1.6,14.8,14.2,32,37.4,51.2c16.8,13.9,32.9,23.7,33.6,24.1l2.6,1.6l2.6-1.6c0.4-0.3,7.4-4.5,16.8-11.3c-1.6-0.8-3-1.9-4.1-3.2
		c-8.9,6.3-15.3,10.2-15.3,10.2s-65-39.2-68.6-71.6c-3.6-32.7,3.6-50.6,36.6-50.6c22.5,0,32,25.5,32,25.5s9.4-25.5,31.9-25.5
		c33,0,40.1,17.9,36.5,50.6c-0.4,3.8-1.7,7.7-3.6,11.6c0.8,0.3,1.7,0.6,2.4,1.1c0.7,0.4,1.3,0.9,1.9,1.5c2.4-4.8,3.8-9.3,4.3-13.6
		C169.3,54,166.8,40.2,158.7,31.2z"/>
	<g>
		<path fill="#FFFFFF" d="M20.5,24.9L9.5,12.7c-1.1-1.3-1-3.2,0.2-4.4c1.3-1.1,3.2-1,4.4,0.2l10.9,12.2c1.1,1.3,1,3.2-0.2,4.4
			c-0.6,0.5-1.3,0.8-2.1,0.8C21.9,26,21.1,25.6,20.5,24.9z"/>
		<path fill="#FFFFFF" d="M16.4,33.4L2.5,29.5c-1.6-0.5-2.6-2.2-2.1-3.8c0.5-1.6,2.2-2.6,3.8-2.1l13.9,3.9c1.6,0.5,2.6,2.2,2.1,3.8
			c-0.4,1.4-1.6,2.3-3,2.3C17,33.5,16.7,33.5,16.4,33.4z"/>
		<path fill="#FFFFFF" d="M27.1,18L25,3.8c-0.3-1.7,0.9-3.3,2.6-3.5c1.7-0.2,3.3,0.9,3.5,2.6l2.1,14.2c0.3,1.7-0.9,3.3-2.6,3.5
			c-0.2,0-0.3,0-0.5,0C28.7,20.6,27.4,19.5,27.1,18z"/>
	</g>
	<g>
		<path fill="#FFFFFF" d="M123.3,108.2c-0.4,0.9-0.7,1.8-1,2.8c-0.7,2.4-1.5,5.2-5.1,7.2c-3.5,1.9-4.4,6.7-3.5,10.1
			c0.8,3.1,2.8,4.6,5.9,4.6c1.2,0,2.5-0.2,3.8-0.7c0.3-0.1,0.7,0.1,1.1-0.1c1.8-0.7,3.7-1.1,5.9-1.1h0.1c2.5,0,4.5,0.5,6.2,1.3
			c1.4,0.6,2.6,1,3.8,1c0.6,0,1.3-0.2,2-0.6c2.9-1.3,4.8-4.4,4.8-7.7c0-3-1.8-5.4-5.5-7.7c-0.9-0.5-1.7-1.3-2.3-2.1
			c-1-1.4-1.5-3-1.9-4.4c-0.3-1.1-0.6-2-1.1-2.8c-1.5-2.5-3.7-3.7-6.5-3.7C127.1,104.3,124.4,105.9,123.3,108.2z"/>
		<path fill="#FFFFFF" d="M106,94.8c-0.6,0-1.1,0.1-1.5,0.4c-1.3,0.8-1.6,2.7-1.6,3.7c-0.1,2.1,0.7,4.7,2.1,6.9
			c2.4,3.9,5.7,5.7,7.7,5.7c0.6,0,1.1-0.1,1.5-0.4c1.3-0.8,1.6-2.7,1.6-3.7c0.1-2.1-0.7-4.7-2.1-6.9C111.3,96.6,108,94.8,106,94.8z"
			/>
		<path fill="#FFFFFF" d="M120,79.4c-0.2,0-0.3,0-0.5,0.1c-1.5,0.3-2.4,2-2.7,2.9c-0.8,2-0.9,4.6-0.4,7.2c1,5,4.1,8.1,6.4,8.1
			c0.2,0,0.3,0,0.5-0.1c2.4-0.5,4.2-4.8,3.1-10.2C125.4,82.5,122.3,79.4,120,79.4z"/>
		<path fill="#FFFFFF" d="M156.3,95.2c-0.4-0.3-0.9-0.4-1.5-0.4c-2,0-5.3,1.8-7.7,5.7c-1.4,2.3-2.1,4.8-2.1,6.9c0,1,0.3,2.9,1.6,3.7
			c0.4,0.3,0.9,0.4,1.5,0.4c2,0,5.3-1.8,7.7-5.7c1.4-2.3,2.1-4.8,2.1-6.9C157.8,97.8,157.6,96,156.3,95.2z"/>
		<path fill="#FFFFFF" d="M141.2,79.4c-0.2,0-0.3-0.1-0.5-0.1c-2.3,0-5.3,3.1-6.4,8.1c-0.5,2.6-0.4,5.2,0.4,7.2
			c0.4,1,1.2,2.6,2.7,2.9c0.2,0,0.3,0.1,0.5,0.1c2.3,0,5.3-3.1,6.4-8.1C145.4,84.2,143.6,79.9,141.2,79.4z"/>
	</g>
</g>
</svg>
