<?xml version="1.0" encoding="utf-8"?>
<!-- Generator: Adobe Illustrator 17.1.0, SVG Export Plug-In . SVG Version: 6.00 Build 0)  -->
<!DOCTYPE svg PUBLIC "-//W3C//DTD SVG 1.1//EN" "http://www.w3.org/Graphics/SVG/1.1/DTD/svg11.dtd">
<svg version="1.1" id="Layer_1" xmlns="http://www.w3.org/2000/svg" xmlns:xlink="http://www.w3.org/1999/xlink" x="0px" y="0px"
	 viewBox="0 0 258 206.4" enable-background="new 0 0 258 206.4" xml:space="preserve">
<g>
	<path fill="#F1F0F0" d="M255,162c0,11-9,20-20,20h-46.5l-4.2,19.8c-0.4,1.9-3,2.2-3.8,0.4L172,182H23c-11,0-20-9-20-20V23
		C3,12,12,3,23,3h212c11,0,20,9,20,20V162z"/>
	<path fill="#00B4B4" d="M182.4,206.4c-2,0-3.8-1.2-4.6-3.1L170,185H23c-12.7,0-23-10.3-23-23V23C0,10.3,10.3,0,23,0h212
		c12.7,0,23,10.3,23,23v139c0,12.7-10.3,23-23,23h-44.1l-3.7,17.4C186.8,204.7,184.7,206.4,182.4,206.4z M23,6C13.6,6,6,13.6,6,23
		v139c0,9.4,7.6,17,17,17h151l8.1,19l4-19H235c9.4,0,17-7.6,17-17V23c0-9.4-7.6-17-17-17H23z"/>
</g>
<g>
	<g>
		<path fill="#F16232" d="M119.5,82c0,3.6-2.7,5.8-5.8,5.8c-3.2,0-5.9-2.2-5.9-5.8c0-3.6,2.7-5.9,5.9-5.9
			C116.8,76.2,119.5,78.4,119.5,82z M119.5,112.5c0,3.6-2.7,5.8-5.8,5.8c-3.2,0-5.9-2.2-5.9-5.8s2.7-5.8,5.9-5.8
			C116.8,106.6,119.5,108.9,119.5,112.5z"/>
	</g>
	<g>
		<path fill="#F16232" d="M142.2,98.5v-4.7c0-14.1-4.7-25.6-12.6-33c-0.7-0.7-1.2-1.7-1.2-2.8c0-2,1.6-3.6,3.7-3.6
			c2.1,0,3.1,1.4,4.4,2.8c8.3,8.5,13.8,21.1,13.8,36.6v4.7c0,15.6-5.5,28.1-13.8,36.6c-1.3,1.3-2.8,2.8-4.4,2.8
			c-2.1,0-3.7-1.7-3.7-3.7c0-1.1,0.4-2.1,1.2-2.7C137.5,124.2,142.2,112.6,142.2,98.5z"/>
	</g>
</g>
</svg>
