<?xml version="1.0" encoding="utf-8"?>
<!-- Generator: Adobe Illustrator 17.1.0, SVG Export Plug-In . SVG Version: 6.00 Build 0)  -->
<!DOCTYPE svg PUBLIC "-//W3C//DTD SVG 1.1//EN" "http://www.w3.org/Graphics/SVG/1.1/DTD/svg11.dtd">
<svg version="1.1" id="Layer_1" xmlns="http://www.w3.org/2000/svg" xmlns:xlink="http://www.w3.org/1999/xlink" x="0px" y="0px"
	 viewBox="0 0 147.6 154.6" enable-background="new 0 0 147.6 154.6" xml:space="preserve">
<path fill="#FFFFFF" d="M136.9,35.9c-4.8-1.5-8.2,7.7-8.9,9.7c-2.1,5.5-4.9,11.2-7.2,16.7c-1,2.4-4.8,12.6-6.8,14.7
	c-3.3,3.5-6.3,1.5-5.7-2.8c0.9-5.8,2.7-14.4,3.5-20.2c0.7-5.6,1.4-8.2,1.9-13.8C114,37.2,116,26,116,22.5c0-3.6,0.3-8.2-4.1-8.7
	c-5.4-0.6-6.2,2.8-7.1,6c-1.6,6-1.8,10.1-2.6,14.4c-1.7,8.8-2.8,15.8-4.9,24.5c-0.5,2.2-1.5,10.9-5.8,8.3
	c-4.4-2.7-1.3-24.1-1.2-28.2c0.3-12.1,0.1-14.7,0.6-26.8C91,7.9,91,2.9,84.4,2.5c-8.3-0.5-6.9,15.3-7.5,21.4
	c-1.4,12.3-0.6,21.4-1.5,37.9c-0.1,2.6,0.9,9.5-4,7.7c-2.5-0.9-5.8-19.8-7-24.4c-2.1-7.8-3.5-12-5.1-18.3
	c-2.2-8.2-5.3-13.3-10.1-11.3c-5.1,2.2-4.3,4.7-2.8,12.1c0.7,3.6,3,14.4,4,20.1c0.9,5.7,6.3,28.2,6.3,28.2c0.6,2.1-0.4,7.4-0.7,9.6
	c-1,8-1.3,8.7-3.1,11.8c-2.5,4.3-5.3,6.2-10.9,2.1c-1.7-1.3-4.4-8.7-12.6-16.2c-6.9-6.4-21.3-10.7-25.9-6.1c-1.6,1.6-1.5,5.9,1.8,8
	c3.7,2.4,6.9,5,10.1,8c2.3,2.1,4.9,4,6.6,6.6c1.5,2.3,2.5,4.8,4.2,7.1c2.9,4,3.8,8.9,6.3,13.2c2.4,4.2,6.3,7.3,9.1,11.4
	c5.9,8.6,9,12.9,14.4,17.1c8,6.3,21.9,0.4,29.5,0.9c4.9,0.3,11.8,3.6,16.3,2.2c7.5-2.4,11.6-9.9,12.6-11.9c1.8-3.7,3.6-7.5,4.7-11.5
	c2.3-9,3.7-20.9,3.8-27.9c0-2.9-0.5-8.9,0.8-11.5c0,0,6.2-17,9.4-25.6c3.2-8.6,3.6-9.7,5.7-16.8C140.7,38.9,140.2,36.9,136.9,35.9z"
	/>
<g>
	<g>
		<path fill="#F16232" d="M126.2,130.3c-1.4-2-1.6-4.9-2.9-7.1c-1.9-3.2-5-4.9-8.7-4.9c-3.6,0-7.3,2-8.9,5.4c-1.7,3.6-1.2,6.7-5,8.8
			c-4.5,2.5-5.9,8.3-4.7,13c1.7,6.2,7.2,7.6,12.9,5.6c1.9-0.7,4-1.6,6.1-1.7c4.9-0.1,7.9,4.5,13.1,2.1c3.8-1.8,6.2-5.7,6.2-9.9
			c0-4.5-3.1-7.6-6.7-9.8C127.1,131.3,126.6,130.8,126.2,130.3z"/>
		<path fill="#FFFFFF" d="M125.2,154.6L125.2,154.6c-2.2,0-4.1-0.8-5.8-1.6c-1.5-0.7-2.8-1.2-4.2-1.2c-1.3,0-2.8,0.6-4.3,1.1
			c-0.4,0.1-0.8,0.3-1.1,0.4c-1.9,0.7-3.7,1-5.5,1c-5.4,0-9.3-3-10.7-8.3c-1.5-5.4,0-12.6,5.9-15.8c1.8-1,2.1-2.1,2.7-4.2
			c0.3-1,0.6-2.2,1.2-3.5c1.9-4.1,6.4-6.8,11.1-6.8c4.6,0,8.5,2.2,10.8,6.1c0.8,1.3,1.2,2.7,1.6,3.9c0.4,1.2,0.7,2.3,1.2,3
			c0.2,0.3,0.5,0.6,0.8,0.8c5.3,3.2,8,7.2,8,12c0,5.1-3.1,10-7.7,12.2C128,154.3,126.6,154.6,125.2,154.6z M115.3,146.8
			c2.5,0,4.5,0.9,6.2,1.6c1.4,0.6,2.6,1.1,3.8,1.1l0,0c0.6,0,1.3-0.2,2-0.5c2.9-1.3,4.8-4.4,4.8-7.6c0-3-1.8-5.4-5.5-7.7
			c-0.9-0.5-1.7-1.3-2.3-2.1c-1-1.4-1.5-3-1.9-4.4c-0.3-1.1-0.6-2-1.1-2.8c-1.5-2.5-3.7-3.7-6.5-3.7c-2.8,0-5.5,1.6-6.6,3.9
			c-0.4,0.9-0.7,1.8-1,2.8c-0.7,2.4-1.5,5.2-5.1,7.2c-3.5,1.9-4.4,6.7-3.5,10.1c0.8,3.1,2.8,4.6,5.9,4.6c1.2,0,2.5-0.2,3.8-0.7
			c0.3-0.1,0.7-0.3,1.1-0.4c1.8-0.7,3.7-1.4,5.9-1.4L115.3,146.8z"/>
	</g>
	<g>
		
			<ellipse transform="matrix(0.8537 -0.5207 0.5207 0.8537 -48.5387 66.4553)" fill="#F16232" cx="94" cy="119.6" rx="7.6" ry="11.8"/>
		<path fill="#FFFFFF" d="M97.4,133c-4.3,0-9-3.2-12-8.1c-1.9-3.1-2.9-6.5-2.8-9.7c0.1-3.5,1.5-6.3,4-7.8c1.2-0.7,2.6-1.1,4.1-1.1
			c4.3,0,9,3.2,12,8.1c1.9,3.1,2.9,6.5,2.8,9.7c-0.1,3.5-1.5,6.3-4,7.8C100.3,132.6,98.9,133,97.4,133z M90.7,111.3
			c-0.6,0-1.1,0.1-1.5,0.4c-1.3,0.8-1.6,2.7-1.6,3.7c-0.1,2.1,0.7,4.7,2.1,6.9c2.4,3.9,5.7,5.7,7.7,5.7c0.6,0,1.1-0.1,1.5-0.4
			c1.3-0.8,1.6-2.7,1.6-3.7c0.1-2.1-0.7-4.7-2.1-6.9C96,113.1,92.7,111.3,90.7,111.3z"/>
	</g>
	<g>
		
			<ellipse transform="matrix(0.9792 -0.2029 0.2029 0.9792 -19.103 23.7119)" fill="#F16232" cx="106.1" cy="105" rx="7.6" ry="11.8"/>
		<path fill="#FFFFFF" d="M107.5,119.2c-5.1,0-9.8-5.1-11.3-12.1c-0.7-3.6-0.5-7.1,0.6-10c1.3-3.2,3.6-5.4,6.4-6
			c0.5-0.1,1-0.2,1.5-0.2c5.1,0,9.8,5.1,11.3,12.1c1.6,7.9-1.4,14.9-7,16.1C108.5,119.2,108,119.2,107.5,119.2z M104.7,95.9
			c-0.2,0-0.3,0-0.5,0.1c-1.5,0.3-2.4,2-2.7,2.9c-0.8,2-0.9,4.6-0.4,7.2c1,5,4.1,8.1,6.4,8.1c0.2,0,0.3,0,0.5-0.1
			c2.4-0.5,4.2-4.8,3.1-10.2C110.1,99,107,95.9,104.7,95.9z"/>
	</g>
	<g>
		
			<ellipse transform="matrix(-0.8537 -0.5207 0.5207 -0.8537 190.0291 292.6288)" fill="#F16232" cx="136.1" cy="119.6" rx="7.6" ry="11.8"/>
		<path fill="#FFFFFF" d="M132.8,133C132.8,133,132.8,133,132.8,133c-1.5,0-2.9-0.4-4.1-1.1c-2.5-1.5-3.9-4.3-4-7.8
			c-0.1-3.1,0.9-6.6,2.8-9.7c3-4.9,7.7-8.1,12-8.1c1.5,0,2.9,0.4,4.1,1.1c2.5,1.5,3.9,4.3,4,7.8c0.1,3.1-0.9,6.6-2.8,9.7
			C141.8,129.8,137.1,133,132.8,133z M139.5,111.3c-2,0-5.3,1.8-7.7,5.7c-1.4,2.3-2.1,4.8-2.1,6.9c0,1,0.3,2.9,1.6,3.7
			c0.4,0.3,0.9,0.4,1.5,0.4c2,0,5.3-1.8,7.7-5.7c1.4-2.3,2.1-4.8,2.1-6.9c0-1-0.3-2.9-1.6-3.7C140.5,111.4,140,111.3,139.5,111.3z"
			/>
	</g>
	<g>
		
			<ellipse transform="matrix(-0.9792 -0.2029 0.2029 -0.9792 224.1383 233.0612)" fill="#F16232" cx="124" cy="105" rx="7.6" ry="11.8"/>
		<path fill="#FFFFFF" d="M122.6,119.2L122.6,119.2c-0.5,0-1-0.1-1.5-0.2c-2.8-0.6-5.1-2.8-6.4-6c-1.1-2.9-1.3-6.5-0.6-10
			c1.5-7,6.2-12.1,11.3-12.1c0.5,0,1,0.1,1.5,0.2c5.6,1.2,8.6,8.2,7,16.1C132.5,114.1,127.7,119.2,122.6,119.2z M125.4,95.9
			c-2.3,0-5.3,3.1-6.4,8.1c-0.5,2.6-0.4,5.2,0.4,7.2c0.4,1,1.2,2.6,2.7,2.9c0.2,0,0.3,0.1,0.5,0.1c2.3,0,5.3-3.1,6.4-8.1
			c1.1-5.4-0.7-9.7-3.1-10.2C125.7,95.9,125.6,95.9,125.4,95.9z"/>
	</g>
</g>
<g>
	<path fill="#00B4B4" d="M94.9,149c-0.9-0.2-1.8-0.4-2.6-0.7c-2.2-0.6-4.6-1.2-6.7-1.3c-0.3,0-0.7,0-1,0c-2.5,0-5.3,0.5-8.3,0.9
		c-3.3,0.5-6.8,1.1-10,1.1c-3.8,0-6.6-0.8-8.7-2.4c-5.2-4-8-8-13.9-16.6c-1.4-2-2.9-3.7-4.4-5.3c-1.8-2-3.4-3.8-4.6-5.9
		c-1-1.7-1.7-3.5-2.4-5.4c-1-2.7-2.1-5.4-4-8c-0.8-1.1-1.4-2.3-2.1-3.6c-0.6-1.1-1.2-2.3-2-3.4c-1.4-2.2-3.3-3.8-5.1-5.4
		c-0.6-0.5-1.2-1.1-1.8-1.6c-3.3-3.2-6.7-5.8-10.4-8.3c-1.4-0.9-1.6-2.2-1.7-2.7c-0.1-0.8,0.1-1.3,0.3-1.4c0.8-0.8,2.3-1.2,4.3-1.2
		c5.7,0,13.7,3.2,18.2,7.4c5.2,4.8,8,9.5,9.9,12.6c1.1,1.9,1.9,3.1,2.8,3.8c2.5,1.9,4.7,2.8,6.8,2.8c4,0,6.3-3.2,7.7-5.6
		c2-3.5,2.4-4.5,3.4-12.7c0.1-0.4,0.1-0.9,0.2-1.5c0.6-3.7,1-7,0.4-9.1c-0.3-1.3-5.4-22.6-6.3-28c-0.8-4.9-2.6-13.6-3.6-18.3
		l-0.6-2.8c-1.5-7.1-1.3-7.2,1.5-8.4c0.4-0.2,0.7-0.2,1-0.2c0.7,0,3.2,0.7,5.7,9.9c0.8,2.9,1.5,5.3,2.2,7.9c0.9,3,1.8,6.2,2.9,10.4
		c0.3,1.1,0.7,3,1.2,5.2c3.4,15.9,4.8,20,7.4,20.9c2.2,0.8,4.2,0.4,5.5-0.9c1.9-1.9,1.8-5.3,1.8-7.7c0-0.5,0-1,0-1.4
		c0.3-6.9,0.4-12.5,0.5-17.5c0.1-7,0.2-13.1,1-20.2c0.1-1.3,0.2-2.8,0.3-4.6C79.7,14.1,80.1,5,84,5c0.1,0,0.1,0,0.2,0
		c3.7,0.2,4.3,1.8,4.1,6.9C88,19.5,88,23.4,87.9,28.2c0,2.9-0.1,6-0.2,10.5c0,0.7-0.2,2.3-0.3,4C86,58,86.1,66.7,90.2,69.1
		C91.1,69.7,92,70,93,70h0c4.7,0,5.9-6.3,6.6-9.7c0.1-0.4,0.1-0.7,0.2-1c1.6-6.6,2.6-12.3,3.8-18.4c0.4-2,0.8-4.1,1.2-6.2
		c0.3-1.6,0.5-3.1,0.8-4.7c0.4-2.8,0.8-5.8,1.8-9.6c0.9-3.3,1.3-4.2,3.4-4.2c0.3,0,0.6,0,0.9,0.1c1.4,0.2,1.9,1,1.9,5.6l0,0.7
		c0,2.1-0.9,7.7-1.5,11.8c-0.4,2.5-0.7,4.6-0.8,5.8c-0.3,3.3-0.7,5.5-1.1,8c-0.3,1.7-0.5,3.4-0.8,5.7c-0.4,3.1-1.2,7.2-1.9,11.1
		c-0.6,3.3-1.2,6.4-1.6,9c-0.4,2.3,0.1,4.4,1.3,5.8c0.9,1.1,2.2,1.7,3.6,1.7c1.2,0,3.1-0.4,5.1-2.6c1.8-1.9,4-7.4,6.4-13.3
		c0.4-0.9,0.7-1.7,0.9-2.2c0.8-1.9,1.7-3.9,2.6-5.9c1.6-3.6,3.3-7.2,4.7-10.8l0.1-0.2c3-7.9,5.2-8.1,5.5-8.1c0.1,0,0.2,0,0.3,0
		c1.2,0.4,2,0.6,0,7.6c-1.9,6.6-2.4,8-5.1,15.4l-0.5,1.3c-6.7,18.2-8.7,23.6-9.3,25.4l0,0c-0.6,1.3-0.9,3-1,4.8
		c1.6-1.2,3.4-1.8,5.2-1.8c0,0,0,0,0.1,0c0.1-0.3,0.2-0.6,0.3-0.9l0.3-0.5v-0.1c1-2.6,6.2-17.2,9.1-25.2l0.4-1.3
		c2.8-7.6,3.3-8.9,5.2-15.7c1.9-6.4,2.9-11.8-3.3-13.7c-0.6-0.2-1.2-0.3-1.8-0.3c-5.8,0-9.1,8.5-10.2,11.3l-0.1,0.2
		c-1.3,3.5-3,7.1-4.5,10.6c-0.9,2-1.8,4-2.7,6c-0.2,0.5-0.5,1.3-0.9,2.3c-1.1,2.8-4.1,10.3-5.4,11.7c-0.6,0.6-1,0.9-1.3,1
		c-0.1-0.2-0.2-0.8-0.1-1.6c0.4-2.5,1-5.6,1.6-8.9c0.7-4,1.5-8.1,1.9-11.3c0.3-2.2,0.6-3.9,0.8-5.5c0.4-2.5,0.8-4.8,1.1-8.3
		c0.1-1,0.4-3.1,0.8-5.5c0.7-4.7,1.5-10.1,1.5-12.6l0-0.7c0-3.4,0-9.8-6.3-10.5c-0.5-0.1-1.1-0.1-1.5-0.1c-6.2,0-7.5,5-8.2,8
		c-1,4-1.5,7.2-1.9,10.1c-0.2,1.6-0.4,3-0.7,4.5C99.3,35.9,99,38,98.6,40c-1.1,6-2.2,11.7-3.7,18.1c-0.1,0.3-0.1,0.7-0.2,1.2
		c-0.7,3.8-1.3,5.2-1.8,5.6c0,0,0,0,0,0c-1.5-1.4-1.6-8.6-0.4-21.6c0.2-2,0.3-3.5,0.3-4.4c0.1-4.5,0.1-7.7,0.2-10.6
		c0.1-4.8,0.1-8.6,0.4-16.2C93.4,8.4,93.7,0.5,84.5,0c-0.2,0-0.3,0-0.5,0c-8.8,0-9.2,11.7-9.4,19.4c-0.1,1.6-0.1,3.1-0.2,4.2
		c-0.8,7.3-0.9,13.5-1,20.7c-0.1,5-0.1,10.6-0.5,17.3c0,0.5,0,1.1,0,1.7c0,0.9,0.1,3-0.2,3.9C71.2,64.9,69,54.5,68,50
		c-0.5-2.4-0.9-4.3-1.2-5.5c-1.1-4.3-2.1-7.5-3-10.5c-0.7-2.5-1.4-4.9-2.2-7.8c-0.9-3.4-3.6-13.6-10.5-13.6c-1,0-2,0.2-3,0.6
		c-6.8,2.9-5.8,7.3-4.4,14l0.6,2.8c1,4.6,2.8,13.3,3.6,18.1c0.9,5.7,6.2,27.4,6.4,28.4l0,0.1c0.4,1.2-0.3,5.3-0.5,7
		c-0.1,0.6-0.2,1.1-0.2,1.6c-1,7.8-1.2,8.1-2.8,10.9c-1.6,2.8-2.6,3.1-3.4,3.1c-0.7,0-1.9-0.3-3.8-1.8c-0.3-0.3-1-1.4-1.6-2.5
		c-1.9-3.1-5.1-8.4-10.8-13.6c-5.4-4.9-14.6-8.7-21.6-8.7c-3.4,0-6.1,0.9-7.8,2.6c-1.3,1.3-1.9,3.3-1.7,5.5c0.3,2.6,1.7,4.9,3.9,6.4
		c3.5,2.3,6.6,4.7,9.7,7.7c0.6,0.6,1.3,1.2,1.9,1.8c1.6,1.5,3.2,2.8,4.3,4.4c0.6,0.9,1.2,1.9,1.7,3c0.7,1.4,1.5,2.8,2.5,4.2
		c1.5,2,2.4,4.4,3.4,6.8c0.8,2,1.6,4.1,2.8,6.1c1.5,2.6,3.4,4.7,5.3,6.7c1.4,1.6,2.8,3.1,4,4.8c6,8.8,9.2,13.2,14.9,17.7
		c3,2.3,6.8,3.4,11.8,3.4c3.7,0,7.5-0.6,10.8-1.2c3.1-0.5,6.1-1,8.2-0.9c1.6,0.1,3.6,0.6,5.7,1.1c2.7,0.7,5.5,1.4,8.2,1.4
		c1.2,0,2.2-0.1,3.2-0.4C99.1,153.7,96.5,151.9,94.9,149z"/>
	<path fill="#00B4B4" d="M123.4,119.2C123.3,119.2,123.3,119.2,123.4,119.2C123.3,119.2,123.3,119.2,123.4,119.2
		C123.3,119.2,123.4,119.2,123.4,119.2z"/>
</g>
</svg>
